<?xml version="1.0" standalone="no"?>
<!DOCTYPE svg PUBLIC "-//W3C//DTD SVG 1.1//EN" "http://www.w3.org/Graphics/SVG/1.1/DTD/svg11.dtd">
<svg xmlns="http://www.w3.org/2000/svg">
<defs >
<font id="Lexend" horiz-adv-x="553" ><font-face
    font-family="Lexend Thin"
    units-per-em="1000"
    panose-1="0 0 0 0 0 0 0 0 0 0"
    ascent="1000"
    descent="-250"
    alphabetic="0" />
<glyph unicode=" " glyph-name="space" horiz-adv-x="280" />
<glyph unicode="!" glyph-name="exclam" horiz-adv-x="254" d="M124 241Q120 335 121 436V700H143L144 436Q144 335 140 241H124ZM129 -8Q98 -8 98 28Q98 44 106 54T129 64Q160 64 160 28Q160 13 152 3T129 -8Z" />
<glyph unicode="&quot;" glyph-name="quotedbl" horiz-adv-x="328" d="M173 442L221 700H248L190 442H173ZM80 442L128 700H155L97 442H80Z" />
<glyph unicode="#" glyph-name="numbersign" horiz-adv-x="687" d="M132 0L169 216H41V238H173L213 475H79V497H217L252 700H274L239 497H496L531 700H553L518 497H646V475H514L474 238H609V216H470L433 0H411L448 216H191L154 0H132ZM195 238H452L492 475H235L195 238Z" />
<glyph unicode="$" glyph-name="dollar" horiz-adv-x="566" d="M288 -91V-10Q218 -8 156 18T55 92L68 110Q149 16 288 12V349Q221 373 177 395T110 449T88 529Q88 580 114 618T185 679T288 703V782H310V703Q383 700 430 671T509 605L494 590Q466 623 419 650T310
681V365Q378 341 426 319T500 262T526 170Q526 121 497 82T419 18T310 -10V-91H288ZM110 526Q110 488 128 463T186 417T288 373V681Q236 679 196 659T133 605T110 526ZM504 173Q504 220 480 249T413 299T310 341V12Q363 15 407 36T477 93T504 173Z" />
<glyph unicode="%" glyph-name="percent" horiz-adv-x="831" d="M193 329Q148 329 114 353T60 420T40 518Q40 573 59 616T113 684T193 709Q238 709 272 685T327 617T347 518Q347 465 327 422T272 354T193 329ZM172 0L637 700H664L199 0H172ZM193 350Q249 350 287
396T325 518Q325 594 288 641T193 688Q136 688 99 641T62 518Q62 443 99 397T193 350ZM637 -9Q592 -9 558 15T504 82T484 180Q484 235 503 278T557 346T637 371Q682 371 716 347T771 279T791 180Q791 127 771 84T716 16T637 -9ZM637 12Q693 12 731 58T769 180Q769
256 732 303T637 350Q580 350 543 303T506 180Q506 105 543 59T637 12Z" />
<glyph unicode="&amp;" glyph-name="ampersand" horiz-adv-x="656" d="M315 -10Q236 -10 177 17T84 97T50 221Q50 279 79 329T165 412Q143 442 136 467T128 526Q128 578 152 618T221 680T323 703Q391 703 436 671T507 578L488 567Q461 627 422 654T323 681Q244
681 198 638T151 528Q151 495 159 471T189 419T255 343L498 78V78Q594 163 614 329H636Q626 243 595 175T513 61L569 0H540L496 47Q460 20 415 5T315 -10ZM73 221Q73 160 104 113T191 39T319 12Q411 12 481 63L478 66L253 309Q228 336 210 357T178 395Q129 368
101 321T73 221Z" />
<glyph unicode="&apos;" glyph-name="quotesingle" horiz-adv-x="187" d="M56 442L94 700H121L74 442H56Z" />
<glyph unicode="(" glyph-name="parenleft" horiz-adv-x="335" d="M310 -186Q188 -110 124 4T60 258Q60 397 124 511T311 702L325 685Q204 606 144 498T83 258Q83 128 141 21T325 -169L310 -186Z" />
<glyph unicode=")" glyph-name="parenright" horiz-adv-x="335" d="M24 -186L10 -169Q131 -90 191 18T252 258Q252 388 194 495T10 685L25 702Q147 626 211 512T275 258Q275 119 211 5T24 -186Z" />
<glyph unicode="*" glyph-name="asterisk" horiz-adv-x="402" d="M187 376L191 525L66 455L53 475L181 538L53 603L66 625L190 551L187 700H211L207 551L334 625L347 603L219 539L347 475L334 455L207 527L211 376H187Z" />
<glyph unicode="+" glyph-name="plus" horiz-adv-x="590" d="M60 277V299H284V525H306V299H530V277H306V42H284V277H60Z" />
<glyph unicode="," glyph-name="comma" horiz-adv-x="216" d="M86 -122L77 -110Q96 -89 109 -69T122 -36Q122 -20 115 -14T93 -3Q74 4 74 26Q74 38 81 46T104 54Q150 54 150 -7Q150 -41 136 -65T86 -122Z" />
<glyph unicode="-" glyph-name="hyphen" horiz-adv-x="394" d="M60 263V285H334V263H60Z" />
<glyph unicode="." glyph-name="period" horiz-adv-x="228" d="M114 -5Q84 -5 84 26Q84 57 114 57Q144 57 144 26Q144 13 136 4T114 -5Z" />
<glyph unicode="/" glyph-name="slash" horiz-adv-x="566" d="M75 -95L469 700H493L99 -95H75Z" />
<glyph unicode="0" glyph-name="zero" horiz-adv-x="620" d="M310 -10Q184 -10 118 82T52 350Q52 526 118 618T310 710Q436 710 502 618T568 350Q568 174 502 82T310 -10ZM310 12Q424 12 484 99T545 350Q545 513 485 600T310 688Q197 688 136 601T75 350Q75 187
136 100T310 12Z" />
<glyph unicode="1" glyph-name="one" horiz-adv-x="379" d="M62 0V22H179V675L45 585L39 605L191 710H201V22H319V0H62Z" />
<glyph unicode="2" glyph-name="two" horiz-adv-x="548" d="M78 0L72 13L362 323Q383 345 408 378T452 451T471 535Q471 578 447 613T380 668T283 688Q243 688 203 672T130 618T77 514L56 524Q85 622 145 666T285 710Q344 710 391 688T466 626T494 536Q494 492
478 452T436 377T385 314L111 22H506V0H78Z" />
<glyph unicode="3" glyph-name="three" horiz-adv-x="529" d="M264 -10Q190 -10 129 23T20 138L40 150Q90 68 146 40T266 12Q325 12 371 40T443 117T470 222Q470 279 445 324T376 396T280 423Q248 423 214 414T141 361L127 383L435 678H89V700H452L465 676L208
432Q239 445 280 445Q342 445 390 417T465 338T493 222Q493 158 463 106T381 22T264 -10Z" />
<glyph unicode="4" glyph-name="four" horiz-adv-x="620" d="M434 0V190H46L35 212L436 700H456V212H578V190H456V0H434ZM64 212H434V664L64 212Z" />
<glyph unicode="5" glyph-name="five" horiz-adv-x="568" d="M257 -10Q188 -10 133 22T39 115L58 133Q93 73 147 43T258 12Q322 12 373 42T455 124T485 239Q485 294 459 340T386 414T281 442Q227 442 172 419T78 361L65 377L111 700H487V678H129L90 397Q131 428
179 446T282 464Q346 464 397 435T478 355T508 237Q508 167 475 111T385 23T257 -10Z" />
<glyph unicode="6" glyph-name="six" horiz-adv-x="605" d="M295 -10Q232 -10 181 21T99 107T68 233Q66 290 87 358T156 501L288 700H310L312 695L183 501Q149 449 126 402T96 324Q131 391 183 423T295 455Q359 455 410 425T492 341T523 222Q523 157 493 105T411
21T295 -10ZM298 12Q354 12 400 40T473 116T500 223Q500 282 473 329T400 405T298 433Q240 433 194 405T120 328T92 221Q92 162 119 115T193 40T298 12Z" />
<glyph unicode="7" glyph-name="seven" horiz-adv-x="466" d="M98 0L399 678H0V700H408L424 680L123 0H98Z" />
<glyph unicode="8" glyph-name="eight" horiz-adv-x="580" d="M290 -3Q225 -3 172 23T87 93T55 193Q55 260 94 309T206 380Q150 396 118 439T86 530Q86 583 113 623T187 687T290 710Q347 710 393 687T467 624T495 530Q495 482 463 440T372 380Q441 358 483 310T526
193Q526 137 495 93T410 23T290 -3ZM290 388Q343 388 384 407T448 459T472 537Q472 579 449 613T384 667T290 688Q238 688 197 668T133 613T109 537Q109 494 132 461T197 408T290 388ZM290 19Q349 19 397 43T474 106T503 191Q503 243 476 283T400 345T290 368Q229
368 181 346T106 283T78 191Q78 146 107 107T184 44T290 19Z" />
<glyph unicode="9" glyph-name="nine" horiz-adv-x="548" d="M270 0L268 5L459 350Q423 296 377 271T275 245Q211 245 160 276T78 359T47 478Q47 543 77 595T159 679T275 710Q338 710 389 680T471 598T502 476Q502 407 472 338T403 199L292 0H270ZM272 267Q330
267 376 295T450 372T478 479Q478 538 451 585T377 660T272 688Q216 688 170 660T97 584T70 477Q70 418 97 371T170 295T272 267Z" />
<glyph unicode=":" glyph-name="colon" horiz-adv-x="208" d="M360 -5Q330 -5 330 26Q330 57 360 57Q390 57 390 26Q390 13 382 4T360 -5ZM104 458Q74 458 74 489Q74 520 104 520Q134 520 134 489Q134 476 126 467T104 458Z" />
<glyph unicode=";" glyph-name="semicolon" horiz-adv-x="218" d="M316 -122L307 -110Q326 -89 339 -69T352 -36Q352 -20 345 -14T323 -3Q304 4 304 26Q304 38 311 46T334 54Q380 54 380 -7Q380 -41 366 -65T316 -122ZM90 458Q60 458 60 489Q60 520 90 520Q120
520 120 489Q120 476 112 467T90 458Z" />
<glyph unicode="&lt;" glyph-name="less" horiz-adv-x="472" d="M404 36L48 240V266L404 470L416 450L75 253L416 56L404 36Z" />
<glyph unicode="=" glyph-name="equal" horiz-adv-x="566" d="M65 347V371H501V347H65ZM65 190V214H501V190H65Z" />
<glyph unicode="&gt;" glyph-name="greater" horiz-adv-x="470" d="M68 36L56 56L397 253L56 450L68 470L424 266V240L68 36Z" />
<glyph unicode="?" glyph-name="question" horiz-adv-x="438" d="M186 146L184 315Q277 337 326 392T375 522Q375 565 354 603T294 664T201 688Q143 688 94 656T18 547L0 559Q23 632 77 671T200 710Q259 710 303 685T373 618T398 522Q398 443 347 383T208 300L206
146H186ZM174 20Q174 33 181 41T200 50Q226 50 226 20Q226 8 220 -1T200 -10Q174 -10 174 20Z" />
<glyph unicode="@" glyph-name="at" horiz-adv-x="986" d="M424 -162Q315 -162 232 -114T102 22T55 224Q55 321 90 408T191 564T346 671T546 710Q659 710 746 668T882 553T931 384Q931 306 911 246T858 142T783 77T699 55Q653 55 637 77T621 128Q621 139 623 152Q592
107 545 81T443 55Q394 55 356 77T296 138T274 231Q274 306 303 369T384 471T501 510Q535 510 569 499T631 461T674 388L694 501H716L653 177Q647 143 645 121T654 88T697 77Q746 77 795 110T876 212T908 382Q908 477 861 545T733 651T547 688Q441 688 355 649T207
544T112 397T78 231Q78 118 122 35T245 -94T424 -140Q459 -140 505 -131T594 -106T665 -73L677 -91Q642 -112 599 -128T511 -153T424 -162ZM445 77Q529 77 586 136T659 305Q660 310 661 319T662 335Q662 369 644 404T590 464T501 488Q449 488 403 456T327 365T297
232Q297 164 338 121T445 77Z" />
<glyph unicode="A" glyph-name="A" horiz-adv-x="611" d="M20 0L289 700H322L591 0H565L477 230H133L46 0H20ZM237 503L142 253H468L372 504Q369 512 358 540T333 606T304 680Q297 660 287 634T267 581T248 533T237 503Z" />
<glyph unicode="B" glyph-name="B" horiz-adv-x="652" d="M110 0V700H378Q433 700 474 677T537 616T560 531Q560 475 526 431T435 369Q516 354 556 306T597 192Q597 138 574 95T502 26T371 0H110ZM131 378H372Q417 378 454 398T514 454T537 532Q537 593 494 635T375
678H131V378ZM131 22H372Q445 22 489 44T554 103T574 188Q574 262 523 309T377 356H131V22Z" />
<glyph unicode="C" glyph-name="C" horiz-adv-x="690" d="M399 -10Q298 -10 221 35T99 161T55 346Q55 452 99 534T220 663T399 710Q478 710 543 679T655 594L637 578Q593 628 533 658T399 688Q306 688 234 644T120 522T78 346Q78 249 119 174T233 55T399 12Q467
12 524 35T624 99L639 81Q594 38 533 14T399 -10Z" />
<glyph unicode="D" glyph-name="D" horiz-adv-x="737" d="M110 0V700H357Q421 700 479 674T583 601T655 490T682 350Q682 275 656 211T584 100T480 26T357 0H110ZM352 678H132V22H352Q412 22 467 47T566 116T634 221T659 350Q659 420 634 480T566 584T468 653T352 678Z" />
<glyph unicode="E" glyph-name="E" horiz-adv-x="566" d="M110 0V700H501V678H132V373H443V351H132V22H495V0H110Z" />
<glyph unicode="F" glyph-name="F" horiz-adv-x="575" d="M110 0V700H501V678H132V363H444V341H132V0H110Z" />
<glyph unicode="G" glyph-name="G" horiz-adv-x="767" d="M400 -10Q299 -10 222 35T100 161T55 346Q55 452 99 534T220 663T399 710Q484 710 552 675T668 580L651 564Q608 621 543 654T399 688Q306 688 234 644T120 522T78 346Q78 249 120 174T234 55T400 12Q496
12 563 51T664 160T699 322V336H409V358H722V339Q722 168 636 79T400 -10Z" />
<glyph unicode="H" glyph-name="H" horiz-adv-x="732" d="M110 0V700H132V360H599V700H621V0H599V338H132V0H110Z" />
<glyph unicode="I" glyph-name="I" horiz-adv-x="386" d="M50 0V22H182V678H50V700H336V678H204V22H336V0H50Z" />
<glyph unicode="J" glyph-name="J" horiz-adv-x="559" d="M209 -10Q140 -10 92 25T20 120L36 135Q91 12 211 12Q286 12 333 59T381 213V678H252V700H509V678H403V213Q403 97 349 44T209 -10Z" />
<glyph unicode="K" glyph-name="K" horiz-adv-x="636" d="M110 0V700H132V277L566 700H598L304 413L616 0H587L287 397L132 246V0H110Z" />
<glyph unicode="L" glyph-name="L" horiz-adv-x="533" d="M110 0V700H132V22H483V0H110Z" />
<glyph unicode="M" glyph-name="M" horiz-adv-x="839" d="M110 0V700H127L419 234L711 700H728V0H706V543Q706 598 708 652L427 204H412L130 654Q132 602 132 545V0H110Z" />
<glyph unicode="N" glyph-name="N" horiz-adv-x="731" d="M110 0V700H132L601 37Q600 51 600 72T599 132T598 241V700H620V0H600L131 664Q131 641 131 607T132 537T132 470V0H110Z" />
<glyph unicode="O" glyph-name="O" horiz-adv-x="798" d="M399 -10Q298 -10 221 36T99 163T55 349Q55 454 99 535T220 663T399 710Q500 710 577 664T699 537T743 349Q743 244 699 163T578 36T399 -10ZM399 12Q492 12 564 55T678 175T720 349Q720 447 679 523T565
644T399 688Q306 688 234 644T120 524T78 349Q78 251 119 175T233 56T399 12Z" />
<glyph unicode="P" glyph-name="P" horiz-adv-x="600" d="M110 0V700H361Q416 700 457 676T522 608T545 507Q545 443 522 395T458 319T361 291H132V0H110ZM132 313H367Q437 313 479 367T522 507Q522 582 480 630T367 678H132V313Z" />
<glyph unicode="Q" glyph-name="Q" horiz-adv-x="798" d="M399 -10Q298 -10 221 36T99 163T55 349Q55 454 99 535T220 663T399 710Q500 710 577 664T699 537T743 349Q743 247 702 168T588 43L669 -65L652 -78L570 32Q533 12 490 1T399 -10ZM399 12Q485 12 556
50L398 260L416 272L574 61Q642 105 681 179T720 349Q720 447 679 523T565 644T399 688Q306 688 234 644T120 524T78 349Q78 251 119 175T233 56T399 12Z" />
<glyph unicode="R" glyph-name="R" horiz-adv-x="609" d="M110 0V700H361Q416 700 457 676T522 608T545 507Q545 422 505 365T397 294L569 0H543L372 291Q367 291 361 291H132V0H110ZM132 313H367Q437 313 479 367T522 507Q522 582 480 630T367 678H132V313Z" />
<glyph unicode="S" glyph-name="S" horiz-adv-x="567" d="M303 -10Q214 -10 149 22T43 115L61 131Q138 12 303 12Q359 12 404 32T477 89T504 172Q504 220 474 250T389 301T264 342Q170 368 118 409T65 526Q65 579 95 620T176 686T292 710Q373 710 425 684T511
611L494 596Q461 640 414 664T292 688Q235 688 189 667T115 610T88 526Q88 458 138 422T272 363Q351 343 408 319T496 260T527 172Q527 120 498 79T417 14T303 -10Z" />
<glyph unicode="T" glyph-name="T" horiz-adv-x="488" d="M233 0V678H20V700H468V678H255V0H233Z" />
<glyph unicode="U" glyph-name="U" horiz-adv-x="744" d="M368 -6Q293 -6 235 29T143 127T110 269V700H132V278Q132 201 162 142T245 50T368 16Q440 16 495 49T581 142T612 278V700H634V269Q634 189 600 127T505 30T368 -6Z" />
<glyph unicode="V" glyph-name="V" horiz-adv-x="604" d="M288 0L20 700H46L282 76Q295 43 301 25Q305 34 309 46T320 74L558 700H584L315 0H288Z" />
<glyph unicode="W" glyph-name="W" horiz-adv-x="849" d="M216 0L20 700H44L186 193Q196 156 202 133T215 87T231 32Q257 96 271 132T297 202L417 520H432L551 202Q555 191 561 176T580 128T618 34Q627 66 631 81T639 107T647 136T663 193L805 700H829L633 0H607L425
474L242 0H216Z" />
<glyph unicode="X" glyph-name="X" horiz-adv-x="584" d="M22 0L276 356L27 700H56L289 375L524 700H552L302 356L562 0H533L289 338L50 0H22Z" />
<glyph unicode="Y" glyph-name="Y" horiz-adv-x="592" d="M289 0V312L20 700H46L299 335L546 700H572L311 313V0H289Z" />
<glyph unicode="Z" glyph-name="Z" horiz-adv-x="634" d="M60 0V24L535 678H86V700H563V677L87 22H574V0H60Z" />
<glyph unicode="[" glyph-name="bracketleft" horiz-adv-x="319" d="M75 -190V700H287V678H98V-168H287V-190H75Z" />
<glyph unicode="\" glyph-name="backslash" horiz-adv-x="521" d="M431 -95L37 700H63L457 -95H431Z" />
<glyph unicode="]" glyph-name="bracketright" horiz-adv-x="319" d="M32 -190V-168H221V678H32V700H244V-190H32Z" />
<glyph unicode="^" glyph-name="asciicircum" horiz-adv-x="584" d="M50 368L281 727H303L534 368H507L292 702L77 368H50Z" />
<glyph unicode="_" glyph-name="underscore" horiz-adv-x="696" d="M56 -105V-82H640V-105H56Z" />
<glyph unicode="`" glyph-name="grave" horiz-adv-x="500" d="M317 611L173 715L187 736L327 626L317 611Z" />
<glyph unicode="a" glyph-name="a" horiz-adv-x="602" d="M294 -10Q221 -10 164 24T73 119T40 258Q40 337 74 398T164 495T290 530Q342 530 387 511T464 456T510 374L512 525H532V0H510V144Q485 75 427 33T294 -10ZM294 12Q355 12 404 43T482 131T511 260Q511
332 483 388T405 476T292 508Q225 508 173 476T92 388T63 258Q63 187 92 132T173 44T294 12Z" />
<glyph unicode="b" glyph-name="b" horiz-adv-x="602" d="M312 -10Q263 -10 218 10T140 65T92 147L90 0H70V740H92V374Q118 443 176 486T308 530Q381 530 438 496T529 401T562 262Q562 183 528 122T438 25T312 -10ZM311 12Q378 12 430 44T511 132T540 262Q540
333 511 388T430 476T309 508Q248 508 199 477T121 389T92 260Q92 188 120 132T198 44T311 12Z" />
<glyph unicode="c" glyph-name="c" horiz-adv-x="526" d="M306 -10Q228 -10 168 25T74 122T40 263Q40 341 74 401T168 496T306 530Q369 530 420 507T506 443L490 426Q457 464 410 486T306 508Q235 508 181 477T95 390T62 263Q63 190 94 133T180 44T306 12Q362
12 408 33T488 93L504 77Q468 37 418 14T306 -10Z" />
<glyph unicode="d" glyph-name="d" horiz-adv-x="604" d="M294 -10Q221 -10 164 24T73 119T40 258Q40 337 74 398T164 495T290 530Q339 530 384 510T462 455T510 374V740H532V0H510V146Q484 77 426 34T294 -10ZM293 12Q354 12 403 43T481 131T510 260Q510 332
482 388T404 476T291 508Q224 508 172 476T91 388T62 258Q62 187 91 132T172 44T293 12Z" />
<glyph unicode="e" glyph-name="e" horiz-adv-x="545" d="M297 -10Q221 -10 163 25T73 122T40 263Q40 341 71 401T157 496T285 530Q351 530 403 501T484 419T510 291L509 265H62V263Q63 190 93 133T175 44T297 12Q349 12 393 31T472 83L484 65Q447 31 401 11T297
-10ZM288 508Q224 508 175 480T97 402T63 287H487L488 295Q488 359 461 407T389 481T288 508Z" />
<glyph unicode="f" glyph-name="f" horiz-adv-x="340" d="M140 0V503H30V525H140V626Q140 692 169 721T245 750Q281 750 303 739T340 708L326 693Q308 713 289 720T243 728Q207 728 185 706T162 625V525H314V503H162V0H140Z" />
<glyph unicode="g" glyph-name="g" horiz-adv-x="603" d="M294 -240Q240 -240 193 -221T113 -166L124 -146Q155 -179 197 -198T293 -218Q350 -218 399 -188T479 -103T510 30V146Q484 77 426 34T294 -10Q221 -10 164 24T73 119T40 258Q40 337 74 398T164 495T290
530Q339 530 384 510T462 455T510 373L512 525H532V21Q532 -60 500 -118T413 -208T294 -240ZM293 12Q354 12 403 43T481 131T510 260Q510 332 482 388T404 476T291 508Q224 508 172 476T91 388T62 258Q62 187 91 132T173 44T293 12Z" />
<glyph unicode="h" glyph-name="h" horiz-adv-x="541" d="M70 0V740H92V423Q116 468 169 499T288 530Q376 530 424 482T473 328V0H451V328Q451 423 408 465T286 508Q244 508 209 494T147 458T107 414T92 376V0H70Z" />
<glyph unicode="i" glyph-name="i" horiz-adv-x="162" d="M81 663Q67 663 60 671T53 692Q53 704 60 712T81 721Q94 721 101 713T109 692Q109 679 102 671T81 663ZM70 0V525H92V0H70Z" />
<glyph unicode="j" glyph-name="j" horiz-adv-x="150" d="M79 663Q65 663 58 671T51 692Q51 704 58 712T79 721Q92 721 99 713T107 692Q107 679 100 671T79 663ZM-34 -194L-42 -173Q20 -173 45 -141T70 -56V525H92V-60Q92 -125 59 -159T-34 -194Z" />
<glyph unicode="k" glyph-name="k" horiz-adv-x="478" d="M72 0V740H94V219L403 525H435L208 300L469 0H438L191 284L94 187V0H72Z" />
<glyph unicode="l" glyph-name="l" horiz-adv-x="166" d="M72 0V740H94V0H72Z" />
<glyph unicode="m" glyph-name="m" horiz-adv-x="877" d="M65 0V525H85L87 421Q124 479 172 504T276 530Q336 530 380 504T443 411Q470 469 522 499T636 530Q721 530 767 482T814 328V0H792V328Q792 423 751 465T634 508Q582 508 542 486T478 430T454 364V0H432V328Q432
423 391 465T274 508Q233 508 199 494T140 458T101 414T87 376V0H65Z" />
<glyph unicode="n" glyph-name="n" horiz-adv-x="541" d="M70 0V525H90L92 422Q115 467 169 498T288 530Q376 530 424 482T473 328V0H451V328Q451 423 408 465T286 508Q244 508 209 494T147 458T107 414T92 376V0H70Z" />
<glyph unicode="o" glyph-name="o" horiz-adv-x="615" d="M308 -10Q229 -10 169 25T74 122T40 263Q40 341 74 401T168 496T308 530Q387 530 447 496T541 402T575 263Q575 184 542 122T448 25T308 -10ZM308 12Q379 12 434 44T521 133T553 263Q553 334 521 389T434
476T308 508Q237 508 182 476T94 389T62 263Q62 190 94 133T181 44T308 12Z" />
<glyph unicode="p" glyph-name="p" horiz-adv-x="602" d="M70 -230V525H90L92 373Q117 443 175 486T308 530Q381 530 438 496T529 401T562 262Q562 183 528 122T438 25T312 -10Q263 -10 218 10T140 65T92 146V-230H70ZM311 12Q378 12 430 44T511 132T540 262Q540
333 511 388T430 476T309 508Q248 508 199 477T121 389T92 260Q92 188 120 132T198 44T311 12Z" />
<glyph unicode="q" glyph-name="q" horiz-adv-x="611" d="M510 -230V146Q484 77 426 34T294 -10Q221 -10 164 24T73 119T40 258Q40 337 74 398T164 495T290 530Q339 530 384 510T462 455T510 373L512 525H532V-230H510ZM293 12Q354 12 403 43T481 131T510 260Q510
332 482 388T404 476T291 508Q224 508 172 476T91 388T62 258Q62 187 91 132T172 44T293 12Z" />
<glyph unicode="r" glyph-name="r" horiz-adv-x="311" d="M70 0V525H90L91 417Q106 461 148 495T258 530Q292 530 316 522L309 499Q293 504 279 506T253 508Q199 508 163 481T110 414T92 338V0H70Z" />
<glyph unicode="s" glyph-name="s" horiz-adv-x="479" d="M248 -10Q182 -10 128 15T45 81L62 96Q90 59 138 36T250 12Q304 12 337 29T387 74T403 133Q403 182 361 210Q341 225 311 236T241 256Q196 267 162 281T105 313Q65 346 65 393Q65 455 112 492T240 530Q349
530 422 445L406 427Q373 465 332 486T240 508Q167 508 127 476T87 394Q87 377 94 361T117 332Q137 315 169 302T245 279Q290 269 323 257T379 227Q425 193 425 133Q425 68 378 29T248 -10Z" />
<glyph unicode="t" glyph-name="t" horiz-adv-x="350" d="M163 0V503H20V525H163V659H185V525H335V503H185V0H163Z" />
<glyph unicode="u" glyph-name="u" horiz-adv-x="538" d="M263 -10Q172 -10 123 39T73 197V525H95V197Q95 99 139 56T265 12Q301 12 333 27T391 64T430 110T444 149V525H466V0H446L444 102Q422 55 373 23T263 -10Z" />
<glyph unicode="v" glyph-name="v" horiz-adv-x="467" d="M226 0L15 525H40L234 40L427 525H452L241 0H226Z" />
<glyph unicode="w" glyph-name="w" horiz-adv-x="743" d="M200 0L15 525H39L208 44L364 444H379L535 44L704 525H728L543 0H529L372 403L214 0H200Z" />
<glyph unicode="x" glyph-name="x" horiz-adv-x="475" d="M10 0L223 265L22 525H52L237 284L422 525H452L251 266L465 0H435L236 247L40 0H10Z" />
<glyph unicode="y" glyph-name="y" horiz-adv-x="501" d="M157 -230L251 6L15 525H40L252 57Q260 40 263 33Q266 40 269 47T275 62L461 525H486L269 -13L182 -230H157Z" />
<glyph unicode="z" glyph-name="z" horiz-adv-x="429" d="M35 0V26L349 503H35V525H373V497L59 22H394V0H35Z" />
<glyph unicode="{" glyph-name="braceleft" horiz-adv-x="402" d="M343 -186Q277 -171 239 -128T201 -7L203 88Q203 158 172 197T83 237H63V263H83Q142 264 172 302T203 412L201 507Q201 584 239 627T343 686L349 667Q280 649 252 610T223 493L225 398Q225 340
203 302T139 250Q225 216 225 102L223 7Q223 -71 251 -110T349 -167L343 -186Z" />
<glyph unicode="|" glyph-name="bar" horiz-adv-x="223" d="M100 -193V740H123V-193H100Z" />
<glyph unicode="}" glyph-name="braceright" horiz-adv-x="402" d="M59 -186L53 -167Q122 -149 150 -110T179 7L177 102Q177 160 199 198T263 250Q177 285 177 398L179 493Q179 571 151 610T53 667L59 686Q125 671 163 628T201 507L199 412Q199 342 230 303T319
263H339V237H319Q260 236 230 198T199 88L201 -7Q201 -84 163 -127T59 -186Z" />
<glyph unicode="~" glyph-name="asciitilde" horiz-adv-x="510" d="M359 251Q327 251 294 265T243 288Q224 297 199 307T150 317Q129 317 114 303T98 257H76Q76 295 98 317T149 339Q179 339 212 326T273 299Q287 293 311 283T358 273Q378 273 394 286T410 333H432Q432
294 410 273T359 251Z" />
<glyph unicode="&#xa0;" glyph-name="uni00A0" horiz-adv-x="280" />
<glyph unicode="&#xa1;" glyph-name="exclamdown" horiz-adv-x="254" d="M134 289Q138 195 137 94V-170H115L114 94Q114 195 118 289H134ZM129 538Q160 538 160 502Q160 486 152 476T129 466Q98 466 98 502Q98 517 106 527T129 538Z" />
<glyph unicode="&#xa2;" glyph-name="cent" horiz-adv-x="530" d="M283 0V79Q212 86 158 122T74 218T44 351Q44 424 74 481T158 574T283 616V700H305V617Q308 617 312 617Q374 617 424 594T510 531L494 514Q461 552 415 573T312 595Q308 595 305 595V100Q308 100
312 100Q367 100 413 121T492 181L508 166Q472 126 423 102T312 78Q308 78 305 78V0H283ZM66 351Q67 283 94 229T170 142T283 101V594Q219 587 171 555T95 470T66 351Z" />
<glyph unicode="&#xa3;" glyph-name="sterling" horiz-adv-x="610" d="M59 353V375H166Q151 424 148 451T144 502Q144 588 197 641T340 695Q400 695 440 674T509 611L491 597Q454 643 419 658T340 673Q289 673 250 651T189 590T167 501Q167 471 175 438T193 375H437V353H200Q214
311 222 277T230 202Q230 166 221 134T186 69Q193 69 199 69Q223 69 251 63T334 39Q363 30 391 24T447 17Q496 17 548 49L562 31Q535 15 507 5T447 -5Q415 -5 382 2T313 21Q295 26 270 32T225 42T199 47Q171 47 139 38T73 13L62 32Q83 42 105 50T152 64Q174 79
190 117T207 201Q207 229 200 260T173 352V353H59Z" />
<glyph unicode="&#xa4;" glyph-name="currency" horiz-adv-x="563" d="M95 110L80 127L143 185Q123 209 112 238T101 302Q101 336 112 366T144 420L80 479L95 496L159 436Q183 457 213 469T279 482Q313 482 344 470T399 435L463 496L478 479L414 419Q434 396 445
366T457 302Q457 268 446 239T415 185L478 127L463 110L400 169Q376 147 345 135T279 122Q244 122 213 134T158 169L95 110ZM279 144Q325 144 360 164T415 221T435 302Q435 347 415 383T360 439T279 460Q234 460 199 440T143 383T123 302Q123 257 143 221T198 165T279
144Z" />
<glyph unicode="&#xa5;" glyph-name="yen" horiz-adv-x="592" d="M131 149V171H289V299H131V321H282L20 700H47L299 335L545 700H572L316 321H469V299H311V171H469V149H311V0H289V149H131Z" />
<glyph unicode="&#xa6;" glyph-name="brokenbar" horiz-adv-x="224" d="M101 341V740H123V341H101ZM101 -202V198H123V-202H101Z" />
<glyph unicode="&#xa7;" glyph-name="section" horiz-adv-x="539" d="M286 -61Q225 -61 171 -43T76 8L92 26Q130 -4 179 -21T286 -39Q345 -39 385 -12T425 67Q425 135 327 171L184 224Q127 245 108 275T88 340Q88 384 113 416T175 466Q144 484 126 510T108 576Q108
635 153 669T266 703Q321 703 370 682T456 619L440 601Q371 681 266 681Q209 681 171 654T132 575Q132 542 153 515T220 471L363 418Q420 397 439 367T459 302Q459 256 434 225T373 176Q408 158 428 132T449 66Q449 7 403 -27T286 -61ZM339 191Q343 189 347 188Q378
201 406 229T435 304Q435 343 412 363T355 396L208 451Q204 453 200 454Q169 442 141 414T112 339Q112 300 135 280T192 246L339 191Z" />
<glyph unicode="&#xa8;" glyph-name="dieresis" horiz-adv-x="500" d="M325 663Q311 663 304 671T297 692Q297 704 304 712T325 721Q338 721 345 713T353 692Q353 679 346 671T325 663ZM175 663Q161 663 154 671T147 692Q147 704 154 712T175 721Q188 721 195
713T203 692Q203 679 196 671T175 663Z" />
<glyph unicode="&#xa9;" glyph-name="copyright" horiz-adv-x="786" d="M392 -8Q317 -8 252 19T139 95T63 209T35 349Q35 424 62 489T138 603T252 679T392 707Q467 707 532 680T646 603T722 489T750 349Q750 274 723 209T646 96T532 20T392 -8ZM393 14Q463 14
523 40T630 111T701 218T727 350Q727 420 702 481T630 587T524 659T393 685Q323 685 262 659T155 588T84 481T58 350Q58 280 83 219T155 112T262 40T393 14ZM398 142Q341 142 295 169T221 243T194 350Q194 407 221 454T294 529T398 557Q468 557 527 512L514 494Q499
506 469 520T398 535Q348 535 307 509T241 441T216 350Q216 299 240 257T306 189T398 164Q436 164 464 173T519 201L531 185Q470 142 398 142Z" />
<glyph unicode="&#xaa;" glyph-name="ordfeminine" horiz-adv-x="365" d="M176 402Q135 402 102 423T50 480T30 561Q30 606 49 642T102 700T176 721Q213 721 243 705T290 661L291 716H310V403H290V463Q274 435 244 419T176 402ZM175 422Q225 422 258 453T292 561Q292
639 258 670T175 701Q121 701 86 661T50 561Q50 522 66 491T111 441T175 422Z" />
<glyph unicode="&#xab;" glyph-name="guillemotleft" horiz-adv-x="481" d="M390 73L221 268V274L390 457L409 444L247 271L409 86L390 73ZM463 73L294 268V274L463 457L482 444L320 271L482 86L463 73Z" />
<glyph unicode="&#xac;" glyph-name="logicalnot" horiz-adv-x="670" d="M583 117V367H65V389H605V117H583Z" />
<glyph unicode="&#xad;" glyph-name="uni00AD" horiz-adv-x="394" d="M60 263V285H334V263H60Z" />
<glyph unicode="&#xae;" glyph-name="registered" horiz-adv-x="525" d="M259 257Q196 257 144 287T60 369T28 483Q28 546 59 597T143 678T259 709Q323 709 375 679T459 597T490 483Q490 420 459 369T376 288T259 257ZM259 277Q317 277 365 304T441 379T470 483Q470
541 442 587T365 661T259 689Q201 689 153 662T77 588T48 483Q48 425 77 379T154 305T259 277ZM191 367V606H268Q303 606 324 586T345 532Q345 509 332 492T296 468L337 367H314L276 464Q272 464 268 464H211V367H191ZM265 586H211V484H263Q290 484 307 498T324
533Q324 586 265 586Z" />
<glyph unicode="&#xaf;" glyph-name="overscore" horiz-adv-x="424" d="M115 663V685H385V663H115Z" />
<glyph unicode="&#xb0;" glyph-name="degree" horiz-adv-x="532" d="M266 399Q222 399 187 419T131 475T110 553Q110 597 130 632T186 688T266 709Q311 709 346 689T401 633T422 554Q422 511 402 476T346 420T266 399ZM266 421Q303 421 333 439T382 488T400 554Q400
590 382 620T333 669T266 687Q229 687 199 669T150 621T132 553Q132 517 150 487T198 439T266 421Z" />
<glyph unicode="&#xb1;" glyph-name="plusminus" horiz-adv-x="606" d="M291 183V346H65V368H291V525H314V368H541V346H314V183H291ZM65 68V90H541V68H65Z" />
<glyph unicode="&#xb2;" glyph-name="uni00B2" horiz-adv-x="346" d="M75 418L72 444L207 597Q233 626 246 649T260 694Q260 723 239 740T188 757Q159 757 136 742T93 693L74 706Q92 738 121 758T188 779Q227 779 254 756T282 695Q282 665 266 638T217 574L97
440H295V418H75Z" />
<glyph unicode="&#xb3;" glyph-name="uni00B3" horiz-adv-x="342" d="M174 412Q146 412 117 421T66 446L78 464Q109 445 130 440T172 434Q217 434 246 459T275 529Q275 568 247 592T181 616Q157 616 141 611T97 591L92 606L244 751H80V772H266L270 748L147 631Q157
635 165 636T183 637Q230 637 263 607T297 530Q297 479 262 446T174 412Z" />
<glyph unicode="&#xb4;" glyph-name="acute" horiz-adv-x="500" d="M183 611L173 626L313 736L327 715L183 611Z" />
<glyph unicode="&#xb5;" glyph-name="uni00B5" horiz-adv-x="549" d="M73 -157V525H95V174Q95 99 136 56T263 12Q315 12 357 37T423 104T447 192V525H469V0H449L445 99Q413 39 365 15T263 -10Q207 -10 163 10T95 83V-157H73Z" />
<glyph unicode="&#xb6;" glyph-name="paragraph" horiz-adv-x="570" d="M297 0V279H243Q189 279 147 306T80 379T55 486Q55 551 83 599T161 673T280 700H459V0H437V678H319V0H297Z" />
<glyph unicode="&#xb7;" glyph-name="middot" horiz-adv-x="228" d="M114 259Q84 259 84 290Q84 321 114 321Q144 321 144 290Q144 277 136 268T114 259Z" />
<glyph unicode="&#xb8;" glyph-name="cedilla" horiz-adv-x="500" d="M179 -227L175 -210Q205 -205 235 -199T285 -179T305 -138Q305 -116 289 -106T250 -92T205 -88L192 -78L246 0H268L217 -71Q276 -73 300 -91T325 -139Q325 -174 302 -191T246 -214T179 -227Z" />
<glyph unicode="&#xb9;" glyph-name="uni00B9" horiz-adv-x="281" d="M160 432V748L66 695L56 712L168 777H182V432H160Z" />
<glyph unicode="&#xba;" glyph-name="ordmasculine" horiz-adv-x="360" d="M180 392Q141 392 109 414T59 475T40 561Q40 609 58 647T109 708T180 731Q220 731 251 709T301 648T320 561Q320 513 302 475T252 415T180 392ZM179 412Q214 412 241 432T284 485T300
561Q300 604 284 638T241 691T179 711Q145 711 118 692T76 638T60 561Q60 519 75 486T118 432T179 412Z" />
<glyph unicode="&#xbb;" glyph-name="guillemotright" horiz-adv-x="514" d="M307 64L288 77L450 250L288 435L307 448L476 253V247L307 64ZM91 64L72 77L234 250L72 435L91 448L260 253V247L91 64Z" />
<glyph unicode="&#xbc;" glyph-name="onequarter" horiz-adv-x="760" d="M187 359V675L93 622L83 639L195 704H209V359H187ZM137 0L605 700H632L164 0H137ZM657 0H635V85H439L436 99L635 356H657V107H718V85H657V0ZM472 107H635V319L472 107Z" />
<glyph unicode="&#xbd;" glyph-name="onehalf" horiz-adv-x="803" d="M187 359V675L93 622L83 639L195 704H209V359H187ZM136 0L604 700H631L163 0H136ZM532 0L529 26L664 179Q690 208 703 231T717 276Q717 305 696 322T645 339Q616 339 593 324T550 275L531 288Q549
320 578 340T645 361Q684 361 711 338T739 277Q739 247 723 220T674 156L554 22H752V0H532Z" />
<glyph unicode="&#xbe;" glyph-name="threequarters" horiz-adv-x="782" d="M128 342Q100 342 71 351T20 376L32 394Q63 375 84 370T126 364Q171 364 200 389T229 459Q229 498 201 522T135 546Q111 546 95 541T51 521L46 536L198 681H34V702H220L224 678L101 561Q111
565 119 566T137 567Q184 567 217 537T251 460Q251 409 216 376T128 342ZM143 0L611 700H638L170 0H143ZM679 0H657V85H461L458 99L657 356H679V107H740V85H679V0ZM494 107H657V319L494 107Z" />
<glyph unicode="&#xbf;" glyph-name="questiondown" horiz-adv-x="438" d="M212 388L214 219Q121 197 72 142T23 12Q23 -31 44 -69T104 -130T197 -154Q255 -154 304 -122T380 -13L398 -25Q375 -98 321 -137T198 -176Q139 -176 95 -151T25 -84T0 12Q0 91 51 151T190
234L192 388H212ZM224 514Q224 501 217 493T198 484Q172 484 172 514Q172 526 178 535T198 544Q224 544 224 514Z" />
<glyph unicode="&#xc0;" glyph-name="Agrave" horiz-adv-x="611" d="M20 0L289 700H322L591 0H565L477 230H133L46 0H20ZM237 503L142 253H468L372 504Q369 512 358 540T333 606T304 680Q297 660 287 634T267 581T248 533T237 503ZM358 764L204 850L217 872L367
780L358 764Z" />
<glyph unicode="&#xc1;" glyph-name="Aacute" horiz-adv-x="611" d="M20 0L289 700H322L591 0H565L477 230H133L46 0H20ZM237 503L142 253H468L372 504Q369 512 358 540T333 606T304 680Q297 660 287 634T267 581T248 533T237 503ZM253 764L244 780L394 872L407
850L253 764Z" />
<glyph unicode="&#xc2;" glyph-name="Acircumflex" horiz-adv-x="611" d="M20 0L289 700H322L591 0H565L477 230H133L46 0H20ZM237 503L142 253H468L372 504Q369 512 358 540T333 606T304 680Q297 660 287 634T267 581T248 533T237 503ZM197 770L185 783L292 865H320L427
783L415 770L306 847L197 770Z" />
<glyph unicode="&#xc3;" glyph-name="Atilde" horiz-adv-x="611" d="M20 0L289 700H322L591 0H565L477 230H133L46 0H20ZM237 503L142 253H468L372 504Q369 512 358 540T333 606T304 680Q297 660 287 634T267 581T248 533T237 503ZM366 784Q354 784 338 788T284
812Q278 815 263 822T232 830Q218 830 207 819T195 785H173Q173 816 190 834T230 852Q254 852 275 842T314 823Q338 812 347 809T364 806Q383 806 399 816T416 851H438Q438 819 417 802T366 784Z" />
<glyph unicode="&#xc4;" glyph-name="Adieresis" horiz-adv-x="611" d="M20 0L289 700H322L591 0H565L477 230H133L46 0H20ZM237 503L142 253H468L372 504Q369 512 358 540T333 606T304 680Q297 660 287 634T267 581T248 533T237 503ZM381 791Q369 791 362 798T354
818Q354 829 361 837T381 845Q408 845 408 818Q408 791 381 791ZM231 791Q219 791 212 798T204 818Q204 829 211 837T231 845Q258 845 258 818Q258 791 231 791Z" />
<glyph unicode="&#xc5;" glyph-name="Aring" horiz-adv-x="611" d="M20 0L289 700H322L591 0H565L477 230H133L46 0H20ZM237 503L142 253H468L372 504Q369 512 358 540T333 606T304 680Q297 660 287 634T267 581T248 533T237 503ZM306 689Q269 689 242 715T214
777Q214 814 241 840T306 867Q344 867 371 841T398 777Q398 742 371 716T306 689ZM306 709Q336 709 356 729T377 777Q377 809 357 828T306 847Q275 847 255 828T235 777Q235 750 256 730T306 709Z" />
<glyph unicode="&#xc6;" glyph-name="AE" horiz-adv-x="926" d="M0 0L476 700H861V678H508V372H804V350H508V22H861V0H486V216H174L28 0H0ZM486 238V678L189 238H486Z" />
<glyph unicode="&#xc7;" glyph-name="Ccedilla" horiz-adv-x="690" d="M399 -10Q298 -10 221 35T99 161T55 346Q55 452 99 534T220 663T399 710Q478 710 543 679T655 594L637 578Q593 628 533 658T399 688Q306 688 234 644T120 522T78 346Q78 249 119 174T233
55T399 12Q467 12 524 35T624 99L639 81Q594 38 533 14T399 -10ZM309 -227L305 -210Q335 -205 365 -199T415 -179T435 -138Q435 -116 419 -106T380 -92T335 -88L322 -78L376 0H398L347 -71Q406 -73 430 -91T455 -139Q455 -174 432 -191T376 -214T309 -227Z" />
<glyph unicode="&#xc8;" glyph-name="Egrave" horiz-adv-x="566" d="M110 0V700H501V678H132V373H443V351H132V22H495V0H110ZM365 764L211 850L224 872L374 780L365 764Z" />
<glyph unicode="&#xc9;" glyph-name="Eacute" horiz-adv-x="566" d="M110 0V700H501V678H132V373H443V351H132V22H495V0H110ZM260 764L251 780L401 872L414 850L260 764Z" />
<glyph unicode="&#xca;" glyph-name="Ecircumflex" horiz-adv-x="566" d="M110 0V700H501V678H132V373H443V351H132V22H495V0H110ZM204 770L192 783L299 865H327L434 783L422 770L313 847L204 770Z" />
<glyph unicode="&#xcb;" glyph-name="Edieresis" horiz-adv-x="566" d="M110 0V700H501V678H132V373H443V351H132V22H495V0H110ZM388 791Q376 791 369 798T361 818Q361 829 368 837T388 845Q415 845 415 818Q415 791 388 791ZM238 791Q226 791 219 798T211 818Q211
829 218 837T238 845Q265 845 265 818Q265 791 238 791Z" />
<glyph unicode="&#xcc;" glyph-name="Igrave" horiz-adv-x="386" d="M50 0V22H182V678H50V700H336V678H204V22H336V0H50ZM501 764L347 850L360 872L510 780L501 764Z" />
<glyph unicode="&#xcd;" glyph-name="Iacute" horiz-adv-x="386" d="M50 0V22H182V678H50V700H336V678H204V22H336V0H50ZM396 764L387 780L537 872L550 850L396 764Z" />
<glyph unicode="&#xce;" glyph-name="Icircumflex" horiz-adv-x="386" d="M50 0V22H182V678H50V700H336V678H204V22H336V0H50ZM340 770L328 783L435 865H463L570 783L558 770L449 847L340 770Z" />
<glyph unicode="&#xcf;" glyph-name="Idieresis" horiz-adv-x="386" d="M50 0V22H182V678H50V700H336V678H204V22H336V0H50ZM524 791Q512 791 505 798T497 818Q497 829 504 837T524 845Q551 845 551 818Q551 791 524 791ZM374 791Q362 791 355 798T347 818Q347
829 354 837T374 845Q401 845 401 818Q401 791 374 791Z" />
<glyph unicode="&#xd0;" glyph-name="Eth" horiz-adv-x="737" d="M110 0V339H24V360H110V700H357Q421 700 479 674T583 601T655 490T682 350Q682 275 656 211T584 100T480 26T357 0H110ZM292 339H132V22H352Q412 22 467 47T566 116T634 221T659 350Q659 420 634
480T566 584T468 653T352 678H132V360H292V339Z" />
<glyph unicode="&#xd1;" glyph-name="Ntilde" horiz-adv-x="731" d="M110 0V700H132L601 37Q600 51 600 72T599 132T598 241V700H620V0H600L131 664Q131 641 131 607T132 537T132 470V0H110ZM426 784Q414 784 398 788T344 812Q338 815 323 822T292 830Q278 830
267 819T255 785H233Q233 816 250 834T290 852Q314 852 335 842T374 823Q398 812 407 809T424 806Q443 806 459 816T476 851H498Q498 819 477 802T426 784Z" />
<glyph unicode="&#xd2;" glyph-name="Ograve" horiz-adv-x="798" d="M399 -10Q298 -10 221 36T99 163T55 349Q55 454 99 535T220 663T399 710Q500 710 577 664T699 537T743 349Q743 244 699 163T578 36T399 -10ZM399 12Q492 12 564 55T678 175T720 349Q720 447
679 523T565 644T399 688Q306 688 234 644T120 524T78 349Q78 251 119 175T233 56T399 12ZM451 764L297 850L310 872L460 780L451 764Z" />
<glyph unicode="&#xd3;" glyph-name="Oacute" horiz-adv-x="798" d="M399 -10Q298 -10 221 36T99 163T55 349Q55 454 99 535T220 663T399 710Q500 710 577 664T699 537T743 349Q743 244 699 163T578 36T399 -10ZM399 12Q492 12 564 55T678 175T720 349Q720 447
679 523T565 644T399 688Q306 688 234 644T120 524T78 349Q78 251 119 175T233 56T399 12ZM346 764L337 780L487 872L500 850L346 764Z" />
<glyph unicode="&#xd4;" glyph-name="Ocircumflex" horiz-adv-x="798" d="M399 -10Q298 -10 221 36T99 163T55 349Q55 454 99 535T220 663T399 710Q500 710 577 664T699 537T743 349Q743 244 699 163T578 36T399 -10ZM399 12Q492 12 564 55T678 175T720 349Q720
447 679 523T565 644T399 688Q306 688 234 644T120 524T78 349Q78 251 119 175T233 56T399 12ZM290 770L278 783L385 865H413L520 783L508 770L399 847L290 770Z" />
<glyph unicode="&#xd5;" glyph-name="Otilde" horiz-adv-x="798" d="M399 -10Q298 -10 221 36T99 163T55 349Q55 454 99 535T220 663T399 710Q500 710 577 664T699 537T743 349Q743 244 699 163T578 36T399 -10ZM399 12Q492 12 564 55T678 175T720 349Q720 447
679 523T565 644T399 688Q306 688 234 644T120 524T78 349Q78 251 119 175T233 56T399 12ZM459 784Q447 784 431 788T377 812Q371 815 356 822T325 830Q311 830 300 819T288 785H266Q266 816 283 834T323 852Q347 852 368 842T407 823Q431 812 440 809T457 806Q476
806 492 816T509 851H531Q531 819 510 802T459 784Z" />
<glyph unicode="&#xd6;" glyph-name="Odieresis" horiz-adv-x="798" d="M399 -10Q298 -10 221 36T99 163T55 349Q55 454 99 535T220 663T399 710Q500 710 577 664T699 537T743 349Q743 244 699 163T578 36T399 -10ZM399 12Q492 12 564 55T678 175T720 349Q720
447 679 523T565 644T399 688Q306 688 234 644T120 524T78 349Q78 251 119 175T233 56T399 12ZM474 791Q462 791 455 798T447 818Q447 829 454 837T474 845Q501 845 501 818Q501 791 474 791ZM324 791Q312 791 305 798T297 818Q297 829 304 837T324 845Q351 845
351 818Q351 791 324 791Z" />
<glyph unicode="&#xd7;" glyph-name="multiply" horiz-adv-x="444" d="M57 108L40 123L206 288L49 445L66 460L222 304L378 460L395 445L238 288L404 123L387 108L222 273L57 108Z" />
<glyph unicode="&#xd8;" glyph-name="Oslash" horiz-adv-x="798" d="M114 -18L95 -4L162 79Q111 127 83 196T54 349Q54 454 98 535T219 663T398 710Q462 710 517 691T617 636L684 718L703 704L634 620Q685 572 713 503T742 349Q742 244 698 163T577 36T398 -10Q334
-10 279 9T180 63L114 -18ZM77 349Q77 271 103 207T178 97L602 617Q561 651 510 669T398 688Q305 688 233 644T119 524T77 349ZM398 12Q491 12 563 55T677 175T719 349Q719 426 693 491T619 601L195 82Q236 48 287 30T398 12Z" />
<glyph unicode="&#xd9;" glyph-name="Ugrave" horiz-adv-x="744" d="M368 -6Q293 -6 235 29T143 127T110 269V700H132V278Q132 201 162 142T245 50T368 16Q440 16 495 49T581 142T612 278V700H634V269Q634 189 600 127T505 30T368 -6ZM424 764L270 850L283 872L433
780L424 764Z" />
<glyph unicode="&#xda;" glyph-name="Uacute" horiz-adv-x="744" d="M368 -6Q293 -6 235 29T143 127T110 269V700H132V278Q132 201 162 142T245 50T368 16Q440 16 495 49T581 142T612 278V700H634V269Q634 189 600 127T505 30T368 -6ZM319 764L310 780L460 872L473
850L319 764Z" />
<glyph unicode="&#xdb;" glyph-name="Ucircumflex" horiz-adv-x="744" d="M368 -6Q293 -6 235 29T143 127T110 269V700H132V278Q132 201 162 142T245 50T368 16Q440 16 495 49T581 142T612 278V700H634V269Q634 189 600 127T505 30T368 -6ZM263 770L251 783L358
865H386L493 783L481 770L372 847L263 770Z" />
<glyph unicode="&#xdc;" glyph-name="Udieresis" horiz-adv-x="744" d="M368 -6Q293 -6 235 29T143 127T110 269V700H132V278Q132 201 162 142T245 50T368 16Q440 16 495 49T581 142T612 278V700H634V269Q634 189 600 127T505 30T368 -6ZM447 791Q435 791 428
798T420 818Q420 829 427 837T447 845Q474 845 474 818Q474 791 447 791ZM297 791Q285 791 278 798T270 818Q270 829 277 837T297 845Q324 845 324 818Q324 791 297 791Z" />
<glyph unicode="&#xdd;" glyph-name="Yacute" horiz-adv-x="592" d="M289 0V312L20 700H46L299 335L546 700H572L311 313V0H289ZM243 764L234 780L384 872L397 850L243 764Z" />
<glyph unicode="&#xde;" glyph-name="Thorn" horiz-adv-x="566" d="M110 0V700H132V543H329Q382 543 423 520T487 456T511 358Q511 306 488 264T423 196T328 171H132V0H110ZM132 193H327Q378 193 414 216T470 277T489 358Q489 430 448 475T327 521H132V193Z" />
<glyph unicode="&#xdf;" glyph-name="germandbls" horiz-adv-x="606" d="M354 -10Q293 -9 253 15T184 88L204 100Q233 50 270 31T354 12Q434 12 481 51T529 188Q529 264 471 322T300 414V437Q371 441 413 480T456 577Q456 631 417 668T311 706Q228 706 183 654T138
493V0H116V416H30V438H116V494Q116 611 167 669T306 728Q389 728 434 684T479 577Q479 515 438 473T337 422Q418 393 465 355T532 274T552 186Q552 -8 354 -10Z" />
<glyph unicode="&#xe0;" glyph-name="agrave" horiz-adv-x="602" d="M294 -10Q221 -10 164 24T73 119T40 258Q40 337 74 398T164 495T290 530Q342 530 387 511T464 456T510 374L512 525H532V0H510V144Q485 75 427 33T294 -10ZM294 12Q355 12 404 43T482 131T511
260Q511 332 483 388T405 476T292 508Q225 508 173 476T92 388T63 258Q63 187 92 132T173 44T294 12ZM338 611L194 715L208 736L348 626L338 611Z" />
<glyph unicode="&#xe1;" glyph-name="aacute" horiz-adv-x="602" d="M294 -10Q221 -10 164 24T73 119T40 258Q40 337 74 398T164 495T290 530Q342 530 387 511T464 456T510 374L512 525H532V0H510V144Q485 75 427 33T294 -10ZM294 12Q355 12 404 43T482 131T511
260Q511 332 483 388T405 476T292 508Q225 508 173 476T92 388T63 258Q63 187 92 132T173 44T294 12ZM244 611L234 626L374 736L388 715L244 611Z" />
<glyph unicode="&#xe2;" glyph-name="acircumflex" horiz-adv-x="602" d="M294 -10Q221 -10 164 24T73 119T40 258Q40 337 74 398T164 495T290 530Q342 530 387 511T464 456T510 374L512 525H532V0H510V144Q485 75 427 33T294 -10ZM294 12Q355 12 404 43T482 131T511
260Q511 332 483 388T405 476T292 508Q225 508 173 476T92 388T63 258Q63 187 92 132T173 44T294 12ZM182 621L170 634L277 726H305L412 634L400 621L291 707L182 621Z" />
<glyph unicode="&#xe3;" glyph-name="atilde" horiz-adv-x="602" d="M294 -10Q221 -10 164 24T73 119T40 258Q40 337 74 398T164 495T290 530Q342 530 387 511T464 456T510 374L512 525H532V0H510V144Q485 75 427 33T294 -10ZM294 12Q355 12 404 43T482 131T511
260Q511 332 483 388T405 476T292 508Q225 508 173 476T92 388T63 258Q63 187 92 132T173 44T294 12ZM358 633Q335 633 316 645T280 669Q256 686 246 690T227 694Q212 694 199 680T185 639L165 642Q165 672 184 693T227 714Q248 714 267 703T304 678Q311 673 327
663T357 653Q372 653 384 665T397 708L417 705Q417 672 399 653T358 633Z" />
<glyph unicode="&#xe4;" glyph-name="adieresis" horiz-adv-x="602" d="M294 -10Q221 -10 164 24T73 119T40 258Q40 337 74 398T164 495T290 530Q342 530 387 511T464 456T510 374L512 525H532V0H510V144Q485 75 427 33T294 -10ZM294 12Q355 12 404 43T482 131T511
260Q511 332 483 388T405 476T292 508Q225 508 173 476T92 388T63 258Q63 187 92 132T173 44T294 12ZM366 663Q352 663 345 671T338 692Q338 704 345 712T366 721Q379 721 386 713T394 692Q394 679 387 671T366 663ZM216 663Q202 663 195 671T188 692Q188 704 195
712T216 721Q229 721 236 713T244 692Q244 679 237 671T216 663Z" />
<glyph unicode="&#xe5;" glyph-name="aring" horiz-adv-x="602" d="M294 -10Q221 -10 164 24T73 119T40 258Q40 337 74 398T164 495T290 530Q342 530 387 511T464 456T510 374L512 525H532V0H510V144Q485 75 427 33T294 -10ZM294 12Q355 12 404 43T482 131T511
260Q511 332 483 388T405 476T292 508Q225 508 173 476T92 388T63 258Q63 187 92 132T173 44T294 12ZM291 594Q254 594 227 620T199 682Q199 719 226 745T291 772Q329 772 356 746T383 682Q383 647 356 621T291 594ZM291 614Q321 614 341 634T362 682Q362 714 342
733T291 752Q260 752 240 733T220 682Q220 655 241 635T291 614Z" />
<glyph unicode="&#xe6;" glyph-name="ae" horiz-adv-x="947" d="M218 -10Q167 -10 127 10T64 65T40 149Q40 215 92 251T246 287H442V367Q442 431 398 469T271 508Q214 508 165 483T79 412L63 428Q147 530 272 530Q359 530 409 490T464 376Q491 444 550 486T687
529Q753 529 804 500T883 418T912 291L910 265H464V263Q465 190 495 133T577 44T699 12Q751 12 795 31T874 83L886 65Q849 31 803 11T699 -10Q618 -10 558 30T467 137Q430 71 365 31T218 -10ZM690 507Q626 507 577 479T499 402T465 287H890V295Q890 358 863 406T791
480T690 507ZM219 12Q297 12 361 53T458 162Q442 209 442 263Q442 265 442 265H240Q155 265 109 235T62 149Q62 108 83 78T140 30T219 12Z" />
<glyph unicode="&#xe7;" glyph-name="ccedilla" horiz-adv-x="526" d="M306 -10Q228 -10 168 25T74 122T40 263Q40 341 74 401T168 496T306 530Q369 530 420 507T506 443L490 426Q457 464 410 486T306 508Q235 508 181 477T95 390T62 263Q63 190 94 133T180 44T306
12Q362 12 408 33T488 93L504 77Q468 37 418 14T306 -10ZM227 -227L223 -210Q253 -205 283 -199T333 -179T353 -138Q353 -116 337 -106T298 -92T253 -88L240 -78L294 0H316L265 -71Q324 -73 348 -91T373 -139Q373 -174 350 -191T294 -214T227 -227Z" />
<glyph unicode="&#xe8;" glyph-name="egrave" horiz-adv-x="545" d="M297 -10Q221 -10 163 25T73 122T40 263Q40 341 71 401T157 496T285 530Q351 530 403 501T484 419T510 291L509 265H62V263Q63 190 93 133T175 44T297 12Q349 12 393 31T472 83L484 65Q447 31
401 11T297 -10ZM288 508Q224 508 175 480T97 402T63 287H487L488 295Q488 359 461 407T389 481T288 508ZM332 611L188 715L202 736L342 626L332 611Z" />
<glyph unicode="&#xe9;" glyph-name="eacute" horiz-adv-x="545" d="M297 -10Q221 -10 163 25T73 122T40 263Q40 341 71 401T157 496T285 530Q351 530 403 501T484 419T510 291L509 265H62V263Q63 190 93 133T175 44T297 12Q349 12 393 31T472 83L484 65Q447 31
401 11T297 -10ZM288 508Q224 508 175 480T97 402T63 287H487L488 295Q488 359 461 407T389 481T288 508ZM238 611L228 626L368 736L382 715L238 611Z" />
<glyph unicode="&#xea;" glyph-name="ecircumflex" horiz-adv-x="545" d="M297 -10Q221 -10 163 25T73 122T40 263Q40 341 71 401T157 496T285 530Q351 530 403 501T484 419T510 291L509 265H62V263Q63 190 93 133T175 44T297 12Q349 12 393 31T472 83L484 65Q447
31 401 11T297 -10ZM288 508Q224 508 175 480T97 402T63 287H487L488 295Q488 359 461 407T389 481T288 508ZM176 621L164 634L271 726H299L406 634L394 621L285 707L176 621Z" />
<glyph unicode="&#xeb;" glyph-name="edieresis" horiz-adv-x="545" d="M297 -10Q221 -10 163 25T73 122T40 263Q40 341 71 401T157 496T285 530Q351 530 403 501T484 419T510 291L509 265H62V263Q63 190 93 133T175 44T297 12Q349 12 393 31T472 83L484 65Q447
31 401 11T297 -10ZM288 508Q224 508 175 480T97 402T63 287H487L488 295Q488 359 461 407T389 481T288 508ZM360 663Q346 663 339 671T332 692Q332 704 339 712T360 721Q373 721 380 713T388 692Q388 679 381 671T360 663ZM210 663Q196 663 189 671T182 692Q182
704 189 712T210 721Q223 721 230 713T238 692Q238 679 231 671T210 663Z" />
<glyph unicode="&#xec;" glyph-name="igrave" horiz-adv-x="162" d="M70 0V525H92V0H70ZM128 611L-16 715L-2 736L138 626L128 611Z" />
<glyph unicode="&#xed;" glyph-name="iacute" horiz-adv-x="162" d="M70 0V525H92V0H70ZM34 611L24 626L164 736L178 715L34 611Z" />
<glyph unicode="&#xee;" glyph-name="icircumflex" horiz-adv-x="162" d="M70 0V525H92V0H70ZM-28 621L-40 634L67 726H95L202 634L190 621L81 707L-28 621Z" />
<glyph unicode="&#xef;" glyph-name="idieresis" horiz-adv-x="162" d="M70 0V525H92V0H70ZM156 663Q142 663 135 671T128 692Q128 704 135 712T156 721Q169 721 176 713T184 692Q184 679 177 671T156 663ZM6 663Q-8 663 -15 671T-22 692Q-22 704 -15 712T6 721Q19
721 26 713T34 692Q34 679 27 671T6 663Z" />
<glyph unicode="&#xf0;" glyph-name="eth" horiz-adv-x="576" d="M288 -10Q215 -10 159 24T72 120T40 263Q40 342 72 401T162 494T292 527Q338 527 379 510T452 465T499 407Q491 470 458 528T374 631L164 574L160 596L354 648Q320 675 281 693T201 718L211 739Q313
717 385 656L487 684L493 663L403 639Q467 578 501 483T536 259Q536 182 504 121T416 25T288 -10ZM288 12Q354 12 405 44T484 133T513 263Q513 334 485 388T405 474T288 505Q222 505 172 474T92 389T63 263Q63 190 92 133T171 44T288 12Z" />
<glyph unicode="&#xf1;" glyph-name="ntilde" horiz-adv-x="541" d="M70 0V525H90L92 422Q115 467 169 498T288 530Q376 530 424 482T473 328V0H451V328Q451 423 408 465T286 508Q244 508 209 494T147 458T107 414T92 376V0H70ZM343 633Q320 633 301 645T265 669Q241
686 231 690T212 694Q197 694 184 680T170 639L150 642Q150 672 169 693T212 714Q233 714 252 703T289 678Q296 673 312 663T342 653Q357 653 369 665T382 708L402 705Q402 672 384 653T343 633Z" />
<glyph unicode="&#xf2;" glyph-name="ograve" horiz-adv-x="615" d="M308 -10Q229 -10 169 25T74 122T40 263Q40 341 74 401T168 496T308 530Q387 530 447 496T541 402T575 263Q575 184 542 122T448 25T308 -10ZM308 12Q379 12 434 44T521 133T553 263Q553 334
521 389T434 476T308 508Q237 508 182 476T94 389T62 263Q62 190 94 133T181 44T308 12ZM355 611L211 715L225 736L365 626L355 611Z" />
<glyph unicode="&#xf3;" glyph-name="oacute" horiz-adv-x="615" d="M308 -10Q229 -10 169 25T74 122T40 263Q40 341 74 401T168 496T308 530Q387 530 447 496T541 402T575 263Q575 184 542 122T448 25T308 -10ZM308 12Q379 12 434 44T521 133T553 263Q553 334
521 389T434 476T308 508Q237 508 182 476T94 389T62 263Q62 190 94 133T181 44T308 12ZM261 611L251 626L391 736L405 715L261 611Z" />
<glyph unicode="&#xf4;" glyph-name="ocircumflex" horiz-adv-x="615" d="M308 -10Q229 -10 169 25T74 122T40 263Q40 341 74 401T168 496T308 530Q387 530 447 496T541 402T575 263Q575 184 542 122T448 25T308 -10ZM308 12Q379 12 434 44T521 133T553 263Q553
334 521 389T434 476T308 508Q237 508 182 476T94 389T62 263Q62 190 94 133T181 44T308 12ZM199 621L187 634L294 726H322L429 634L417 621L308 707L199 621Z" />
<glyph unicode="&#xf5;" glyph-name="otilde" horiz-adv-x="615" d="M308 -10Q229 -10 169 25T74 122T40 263Q40 341 74 401T168 496T308 530Q387 530 447 496T541 402T575 263Q575 184 542 122T448 25T308 -10ZM308 12Q379 12 434 44T521 133T553 263Q553 334
521 389T434 476T308 508Q237 508 182 476T94 389T62 263Q62 190 94 133T181 44T308 12ZM375 633Q352 633 333 645T297 669Q273 686 263 690T244 694Q229 694 216 680T202 639L182 642Q182 672 201 693T244 714Q265 714 284 703T321 678Q328 673 344 663T374 653Q389
653 401 665T414 708L434 705Q434 672 416 653T375 633Z" />
<glyph unicode="&#xf6;" glyph-name="odieresis" horiz-adv-x="615" d="M308 -10Q229 -10 169 25T74 122T40 263Q40 341 74 401T168 496T308 530Q387 530 447 496T541 402T575 263Q575 184 542 122T448 25T308 -10ZM308 12Q379 12 434 44T521 133T553 263Q553
334 521 389T434 476T308 508Q237 508 182 476T94 389T62 263Q62 190 94 133T181 44T308 12ZM383 663Q369 663 362 671T355 692Q355 704 362 712T383 721Q396 721 403 713T411 692Q411 679 404 671T383 663ZM233 663Q219 663 212 671T205 692Q205 704 212 712T233
721Q246 721 253 713T261 692Q261 679 254 671T233 663Z" />
<glyph unicode="&#xf7;" glyph-name="divide" horiz-adv-x="588" d="M293 417Q280 417 273 425T265 446Q265 456 272 465T293 475Q306 475 313 466T321 446Q321 435 314 426T293 417ZM56 286V308H530V286H56ZM293 119Q280 119 273 127T265 148Q265 158 272 167T293
177Q306 177 313 168T321 148Q321 137 314 128T293 119Z" />
<glyph unicode="&#xf8;" glyph-name="oslash" horiz-adv-x="615" d="M81 -19L65 -5L121 61Q83 98 62 149T40 263Q40 341 74 401T168 496T308 530Q357 530 399 517T475 478L526 538L543 523L492 463Q531 428 553 377T575 263Q575 184 542 122T448 25T308 -10Q258
-10 215 5T137 47L81 -19ZM62 263Q62 206 81 159T136 78L459 459Q429 483 391 495T308 508Q237 508 182 476T94 389T62 263ZM308 12Q379 12 434 44T521 133T553 263Q553 319 533 365T477 445L152 64Q183 39 222 26T308 12Z" />
<glyph unicode="&#xf9;" glyph-name="ugrave" horiz-adv-x="538" d="M263 -10Q172 -10 123 39T73 197V525H95V197Q95 99 139 56T265 12Q301 12 333 27T391 64T430 110T444 149V525H466V0H446L444 102Q422 55 373 23T263 -10ZM572 611L428 715L442 736L582 626L572 611Z" />
<glyph unicode="&#xfa;" glyph-name="uacute" horiz-adv-x="538" d="M263 -10Q172 -10 123 39T73 197V525H95V197Q95 99 139 56T265 12Q301 12 333 27T391 64T430 110T444 149V525H466V0H446L444 102Q422 55 373 23T263 -10ZM222 611L212 626L352 736L366 715L222 611Z" />
<glyph unicode="&#xfb;" glyph-name="ucircumflex" horiz-adv-x="538" d="M263 -10Q172 -10 123 39T73 197V525H95V197Q95 99 139 56T265 12Q301 12 333 27T391 64T430 110T444 149V525H466V0H446L444 102Q422 55 373 23T263 -10ZM160 621L148 634L255 726H283L390
634L378 621L269 707L160 621Z" />
<glyph unicode="&#xfc;" glyph-name="udieresis" horiz-adv-x="538" d="M263 -10Q172 -10 123 39T73 197V525H95V197Q95 99 139 56T265 12Q301 12 333 27T391 64T430 110T444 149V525H466V0H446L444 102Q422 55 373 23T263 -10ZM344 663Q330 663 323 671T316 692Q316
704 323 712T344 721Q357 721 364 713T372 692Q372 679 365 671T344 663ZM194 663Q180 663 173 671T166 692Q166 704 173 712T194 721Q207 721 214 713T222 692Q222 679 215 671T194 663Z" />
<glyph unicode="&#xfd;" glyph-name="yacute" horiz-adv-x="501" d="M157 -230L251 6L15 525H40L252 57Q260 40 263 33Q266 40 269 47T275 62L461 525H486L269 -13L182 -230H157ZM204 611L194 626L334 736L348 715L204 611Z" />
<glyph unicode="&#xfe;" glyph-name="thorn" horiz-adv-x="612" d="M70 -230V740H92V375Q120 444 180 487T321 530Q390 530 447 495T538 399T572 259Q572 181 539 121T449 25T320 -10Q240 -10 180 31T92 141V-230H70ZM316 12Q385 12 437 44T520 132T550 259Q550
331 520 387T436 476T316 508Q251 508 200 476T119 388T89 260Q89 187 119 131T200 44T316 12Z" />
<glyph unicode="&#xff;" glyph-name="ydieresis" horiz-adv-x="501" d="M157 -230L251 6L15 525H40L252 57Q260 40 263 33Q266 40 269 47T275 62L461 525H486L269 -13L182 -230H157ZM326 663Q312 663 305 671T298 692Q298 704 305 712T326 721Q339 721 346 713T354
692Q354 679 347 671T326 663ZM176 663Q162 663 155 671T148 692Q148 704 155 712T176 721Q189 721 196 713T204 692Q204 679 197 671T176 663Z" />
<glyph unicode="&#x2013;" glyph-name="endash" horiz-adv-x="514" d="M53 283V305H461V283H53Z" />
<glyph unicode="&#x2014;" glyph-name="emdash" horiz-adv-x="868" d="M53 284V306H815V284H53Z" />
<glyph unicode="&#x2018;" glyph-name="quoteleft" horiz-adv-x="236" d="M126 572Q80 572 80 633Q80 661 91 686T144 748L153 736Q134 715 121 695T108 662Q108 646 115 640T137 629Q156 622 156 600Q156 588 149 580T126 572Z" />
<glyph unicode="&#x2019;" glyph-name="quoteright" horiz-adv-x="236" d="M92 572L83 584Q102 605 115 625T128 658Q128 674 121 680T99 691Q80 698 80 720Q80 732 87 740T110 748Q156 748 156 687Q156 659 145 634T92 572Z" />
<glyph unicode="&#x201a;" glyph-name="quotesinglbase" horiz-adv-x="236" d="M92 -122L83 -110Q102 -89 115 -69T128 -36Q128 -20 121 -14T99 -3Q80 4 80 26Q80 38 87 46T110 54Q156 54 156 -7Q156 -41 142 -65T92 -122Z" />
<glyph unicode="&#x201c;" glyph-name="quotedblleft" horiz-adv-x="343" d="M126 823Q80 823 80 884Q80 912 91 937T144 999L153 987Q134 966 121 946T108 913Q108 897 115 891T137 880Q156 873 156 851Q156 839 149 831T126 823ZM233 823Q187 823 187 884Q187
912 198 937T251 999L260 987Q241 966 228 946T215 913Q215 897 222 891T244 880Q263 873 263 851Q263 839 256 831T233 823Z" />
<glyph unicode="&#x201d;" glyph-name="quotedblright" horiz-adv-x="337" d="M92 572L83 584Q102 605 115 625T128 658Q128 674 121 680T99 691Q80 698 80 720Q80 732 87 740T110 748Q156 748 156 687Q156 659 145 634T92 572ZM193 572L184 584Q203 605 216 625T229
658Q229 674 222 680T200 691Q181 698 181 720Q181 732 188 740T211 748Q257 748 257 687Q257 659 246 634T193 572Z" />
<glyph unicode="&#x201e;" glyph-name="quotedblbase" horiz-adv-x="343" d="M92 -122L83 -110Q102 -89 115 -69T128 -36Q128 -20 121 -14T99 -3Q80 4 80 26Q80 38 87 46T110 54Q156 54 156 -7Q156 -41 142 -65T92 -122ZM199 -122L190 -110Q209 -89 222 -69T235
-36Q235 -20 228 -14T206 -3Q187 4 187 26Q187 38 194 46T217 54Q263 54 263 -7Q263 -41 249 -65T199 -122Z" />
<glyph unicode="&#x2022;" glyph-name="bullet" horiz-adv-x="347" d="M172 274Q145 274 124 294T102 344Q102 373 123 394T172 415Q202 415 223 394T245 344Q245 315 224 295T172 274Z" />
<glyph unicode="&#x2039;" glyph-name="guilsinglleft" horiz-adv-x="268" d="M209 73L40 268V274L209 457L228 444L66 271L228 86L209 73Z" />
<glyph unicode="&#x203a;" glyph-name="guilsinglright" horiz-adv-x="275" d="M64 64L45 77L207 250L45 435L64 448L233 253V247L64 64Z" />
</font>
</defs>
</svg>
