<?xml version="1.0" standalone="no"?>
<!DOCTYPE svg PUBLIC "-//W3C//DTD SVG 1.1//EN" "http://www.w3.org/Graphics/SVG/1.1/DTD/svg11.dtd">
<svg xmlns="http://www.w3.org/2000/svg">
<defs >
<font id="Lexend" horiz-adv-x="621" ><font-face
    font-family="Lexend"
    units-per-em="1000"
    panose-1="0 0 0 0 0 0 0 0 0 0"
    ascent="1000"
    descent="-250"
    alphabetic="0" />
<glyph unicode=" " glyph-name="space" horiz-adv-x="327" />
<glyph unicode="!" glyph-name="exclam" horiz-adv-x="321" d="M107 258Q94 348 83 446T71 633V713H250V633Q250 544 239 445T214 258H107ZM160 -11Q118 -11 95 13T71 81Q71 121 95 146T160 172Q202 172 225 149T249 81Q249 40 225 15T160 -11Z" />
<glyph unicode="&quot;" glyph-name="quotedbl" horiz-adv-x="488" d="M275 435L295 700H466L382 435H275ZM46 435L65 700H237L152 435H46Z" />
<glyph unicode="#" glyph-name="numbersign" horiz-adv-x="743" d="M107 0L132 146H50V283H155L180 426H88V563H203L227 700H376L353 563H465L488 700H638L614 563H693V426H591L566 283H656V146H543L518 0H368L393 146H281L256 0H107ZM305 283H417L441 426H329L305 283Z" />
<glyph unicode="$" glyph-name="dollar" horiz-adv-x="636" d="M261 -91L263 -7Q185 1 127 29T25 106L106 243Q147 202 187 179T267 147L271 280Q160 306 106 359T52 500Q52 559 84 605T169 680T286 715L283 789H388L385 713Q448 705 500 681T596 612L526 488Q494
517 458 535T381 560L377 433Q477 410 537 360T598 219Q598 152 568 104T484 27T362 -8L365 -91H261ZM234 510Q234 489 251 476T294 453L291 562Q264 557 249 544T234 510ZM417 196Q417 218 399 233T354 258L358 143Q384 147 400 160T417 196Z" />
<glyph unicode="%" glyph-name="percent" horiz-adv-x="989" d="M220 329Q168 329 127 354T63 424T40 525Q40 582 63 626T126 696T220 722Q273 722 313 697T375 627T398 525Q398 469 375 425T312 355T220 329ZM178 0L641 700H797L329 0H178ZM220 436Q243 436 256
460T269 525Q269 566 256 590T220 614Q196 614 183 590T169 525Q169 485 182 461T220 436ZM767 -10Q716 -10 675 16T611 86T587 186Q587 244 610 288T673 357T767 383Q820 383 860 358T923 288T946 186Q946 130 923 86T859 16T767 -10ZM767 97Q791 97 804 121T817
186Q817 227 804 251T767 276Q744 276 730 252T716 186Q716 146 729 122T767 97Z" />
<glyph unicode="&amp;" glyph-name="ampersand" horiz-adv-x="782" d="M330 -10Q250 -10 187 20T87 102T50 219Q50 285 85 340T191 427Q176 456 171 480T165 527Q165 582 193 624T273 692T392 717Q443 717 488 700T565 654T611 584L477 504Q460 544 442 558T398
572Q368 572 351 558T334 516Q334 496 350 469T391 412T442 355T488 308L527 266Q541 305 545 349H704Q689 242 638 160L789 0H580L532 50Q489 21 438 6T330 -10ZM213 230Q213 181 248 153T346 125Q391 125 431 147L304 281Q285 300 269 319Q213 289 213 230Z"
/>
<glyph unicode="&apos;" glyph-name="quotesingle" horiz-adv-x="259" d="M46 435L65 700H237L152 435H46Z" />
<glyph unicode="(" glyph-name="parenleft" horiz-adv-x="393" d="M290 -186Q168 -110 104 4T40 258Q40 397 104 511T291 702L387 613Q296 551 252 458T208 258Q208 152 252 59T387 -97L290 -186Z" />
<glyph unicode=")" glyph-name="parenright" horiz-adv-x="392" d="M102 -186L6 -97Q97 -35 140 58T184 258Q184 364 141 457T6 613L103 702Q225 626 289 512T353 258Q353 119 289 5T102 -186Z" />
<glyph unicode="*" glyph-name="asterisk" horiz-adv-x="449" d="M167 349L180 471L72 398L16 494L144 544L15 601L72 698L180 618L165 741H286L273 616L377 698L434 600L304 543L432 494L376 398L273 476L288 349H167Z" />
<glyph unicode="+" glyph-name="plus" horiz-adv-x="598" d="M48 216V352H225V528H372V352H549V216H372V39H225V216H48Z" />
<glyph unicode="," glyph-name="comma" horiz-adv-x="290" d="M84 -203L37 -145Q78 -127 102 -99T127 -51Q127 -42 123 -32T100 -9Q76 8 68 25T59 63Q59 95 82 113T143 132Q188 132 218 97T248 5Q248 -40 227 -82T169 -157T84 -203Z" />
<glyph unicode="-" glyph-name="hyphen" horiz-adv-x="457" d="M51 210V364H406V210H51Z" />
<glyph unicode="." glyph-name="period" horiz-adv-x="261" d="M131 -11Q88 -11 65 13T42 81Q42 121 66 146T131 172Q173 172 196 149T220 81Q220 40 195 15T131 -11Z" />
<glyph unicode="/" glyph-name="slash" horiz-adv-x="601" d="M6 -143L423 700H592L177 -143H6Z" />
<glyph unicode="0" glyph-name="zero" horiz-adv-x="686" d="M342 -10Q197 -10 118 84T39 350Q39 521 118 615T342 710Q488 710 567 616T647 350Q647 179 568 85T342 -10ZM342 141Q406 141 440 195T475 350Q475 454 441 509T342 565Q279 565 244 510T209 350Q209
250 244 196T342 141Z" />
<glyph unicode="1" glyph-name="one" horiz-adv-x="571" d="M79 0V157H210V505L95 453L66 613L267 710H386V157H520V0H79Z" />
<glyph unicode="2" glyph-name="two" horiz-adv-x="548" d="M54 0L20 82L223 302Q246 327 274 361T322 429T342 488Q342 514 324 532T269 550Q202 550 155 448L22 519Q43 577 83 622T175 692T286 717Q349 716 399 691T480 619T510 512Q510 459 479 396T371 247L289
157H543V0H54Z" />
<glyph unicode="3" glyph-name="three" horiz-adv-x="601" d="M293 -10Q206 -10 141 25T23 150L152 232Q184 181 220 160T298 138Q339 138 368 164T398 233Q398 277 371 300T295 324Q250 324 191 296L152 398L294 552L74 557V707H509L542 641L365 454Q420 446
465 415T536 337T563 234Q563 164 527 109T430 22T293 -10Z" />
<glyph unicode="4" glyph-name="four" horiz-adv-x="669" d="M349 0V137H89L17 275L376 707H523V283H635V137H523V0H349ZM220 283H349V440L220 283Z" />
<glyph unicode="5" glyph-name="five" horiz-adv-x="601" d="M286 -7Q205 -7 140 25T30 117L127 223Q167 179 202 163T280 146Q326 146 356 174T386 243Q386 285 356 313T280 342Q244 342 215 333T142 297L67 396L110 707H516V557H231L217 458Q240 467 265 472T316
478Q383 478 436 448T520 363T551 238Q551 169 516 114T421 26T286 -7Z" />
<glyph unicode="6" glyph-name="six" horiz-adv-x="583" d="M296 0Q223 0 164 34T69 125T33 254Q33 330 63 396T142 545L241 711H407L411 701L271 482Q268 477 266 473Q304 489 339 489Q399 489 448 458T528 374T558 260Q558 186 524 127T431 34T296 0ZM298 147Q344
147 373 176T403 252Q403 279 389 303T352 341T299 356Q252 356 223 326T193 253Q193 207 222 177T298 147Z" />
<glyph unicode="7" glyph-name="seven" horiz-adv-x="555" d="M80 0L320 551H43V707H504L520 624L259 0H80Z" />
<glyph unicode="8" glyph-name="eight" horiz-adv-x="602" d="M300 -3Q227 -3 168 24T73 99T38 206Q38 271 64 314T143 384Q105 408 83 443T61 522Q61 578 93 621T180 688T300 713Q366 713 420 689T507 621T539 522Q539 434 456 383Q505 359 534 315T564 206Q564
146 529 99T434 24T300 -3ZM300 443Q336 443 359 463T382 514Q382 545 359 566T300 587Q265 587 242 566T219 514Q219 483 242 463T300 443ZM300 136Q340 136 367 159T394 218Q394 254 368 278T300 302Q261 302 234 278T207 218Q207 183 234 160T300 136Z" />
<glyph unicode="9" glyph-name="nine" horiz-adv-x="581" d="M205 0L201 10L319 247Q278 230 241 230Q184 230 136 261T59 345T30 458Q30 531 64 590T159 683T294 717Q366 717 425 684T520 596T556 474Q556 399 530 330T460 174L371 0H205ZM285 370Q329 370 357
399T386 469Q386 514 358 543T285 572Q243 572 216 544T188 470Q188 430 216 400T285 370Z" />
<glyph unicode=":" glyph-name="colon" horiz-adv-x="277" d="M138 -11Q95 -11 72 13T49 81Q49 121 73 146T138 172Q180 172 203 149T227 81Q227 40 202 15T138 -11ZM138 358Q95 358 72 382T49 450Q49 490 73 515T138 541Q180 541 203 518T227 450Q227 409 202
384T138 358Z" />
<glyph unicode=";" glyph-name="semicolon" horiz-adv-x="289" d="M89 -203L42 -145Q83 -127 107 -99T132 -51Q132 -42 128 -32T105 -9Q81 8 73 25T64 63Q64 95 87 113T148 132Q193 132 223 97T253 5Q253 -40 232 -82T174 -157T89 -203ZM146 359Q103 359 80 383T57
451Q57 491 81 516T146 542Q188 542 211 519T235 451Q235 410 210 385T146 359Z" />
<glyph unicode="&lt;" glyph-name="less" horiz-adv-x="525" d="M432 -16L40 208V308L432 532L500 397L231 258L500 119L432 -16Z" />
<glyph unicode="=" glyph-name="equal" horiz-adv-x="633" d="M70 324V461H563V324H70ZM70 102V238H563V102H70Z" />
<glyph unicode="&gt;" glyph-name="greater" horiz-adv-x="526" d="M104 -16L36 119L305 258L36 397L104 532L496 308V208L104 -16Z" />
<glyph unicode="?" glyph-name="question" horiz-adv-x="540" d="M196 244L162 374Q208 385 247 402T309 443T333 502Q333 529 314 545T264 561Q231 561 199 539T139 462L24 570Q70 640 132 678T264 716Q331 716 384 689T468 616T500 511Q500 460 473 413T399
329T292 274L283 244H196ZM159 81Q159 121 184 146T248 172Q291 172 314 149T337 81Q337 40 313 15T248 -11Q206 -11 183 13T159 81Z" />
<glyph unicode="@" glyph-name="at" horiz-adv-x="965" d="M414 -162Q297 -162 214 -116T85 13T40 206Q40 323 81 416T196 575T367 675T576 710Q682 710 760 671T882 560T925 396Q925 327 906 264T851 153T770 76T669 48Q616 48 580 72T537 136Q483 48 393 48Q346
48 310 72T252 138T231 237Q231 286 249 336T301 429T379 497T474 523Q507 523 533 504T574 452L586 512H737L677 194Q673 170 684 160T713 150Q750 150 779 183T825 271T842 391Q842 504 770 568T569 632Q433 632 333 581T179 436T124 209Q124 72 200 -5T417 -82Q464
-82 498 -76T563 -56T632 -22L669 -89Q610 -119 568 -134T490 -156T414 -162ZM438 175Q462 175 485 191T526 234T550 296Q552 309 554 320T556 343Q556 371 542 387T499 404Q468 404 444 382T406 323T391 243Q391 211 403 193T438 175Z" />
<glyph unicode="A" glyph-name="A" horiz-adv-x="693" d="M-5 0L273 700H423L698 0H517L470 127H219L172 0H-5ZM299 343L268 260H421L389 345Q378 377 367 410T345 477Q335 444 324 412T299 343Z" />
<glyph unicode="B" glyph-name="B" horiz-adv-x="704" d="M86 0V700H398Q508 700 566 655T624 529Q624 421 538 382Q594 361 627 318T661 213Q661 142 629 95T539 24T408 0H86ZM255 421H371Q410 421 429 438T449 486Q449 517 429 534T366 552H255V421ZM255 148H402Q441
148 462 167T484 222Q484 254 461 272T397 290H255V148Z" />
<glyph unicode="C" glyph-name="C" horiz-adv-x="696" d="M410 -10Q302 -10 220 36T90 165T43 353Q43 432 70 498T148 612T267 688T417 715Q491 715 560 687T677 604L567 479Q539 511 502 530T416 549Q363 549 321 525T253 457T227 351Q227 262 283 209T431 156Q477
156 517 175T585 224L672 87Q647 59 605 37T513 3T410 -10Z" />
<glyph unicode="D" glyph-name="D" horiz-adv-x="776" d="M86 0V700H383Q486 700 565 656T688 532T733 350Q733 247 689 168T565 45T383 0H86ZM378 543H266V157H378Q456 157 503 210T551 350Q551 436 504 489T378 543Z" />
<glyph unicode="E" glyph-name="E" horiz-adv-x="650" d="M86 0V700H582V549H260V428H539V284H260V151H594V0H86Z" />
<glyph unicode="F" glyph-name="F" d="M86 0V700H573V543H266V411H533V263H266V0H86Z" />
<glyph unicode="G" glyph-name="G" horiz-adv-x="784" d="M413 -10Q299 -10 216 37T88 167T43 353Q43 431 70 497T149 612T269 688T423 715Q511 715 583 683T699 600L590 485Q555 518 514 538T421 558Q366 558 322 532T253 459T227 353Q227 295 253 249T326 175T429
148Q486 148 526 180T571 261H405V398H738Q740 387 741 367T742 328T743 299Q743 208 700 139T583 30T413 -10Z" />
<glyph unicode="H" glyph-name="H" horiz-adv-x="782" d="M86 0V700H266V429H516V700H696V0H516V269H266V0H86Z" />
<glyph unicode="I" glyph-name="I" horiz-adv-x="567" d="M74 0V150H194V550H74V700H493V550H374V150H493V0H74Z" />
<glyph unicode="J" glyph-name="J" horiz-adv-x="669" d="M262 -10Q183 -10 126 23T37 116L139 221Q165 184 188 168T241 151Q275 151 295 174T316 234V544H187V700H599V544H491V213Q491 144 461 94T379 17T262 -10Z" />
<glyph unicode="K" glyph-name="K" horiz-adv-x="740" d="M86 0V700H266V453L510 700H720L423 407L742 0H533L309 295L266 253V0H86Z" />
<glyph unicode="L" glyph-name="L" horiz-adv-x="610" d="M86 0V700H266V157H575V0H86Z" />
<glyph unicode="M" glyph-name="M" horiz-adv-x="880" d="M86 0V700H245L442 381L641 700H794V0H619V207Q619 263 621 312T627 406L471 165H405L254 403Q258 361 259 313T261 207V0H86Z" />
<glyph unicode="N" glyph-name="N" horiz-adv-x="809" d="M86 0V700H247L562 270Q557 314 554 352T549 435T548 537V700H723V0H560L249 421Q254 377 256 347T260 289T261 224V0H86Z" />
<glyph unicode="O" glyph-name="O" horiz-adv-x="817" d="M408 -10Q329 -10 262 17T146 93T70 208T43 353Q43 432 70 498T146 614T262 690T408 717Q488 717 555 690T671 614T747 499T774 353Q774 275 747 209T671 93T555 17T408 -10ZM408 158Q461 158 502 183T567
253T591 353Q591 410 567 454T502 523T408 548Q355 548 314 523T250 454T226 353Q226 297 249 253T314 184T408 158Z" />
<glyph unicode="P" glyph-name="P" horiz-adv-x="667" d="M86 0V700H391Q458 700 511 670T594 588T625 468Q625 399 595 345T511 260T391 228H266V0H86ZM263 385H364Q396 385 418 407T440 466Q440 502 418 522T364 543H263V385Z" />
<glyph unicode="Q" glyph-name="Q" horiz-adv-x="817" d="M408 -10Q329 -10 262 17T146 93T70 208T43 353Q43 432 70 498T146 614T262 690T408 717Q488 717 555 690T671 614T747 499T774 353Q774 273 746 206T667 89L743 -15L616 -110L529 8Q472 -10 408 -10ZM408
158Q413 158 418 159L347 255L478 347L558 237Q591 287 591 353Q591 410 567 454T502 523T408 548Q355 548 314 523T250 454T226 353Q226 297 249 253T314 184T408 158Z" />
<glyph unicode="R" glyph-name="R" horiz-adv-x="703" d="M86 0V700H404Q473 700 527 671T613 592T645 477Q645 406 611 352T518 268L674 0H469L332 243H257V0H86ZM257 378H385Q424 378 446 402T468 466Q468 505 443 528T373 552H257V378Z" />
<glyph unicode="S" glyph-name="S" horiz-adv-x="635" d="M321 -10Q213 -10 140 27T15 130L123 252Q173 186 224 163T328 140Q367 140 392 154T417 196Q417 220 397 236T345 261T282 278Q166 303 109 357T52 500Q52 565 89 613T188 689T319 717Q425 717 487 685T587
596L478 491Q446 528 407 546T326 565Q284 565 259 551T234 510Q234 489 251 475T296 453T352 438Q425 424 480 397T567 327T598 219Q598 145 562 94T464 17T321 -10Z" />
<glyph unicode="T" glyph-name="T" horiz-adv-x="668" d="M241 0V543H32V700H636V543H421V0H241Z" />
<glyph unicode="U" glyph-name="U" horiz-adv-x="769" d="M385 -6Q297 -6 229 29T122 127T83 269V700H264V278Q264 223 299 187T385 151Q438 151 474 187T510 278V700H687V269Q687 189 648 127T541 30T385 -6Z" />
<glyph unicode="V" glyph-name="V" horiz-adv-x="712" d="M281 0L1 700H186L317 354Q332 313 342 285T360 230Q368 258 377 285T403 354L529 700H710L429 0H281Z" />
<glyph unicode="W" glyph-name="W" horiz-adv-x="992" d="M208 0L1 700H184L283 343Q290 318 295 293T304 246Q308 270 313 293T328 344L428 614H570L669 344Q678 318 684 296T696 252Q698 271 702 293T714 344L813 700H991L782 0H644L492 370L353 0H208Z" />
<glyph unicode="X" glyph-name="X" horiz-adv-x="708" d="M-5 0L246 358L0 700H218L359 493L495 700H703L461 347L713 0H495L348 212L203 0H-5Z" />
<glyph unicode="Y" glyph-name="Y" horiz-adv-x="693" d="M266 0V310L-10 700H193L357 465L506 700H703L447 312V0H266Z" />
<glyph unicode="Z" glyph-name="Z" horiz-adv-x="687" d="M60 0V119L374 536H86V700H618V582L299 156H629V0H60Z" />
<glyph unicode="[" glyph-name="bracketleft" horiz-adv-x="422" d="M80 -190V700H384V554H244V-44H384V-190H80Z" />
<glyph unicode="\" glyph-name="backslash" horiz-adv-x="588" d="M414 -107L16 700H185L585 -107H414Z" />
<glyph unicode="]" glyph-name="bracketright" horiz-adv-x="422" d="M39 -190V-44H179V554H39V700H342V-190H39Z" />
<glyph unicode="^" glyph-name="asciicircum" horiz-adv-x="594" d="M10 360L231 734H364L585 360H416L297 566L176 360H10Z" />
<glyph unicode="_" glyph-name="underscore" horiz-adv-x="686" d="M38 -197V-58H648V-197H38Z" />
<glyph unicode="`" glyph-name="grave" horiz-adv-x="500" d="M330 580L120 693L195 801L380 656L330 580Z" />
<glyph unicode="a" glyph-name="a" horiz-adv-x="664" d="M265 -9Q199 -9 147 26T64 124T33 267Q33 348 63 410T147 507T270 543Q322 543 361 523T426 471V532H593V0H422V61Q395 30 355 11T265 -9ZM313 132Q366 132 396 168T427 267Q427 328 397 364T313 401Q261
401 231 365T200 267Q200 205 230 169T313 132Z" />
<glyph unicode="b" glyph-name="b" horiz-adv-x="663" d="M397 -11Q346 -11 303 7T232 56L227 1H71V740H241V480Q268 508 308 525T392 543Q461 543 514 507T598 409T629 266Q629 185 599 123T517 25T397 -11ZM350 131Q402 131 433 167T464 266Q464 328 433 364T350
401Q298 401 267 365T236 266Q236 204 267 168T350 131Z" />
<glyph unicode="c" glyph-name="c" horiz-adv-x="547" d="M306 -10Q227 -10 166 26T69 124T33 266Q33 346 68 408T165 507T306 543Q377 543 437 519T532 450L440 340Q420 364 390 380T321 396Q267 396 233 360T199 267Q199 212 233 175T321 137Q359 137 388 151T440
192L531 81Q496 39 436 15T306 -10Z" />
<glyph unicode="d" glyph-name="d" horiz-adv-x="657" d="M269 -11Q201 -11 148 24T64 122T33 266Q33 346 64 408T148 507T271 543Q316 543 356 526T424 482V740H594V0H438L433 56Q407 27 364 8T269 -11ZM314 129Q367 129 397 166T428 266Q428 328 398 365T314
402Q262 402 232 365T201 266Q201 203 231 166T314 129Z" />
<glyph unicode="e" glyph-name="e" horiz-adv-x="586" d="M325 -10Q236 -10 171 25T69 123T33 264Q33 346 68 408T164 507T303 543Q378 543 436 508T526 412T557 273L556 230H197Q210 187 247 162T344 137Q377 137 402 146T457 179L536 67Q486 26 433 8T325 -10ZM306
403Q215 403 195 321H401V322Q399 357 373 380T306 403Z" />
<glyph unicode="f" glyph-name="f" horiz-adv-x="393" d="M100 0V378H24V516H100V553Q100 606 123 649T187 717T284 743Q322 743 355 732T414 701L367 578Q339 591 321 591Q270 591 270 537V516H377V378H270V0H100Z" />
<glyph unicode="g" glyph-name="g" horiz-adv-x="672" d="M315 -230Q248 -230 183 -211T76 -161L135 -44Q167 -65 206 -77T291 -90Q365 -90 400 -58T435 43V66Q408 39 368 23T282 7Q210 7 154 40T66 132T33 269Q33 349 65 410T152 507T278 543Q329 543 372 525T442
477L445 532H605V45Q605 -86 528 -158T315 -230ZM320 135Q375 135 407 170T439 268Q439 329 407 365T320 401Q265 401 233 365T201 268Q201 207 233 171T320 135Z" />
<glyph unicode="h" glyph-name="h" horiz-adv-x="642" d="M71 0V740H237V473Q265 505 306 524T394 543Q484 543 531 488T579 327V0H409V313Q409 403 332 401Q292 401 266 377T240 318V0H71Z" />
<glyph unicode="i" glyph-name="i" horiz-adv-x="331" d="M166 635Q119 635 93 657T67 721Q67 758 93 782T166 806Q213 806 239 784T266 721Q266 683 240 659T166 635ZM82 0V532H251V0H82Z" />
<glyph unicode="j" glyph-name="j" horiz-adv-x="336" d="M167 628Q120 628 94 650T68 714Q68 752 94 776T167 800Q214 800 240 778T267 714Q267 676 241 652T167 628ZM26 -212L-39 -81Q8 -81 34 -70T71 -30T82 48V532H252V7Q252 -107 194 -159T26 -212Z" />
<glyph unicode="k" glyph-name="k" horiz-adv-x="636" d="M71 0V740H241V352L415 532H638L392 302L631 0H432L282 198L241 160V0H71Z" />
<glyph unicode="l" glyph-name="l" horiz-adv-x="312" d="M71 0V740H241V0H71Z" />
<glyph unicode="m" glyph-name="m" horiz-adv-x="969" d="M70 0V532H230L234 466Q299 542 385 542Q437 542 473 521T538 447Q573 496 620 519T720 542Q811 542 859 487T907 325V0H737V312Q737 400 662 400Q623 400 598 376T573 317V0H403V312Q403 355 384 377T329
400Q290 400 265 377T240 317V0H70Z" />
<glyph unicode="n" glyph-name="n" horiz-adv-x="642" d="M71 0V532H230L234 470Q262 503 304 523T394 543Q484 543 531 488T579 327V0H409V313Q409 403 332 401Q292 401 266 377T240 318V0H71Z" />
<glyph unicode="o" glyph-name="o" horiz-adv-x="645" d="M323 -10Q240 -10 175 26T71 124T33 266Q33 346 71 408T174 507T323 543Q406 543 471 507T574 409T612 266Q612 186 575 124T472 26T323 -10ZM323 135Q374 135 407 172T440 266Q440 324 407 361T323 399Q272
399 239 362T205 266Q205 209 238 172T323 135Z" />
<glyph unicode="p" glyph-name="p" horiz-adv-x="663" d="M71 -220V532H231L234 477Q260 506 303 524T396 542Q464 542 516 507T599 410T630 266Q630 187 600 125T516 27T394 -9Q349 -9 309 7T241 51V-220H71ZM351 133Q402 133 433 169T464 266Q464 328 434 364T351
400Q298 400 267 364T236 266Q236 205 267 169T351 133Z" />
<glyph unicode="q" glyph-name="q" horiz-adv-x="663" d="M422 -220V52Q395 24 355 8T271 -9Q202 -9 149 26T64 124T33 266Q33 347 63 409T147 507T267 543Q317 543 359 525T429 479L432 532H592V-220H422ZM312 132Q365 132 395 168T426 266Q426 328 396 364T312
401Q260 401 230 365T199 266Q199 205 229 169T312 132Z" />
<glyph unicode="r" glyph-name="r" horiz-adv-x="463" d="M71 0V532H231L234 453Q261 493 302 518T391 543Q408 543 424 540T453 533L407 346Q396 352 377 357T336 363Q294 363 268 335T241 262V0H71Z" />
<glyph unicode="s" glyph-name="s" horiz-adv-x="498" d="M251 -10Q171 -10 111 15T14 82L116 170Q147 139 186 125T260 111Q286 111 300 121T314 149Q314 168 297 178Q279 188 213 205Q121 228 77 271Q56 291 45 317T34 376Q34 427 64 464T143 522T249 543Q316
543 373 522T473 463L385 364Q359 388 322 406T249 424Q197 424 197 386Q197 365 218 353Q227 348 249 341T310 322Q357 309 391 293T445 254Q477 219 477 168Q477 116 448 76T367 13T251 -10Z" />
<glyph unicode="t" glyph-name="t" horiz-adv-x="401" d="M111 0V385H19V532H111V666H281V532H380V385H281V0H111Z" />
<glyph unicode="u" glyph-name="u" horiz-adv-x="648" d="M251 -11Q163 -11 114 45T64 204V532H234V224Q234 179 255 154T317 129Q356 129 381 153T406 214V532H576V0H417L412 66Q386 31 343 10T251 -11Z" />
<glyph unicode="v" glyph-name="v" horiz-adv-x="610" d="M233 0L11 532H198L305 199L414 532H600L367 0H233Z" />
<glyph unicode="w" glyph-name="w" horiz-adv-x="839" d="M185 0L11 532H189L274 228L367 461H467L566 229L650 532H829L648 0H521L417 263L311 0H185Z" />
<glyph unicode="x" glyph-name="x" horiz-adv-x="613" d="M19 0L212 272L24 532H226L316 394L386 532H586L404 270L595 0H394L299 149L218 0H19Z" />
<glyph unicode="y" glyph-name="y" horiz-adv-x="626" d="M134 -230L241 20L5 532H196L300 284Q313 253 322 222Q326 232 329 243T338 267L430 532H621L394 0L302 -230H134Z" />
<glyph unicode="z" glyph-name="z" horiz-adv-x="561" d="M50 0V93L288 395H50V532H500V434L273 136H508V0H50Z" />
<glyph unicode="{" glyph-name="braceleft" horiz-adv-x="429" d="M363 -207Q259 -186 209 -139T159 -7L160 88Q160 137 139 159T78 183H38V317H80Q120 318 140 340T160 412L159 507Q159 589 208 636T363 707L401 584Q367 573 348 562T320 533T312 480L314 398Q314
345 284 308T189 250Q254 228 284 191T314 102L312 20Q312 -11 320 -28T347 -55T401 -78L363 -207Z" />
<glyph unicode="|" glyph-name="bar" horiz-adv-x="332" d="M86 -193V740H247V-193H86Z" />
<glyph unicode="}" glyph-name="braceright" horiz-adv-x="429" d="M66 -207L28 -84Q62 -73 81 -62T109 -33T117 20L115 102Q115 154 145 191T240 250Q175 272 145 309T115 398L117 480Q117 511 109 528T82 555T28 578L66 707Q170 686 220 639T270 507L269 412Q269
363 290 341T351 317H391V183H349Q309 182 289 160T269 88L270 -7Q270 -89 221 -136T66 -207Z" />
<glyph unicode="~" glyph-name="asciitilde" horiz-adv-x="566" d="M387 198Q362 198 333 207T277 228Q254 238 230 246T192 255Q152 255 152 191H31Q31 291 69 344T187 398Q213 398 243 387T296 366Q315 359 336 350T374 341Q391 341 402 358T411 402L533 401Q533
198 387 198Z" />
<glyph unicode="&#xa0;" glyph-name="uni00A0" horiz-adv-x="327" />
<glyph unicode="&#xa1;" glyph-name="exclamdown" horiz-adv-x="321" d="M212 272Q225 182 236 84T248 -103V-183H69V-103Q69 -14 80 85T105 272H212ZM159 541Q201 541 224 517T248 449Q248 409 224 384T159 358Q117 358 94 381T70 449Q70 490 94 515T159 541Z" />
<glyph unicode="&#xa2;" glyph-name="cent" horiz-adv-x="567" d="M269 0V83Q204 95 154 133T75 227T47 354Q47 424 75 481T153 576T269 626V707H393V625Q443 616 484 594T552 538L460 428Q444 447 421 462T368 482V227Q397 232 419 245T460 280L551 169Q525 137
484 115T393 84V0H269ZM213 355Q213 311 236 278T298 232V478Q259 466 236 433T213 355Z" />
<glyph unicode="&#xa3;" glyph-name="sterling" horiz-adv-x="643" d="M44 300V395H123Q114 428 111 448T107 487Q107 557 138 608T226 688T360 717Q432 717 484 693T562 625L434 524Q406 564 353 564Q313 564 287 538T261 473Q261 453 264 434T273 395H472V300H302Q307
280 310 262T314 229Q314 191 295 158Q314 153 343 142Q364 135 389 128T444 120Q466 120 493 128T550 155L626 44Q590 12 542 -4T452 -21Q416 -21 380 -12T322 4Q303 10 275 18T218 26Q185 26 151 16T79 -13L19 108Q54 129 92 143T171 164Q175 180 175 195Q175
214 169 242T153 300H44Z" />
<glyph unicode="&#xa4;" glyph-name="currency" horiz-adv-x="562" d="M131 57L27 161L87 222Q69 261 69 306Q69 352 88 391L25 452L128 556L196 489Q236 505 282 505Q328 505 369 489L436 559L540 455L476 390Q494 351 494 306Q494 262 477 224L539 163L436 59L370
124Q329 107 282 107Q236 107 196 123L131 57ZM282 230Q313 230 333 251T353 306Q353 340 333 361T282 383Q252 383 232 362T211 306Q211 273 231 252T282 230Z" />
<glyph unicode="&#xa5;" glyph-name="yen" horiz-adv-x="693" d="M141 129V197H266V248L141 249V317H261L-10 700H193L357 465L506 700H703L451 317H580V248H447V197H580V128H447V0H266V128L141 129Z" />
<glyph unicode="&#xa6;" glyph-name="brokenbar" horiz-adv-x="338" d="M87 348V740H251V348H87ZM87 -202V191H251V-202H87Z" />
<glyph unicode="&#xa7;" glyph-name="section" horiz-adv-x="579" d="M270 -143Q195 -143 132 -117T32 -51L116 47Q160 10 199 -5T269 -20Q341 -20 341 27Q341 49 314 64T252 93L172 123Q32 178 32 286Q32 331 58 366T134 422Q109 445 94 476T78 549Q78 594 102
632T177 693T310 717Q385 717 443 693T536 627L449 533Q408 568 374 580T309 593Q276 593 258 580T240 546Q240 523 262 508T319 481L403 448Q475 420 510 380T545 285Q544 239 518 205T445 153Q473 130 488 101T503 32Q503 -17 479 -56T404 -119T270 -143ZM256
242L321 218Q354 223 369 238T385 273Q385 290 372 302T329 325L254 352Q195 342 195 297Q195 265 256 242Z" />
<glyph unicode="&#xa8;" glyph-name="dieresis" horiz-adv-x="500" d="M374 623Q331 623 308 646T284 712Q284 751 308 775T374 800Q417 800 440 777T464 712Q464 672 440 648T374 623ZM127 623Q84 623 61 646T37 712Q37 751 61 775T127 800Q170 800 193 777T216
712Q216 672 192 648T127 623Z" />
<glyph unicode="&#xa9;" glyph-name="copyright" horiz-adv-x="791" d="M395 -20Q317 -20 250 8T133 87T54 205T25 350Q25 428 53 495T132 612T250 691T395 720Q472 720 539 692T657 613T736 495T765 350Q765 272 737 205T657 88T539 9T395 -20ZM395 54Q457 54
510 77T604 140T668 234T691 350Q691 412 668 466T605 560T511 623T395 646Q333 646 280 624T186 561T122 466T99 350Q99 288 121 235T184 140T279 77T395 54ZM410 143Q351 143 303 170T227 243T198 349Q198 407 226 454T303 529T410 557Q481 557 547 508L496 398Q475
413 458 419T424 426Q389 426 367 404T344 349Q344 315 366 294T424 272Q441 272 460 278T498 299L551 188Q487 143 410 143Z" />
<glyph unicode="&#xaa;" glyph-name="ordfeminine" horiz-adv-x="395" d="M139 390Q83 390 51 437T18 562Q18 631 55 676T151 722Q212 722 239 684V715H358V401H239V438Q223 417 198 404T139 390ZM188 485Q212 485 227 504T243 557Q243 590 228 608T187 627Q166
627 152 608T137 560Q137 525 150 505T188 485Z" />
<glyph unicode="&#xab;" glyph-name="guillemotleft" horiz-adv-x="570" d="M438 23L259 251V266L437 496L534 429L423 259L534 89L438 23ZM441 23L262 251V266L440 496L537 429L426 259L537 89L441 23Z" />
<glyph unicode="&#xac;" glyph-name="logicalnot" horiz-adv-x="670" d="M472 104V272H40V417H630V104H472Z" />
<glyph unicode="&#xad;" glyph-name="uni00AD" horiz-adv-x="463" d="M58 210V364H413V210H58Z" />
<glyph unicode="&#xae;" glyph-name="registered" horiz-adv-x="507" d="M260 232Q188 232 130 266T38 357T3 484Q3 554 37 611T130 702T260 736Q328 736 384 702T475 611T509 484Q509 414 475 357T385 266T260 232ZM260 296Q311 296 353 321T420 389T445 484Q445
537 420 579T353 647T260 672Q206 672 163 647T93 580T66 484Q66 431 92 389T162 321T260 296ZM157 367V606H280Q319 606 343 585T367 529Q367 508 357 492T330 464L383 367H293L257 451H240V367H157ZM262 543H240V502H260Q271 502 278 507T286 522Q286 543 262
543Z" />
<glyph unicode="&#xaf;" glyph-name="overscore" horiz-adv-x="424" d="M78 633V738H422V633H78Z" />
<glyph unicode="&#xb0;" glyph-name="degree" horiz-adv-x="532" d="M266 392Q218 392 180 414T120 472T97 553Q97 599 119 636T179 694T266 716Q315 716 353 694T413 636T435 554Q435 509 413 473T352 414T266 392ZM266 493Q290 493 306 511T323 554Q323 579
307 596T266 614Q241 614 225 597T209 553Q209 528 225 511T266 493Z" />
<glyph unicode="&#xb1;" glyph-name="plusminus" horiz-adv-x="650" d="M245 190V317H70V454H245V583H403V454H578V317H403V190H245ZM72 -7V130H580V-7H72Z" />
<glyph unicode="&#xb2;" glyph-name="uni00B2" horiz-adv-x="367" d="M60 418L45 504L148 584Q173 601 193 623T214 667Q214 696 188 696Q168 696 150 680T119 643L37 702Q70 749 108 773T197 798Q256 798 291 765T327 687Q327 645 308 614T258 561T198 520L185
512H337V418H60Z" />
<glyph unicode="&#xb3;" glyph-name="uni00B3" horiz-adv-x="358" d="M179 412Q135 412 102 420T32 446L79 528Q115 508 152 508Q174 508 187 518T201 545Q201 559 189 567T154 576Q140 576 126 574T98 567L74 629L176 697H61V791H284L295 704L199 636Q206 638
212 638Q256 638 286 610T316 534Q316 498 297 471T247 428T179 412Z" />
<glyph unicode="&#xb4;" glyph-name="acute" horiz-adv-x="500" d="M170 579L120 656L305 800L380 692L170 579Z" />
<glyph unicode="&#xb5;" glyph-name="uni00B5" horiz-adv-x="648" d="M73 -162V532H241V222Q241 129 319 129Q358 129 383 155T409 219V532H577V0H420L415 66Q386 26 351 9T264 -11Q249 -12 236 -7L241 -162H73Z" />
<glyph unicode="&#xb6;" glyph-name="paragraph" horiz-adv-x="771" d="M247 0V272H231Q177 272 135 299T68 374T43 483Q43 548 70 597T149 673T268 700H685V0H511V596H422V0H247Z" />
<glyph unicode="&#xb7;" glyph-name="middot" horiz-adv-x="261" d="M131 253Q88 253 65 277T42 345Q42 385 66 410T131 436Q173 436 196 413T220 345Q220 304 195 279T131 253Z" />
<glyph unicode="&#xb8;" glyph-name="cedilla" horiz-adv-x="500" d="M150 -246L141 -168Q161 -168 183 -163T220 -150T235 -129Q235 -113 213 -106T167 -97L149 -83L218 24H303L257 -42Q310 -48 335 -75T360 -139Q360 -170 341 -191T290 -224T222 -242T150 -246Z" />
<glyph unicode="&#xb9;" glyph-name="uni00B9" horiz-adv-x="292" d="M114 430V669L70 642L22 728L143 799H234V430H114Z" />
<glyph unicode="&#xba;" glyph-name="ordmasculine" horiz-adv-x="407" d="M203 393Q154 393 116 413T55 470T33 554Q33 600 55 637T115 695T203 717Q251 717 290 696T351 637T374 554Q374 508 352 472T291 414T203 393ZM202 480Q226 480 240 501T255 556Q255
590 241 609T202 629Q179 629 164 608T149 556Q149 521 163 501T202 480Z" />
<glyph unicode="&#xbb;" glyph-name="guillemotright" horiz-adv-x="571" d="M387 25L291 92L402 262L291 432L387 498L565 270V255L387 25ZM388 25L292 92L403 262L292 432L388 498L566 270V255L388 25Z" />
<glyph unicode="&#xbc;" glyph-name="onequarter" horiz-adv-x="825" d="M123 360V599L79 572L31 658L152 729H243V360H123ZM85 0L548 700H705L237 0H85ZM733 -1H605V67H458L438 149L620 371H733V161H791V67H733V-1ZM559 161H625V238L559 161Z" />
<glyph unicode="&#xbd;" glyph-name="onehalf" horiz-adv-x="834" d="M123 360V599L79 572L31 658L152 729H243V360H123ZM85 0L548 700H705L237 0H85ZM519 0L504 86L607 166Q632 183 652 205T673 249Q673 278 647 278Q627 278 609 262T578 225L496 284Q529 331
567 355T656 380Q715 380 750 347T786 269Q786 227 767 196T717 143T657 102L644 94H796V0H519Z" />
<glyph unicode="&#xbe;" glyph-name="threequarters" horiz-adv-x="859" d="M170 342Q126 342 93 350T23 376L70 458Q106 438 143 438Q165 438 178 448T192 475Q192 489 180 497T145 506Q131 506 117 504T89 497L65 559L167 627H52V721H275L286 634L190 566Q197
568 203 568Q247 568 277 540T307 464Q307 428 288 401T238 358T170 342ZM123 0L586 700H743L275 0H123ZM767 -1H639V67H492L472 149L654 371H767V161H825V67H767V-1ZM593 161H659V238L593 161Z" />
<glyph unicode="&#xbf;" glyph-name="questiondown" horiz-adv-x="540" d="M328 290L362 160Q316 149 277 132T215 91T191 32Q191 5 210 -11T260 -27Q293 -27 325 -5T385 72L500 -36Q454 -106 392 -144T260 -182Q193 -182 140 -155T56 -82T24 23Q24 74 51 121T125
205T232 260L241 290H328ZM365 453Q365 413 340 388T276 362Q233 362 210 385T187 453Q187 494 211 519T276 545Q318 545 341 521T365 453Z" />
<glyph unicode="&#xc0;" glyph-name="Agrave" horiz-adv-x="693" d="M-5 0L273 700H423L698 0H517L470 127H219L172 0H-5ZM299 343L268 260H421L389 345Q378 377 367 410T345 477Q335 444 324 412T299 343ZM448 746L217 825L274 947L487 832L448 746Z" />
<glyph unicode="&#xc1;" glyph-name="Aacute" horiz-adv-x="693" d="M-5 0L273 700H423L698 0H517L470 127H219L172 0H-5ZM299 343L268 260H421L389 345Q378 377 367 410T345 477Q335 444 324 412T299 343ZM255 746L217 832L430 947L485 825L255 746Z" />
<glyph unicode="&#xc2;" glyph-name="Acircumflex" horiz-adv-x="693" d="M-5 0L273 700H423L698 0H517L470 127H219L172 0H-5ZM299 343L268 260H421L389 345Q378 377 367 410T345 477Q335 444 324 412T299 343ZM213 754L162 814L300 922H392L530 814L479 754L346
819L213 754Z" />
<glyph unicode="&#xc3;" glyph-name="Atilde" horiz-adv-x="693" d="M-5 0L273 700H423L698 0H517L470 127H219L172 0H-5ZM299 343L268 260H421L389 345Q378 377 367 410T345 477Q335 444 324 412T299 343ZM424 768Q405 768 386 774T341 790Q323 799 311 803T288
807Q258 807 258 769H154Q154 837 190 876T284 915Q301 915 318 910T363 892Q380 884 390 880T410 876Q423 876 430 886T436 915H539Q539 874 525 841T485 788T424 768Z" />
<glyph unicode="&#xc4;" glyph-name="Adieresis" horiz-adv-x="693" d="M-5 0L273 700H423L698 0H517L470 127H219L172 0H-5ZM299 343L268 260H421L389 345Q378 377 367 410T345 477Q335 444 324 412T299 343ZM471 753Q427 753 404 776T381 841Q381 879 405 904T471
930Q515 930 538 907T561 841Q561 804 537 779T471 753ZM222 753Q178 753 155 776T132 841Q132 879 155 904T222 930Q265 930 288 907T311 841Q311 804 288 779T222 753Z" />
<glyph unicode="&#xc5;" glyph-name="Aring" horiz-adv-x="693" d="M-5 0L273 700H423L698 0H517L470 127H219L172 0H-5ZM299 343L268 260H421L389 345Q378 377 367 410T345 477Q335 444 324 412T299 343ZM347 672Q311 672 280 689T229 735T210 797Q210 834 229
864T279 912T347 930Q383 930 414 912T464 864T483 797Q483 764 464 736T414 690T347 672ZM347 758Q363 758 375 769T387 797Q387 815 375 826T347 838Q330 838 319 827T307 797Q307 781 318 770T347 758Z" />
<glyph unicode="&#xc6;" glyph-name="AE" horiz-adv-x="1092" d="M-12 0L476 700H1036V552H708V425H991V284H708V148H1036V0H536V141H282L185 0H-12ZM536 281V513L377 281H536Z" />
<glyph unicode="&#xc7;" glyph-name="Ccedilla" horiz-adv-x="696" d="M410 -10Q302 -10 220 36T90 165T43 353Q43 432 70 498T148 612T267 688T417 715Q491 715 560 687T677 604L567 479Q539 511 502 530T416 549Q363 549 321 525T253 457T227 351Q227 262 283
209T431 156Q477 156 517 175T585 224L672 87Q647 59 605 37T513 3T410 -10ZM300 -246L290 -168Q310 -168 332 -163T369 -150T385 -129Q385 -113 363 -106T317 -97L299 -83L367 24H453L407 -42Q459 -48 484 -75T510 -139Q510 -170 491 -191T440 -224T372 -242T300
-246Z" />
<glyph unicode="&#xc8;" glyph-name="Egrave" horiz-adv-x="650" d="M86 0V700H582V549H260V428H539V284H260V151H594V0H86ZM446 746L215 825L272 947L485 832L446 746Z" />
<glyph unicode="&#xc9;" glyph-name="Eacute" horiz-adv-x="650" d="M86 0V700H582V549H260V428H539V284H260V151H594V0H86ZM253 746L215 832L428 947L483 825L253 746Z" />
<glyph unicode="&#xca;" glyph-name="Ecircumflex" horiz-adv-x="650" d="M86 0V700H582V549H260V428H539V284H260V151H594V0H86ZM212 754L161 814L299 922H391L529 814L478 754L345 819L212 754Z" />
<glyph unicode="&#xcb;" glyph-name="Edieresis" horiz-adv-x="650" d="M86 0V700H582V549H260V428H539V284H260V151H594V0H86ZM469 753Q425 753 402 776T379 841Q379 879 403 904T469 930Q513 930 536 907T559 841Q559 804 535 779T469 753ZM220 753Q176 753
153 776T130 841Q130 879 153 904T220 930Q263 930 286 907T309 841Q309 804 286 779T220 753Z" />
<glyph unicode="&#xcc;" glyph-name="Igrave" horiz-adv-x="567" d="M74 0V150H194V550H74V700H493V550H374V150H493V0H74ZM385 746L154 825L211 947L424 832L385 746Z" />
<glyph unicode="&#xcd;" glyph-name="Iacute" horiz-adv-x="567" d="M74 0V150H194V550H74V700H493V550H374V150H493V0H74ZM192 746L154 832L367 947L422 825L192 746Z" />
<glyph unicode="&#xce;" glyph-name="Icircumflex" horiz-adv-x="567" d="M74 0V150H194V550H74V700H493V550H374V150H493V0H74ZM150 754L99 814L237 922H329L467 814L416 754L283 819L150 754Z" />
<glyph unicode="&#xcf;" glyph-name="Idieresis" horiz-adv-x="567" d="M74 0V150H194V550H74V700H493V550H374V150H493V0H74ZM408 753Q364 753 341 776T318 841Q318 879 342 904T408 930Q452 930 475 907T498 841Q498 804 474 779T408 753ZM159 753Q115 753 92
776T69 841Q69 879 92 904T159 930Q202 930 225 907T248 841Q248 804 225 779T159 753Z" />
<glyph unicode="&#xd0;" glyph-name="Eth" horiz-adv-x="776" d="M86 0V288H33V412H86V700H383Q486 700 565 656T688 532T733 350Q733 247 689 168T565 45T383 0H86ZM368 288H266V157H378Q456 157 503 210T551 350Q551 436 504 489T378 543H266V412H368V288Z" />
<glyph unicode="&#xd1;" glyph-name="Ntilde" horiz-adv-x="809" d="M86 0V700H247L562 270Q557 314 554 352T549 435T548 537V700H723V0H560L249 421Q254 377 256 347T260 289T261 224V0H86ZM482 768Q463 768 444 774T399 790Q381 799 369 803T346 807Q316 807
316 769H212Q212 837 248 876T342 915Q359 915 376 910T421 892Q438 884 448 880T468 876Q481 876 488 886T494 915H597Q597 874 583 841T543 788T482 768Z" />
<glyph unicode="&#xd2;" glyph-name="Ograve" horiz-adv-x="817" d="M408 -10Q329 -10 262 17T146 93T70 208T43 353Q43 432 70 498T146 614T262 690T408 717Q488 717 555 690T671 614T747 499T774 353Q774 275 747 209T671 93T555 17T408 -10ZM408 158Q461 158
502 183T567 253T591 353Q591 410 567 454T502 523T408 548Q355 548 314 523T250 454T226 353Q226 297 249 253T314 184T408 158ZM510 746L279 825L336 947L549 832L510 746Z" />
<glyph unicode="&#xd3;" glyph-name="Oacute" horiz-adv-x="817" d="M408 -10Q329 -10 262 17T146 93T70 208T43 353Q43 432 70 498T146 614T262 690T408 717Q488 717 555 690T671 614T747 499T774 353Q774 275 747 209T671 93T555 17T408 -10ZM408 158Q461 158
502 183T567 253T591 353Q591 410 567 454T502 523T408 548Q355 548 314 523T250 454T226 353Q226 297 249 253T314 184T408 158ZM317 746L279 832L492 947L547 825L317 746Z" />
<glyph unicode="&#xd4;" glyph-name="Ocircumflex" horiz-adv-x="817" d="M408 -10Q329 -10 262 17T146 93T70 208T43 353Q43 432 70 498T146 614T262 690T408 717Q488 717 555 690T671 614T747 499T774 353Q774 275 747 209T671 93T555 17T408 -10ZM408 158Q461
158 502 183T567 253T591 353Q591 410 567 454T502 523T408 548Q355 548 314 523T250 454T226 353Q226 297 249 253T314 184T408 158ZM275 754L224 814L362 922H454L592 814L541 754L408 819L275 754Z" />
<glyph unicode="&#xd5;" glyph-name="Otilde" horiz-adv-x="817" d="M408 -10Q329 -10 262 17T146 93T70 208T43 353Q43 432 70 498T146 614T262 690T408 717Q488 717 555 690T671 614T747 499T774 353Q774 275 747 209T671 93T555 17T408 -10ZM408 158Q461 158
502 183T567 253T591 353Q591 410 567 454T502 523T408 548Q355 548 314 523T250 454T226 353Q226 297 249 253T314 184T408 158ZM485 768Q466 768 447 774T402 790Q384 799 372 803T349 807Q319 807 319 769H215Q215 837 251 876T345 915Q362 915 379 910T424
892Q441 884 451 880T471 876Q484 876 491 886T497 915H600Q600 874 586 841T546 788T485 768Z" />
<glyph unicode="&#xd6;" glyph-name="Odieresis" horiz-adv-x="817" d="M408 -10Q329 -10 262 17T146 93T70 208T43 353Q43 432 70 498T146 614T262 690T408 717Q488 717 555 690T671 614T747 499T774 353Q774 275 747 209T671 93T555 17T408 -10ZM408 158Q461
158 502 183T567 253T591 353Q591 410 567 454T502 523T408 548Q355 548 314 523T250 454T226 353Q226 297 249 253T314 184T408 158ZM533 753Q489 753 466 776T443 841Q443 879 467 904T533 930Q577 930 600 907T623 841Q623 804 599 779T533 753ZM284 753Q240
753 217 776T194 841Q194 879 217 904T284 930Q327 930 350 907T373 841Q373 804 350 779T284 753Z" />
<glyph unicode="&#xd7;" glyph-name="multiply" horiz-adv-x="540" d="M139 46L40 149L170 279L38 411L140 511L271 380L401 511L501 409L371 279L502 149L400 49L271 178L139 46Z" />
<glyph unicode="&#xd8;" glyph-name="Oslash" horiz-adv-x="813" d="M142 -33L79 20L141 97Q95 145 69 210T42 353Q42 432 69 498T145 614T261 690T408 717Q464 717 513 704T605 664L668 741L736 694L670 614Q719 565 746 499T774 353Q774 275 747 209T671 93T555
17T408 -10Q351 -10 300 4T206 45L142 -33ZM226 353Q226 288 257 239L493 528Q455 548 408 548Q355 548 314 523T250 454T226 353ZM408 158Q461 158 502 183T566 253T590 353Q590 422 555 473L317 182Q358 158 408 158Z" />
<glyph unicode="&#xd9;" glyph-name="Ugrave" horiz-adv-x="769" d="M385 -6Q297 -6 229 29T122 127T83 269V700H264V278Q264 223 299 187T385 151Q438 151 474 187T510 278V700H687V269Q687 189 648 127T541 30T385 -6ZM486 746L255 825L312 947L525 832L486 746Z" />
<glyph unicode="&#xda;" glyph-name="Uacute" horiz-adv-x="769" d="M385 -6Q297 -6 229 29T122 127T83 269V700H264V278Q264 223 299 187T385 151Q438 151 474 187T510 278V700H687V269Q687 189 648 127T541 30T385 -6ZM293 746L255 832L468 947L523 825L293 746Z" />
<glyph unicode="&#xdb;" glyph-name="Ucircumflex" horiz-adv-x="769" d="M385 -6Q297 -6 229 29T122 127T83 269V700H264V278Q264 223 299 187T385 151Q438 151 474 187T510 278V700H687V269Q687 189 648 127T541 30T385 -6ZM251 754L200 814L338 922H430L568
814L517 754L384 819L251 754Z" />
<glyph unicode="&#xdc;" glyph-name="Udieresis" horiz-adv-x="769" d="M385 -6Q297 -6 229 29T122 127T83 269V700H264V278Q264 223 299 187T385 151Q438 151 474 187T510 278V700H687V269Q687 189 648 127T541 30T385 -6ZM509 753Q465 753 442 776T419 841Q419
879 443 904T509 930Q553 930 576 907T599 841Q599 804 575 779T509 753ZM260 753Q216 753 193 776T170 841Q170 879 193 904T260 930Q303 930 326 907T349 841Q349 804 326 779T260 753Z" />
<glyph unicode="&#xdd;" glyph-name="Yacute" horiz-adv-x="693" d="M266 0V310L-10 700H193L357 465L506 700H703L447 312V0H266ZM255 746L217 832L430 947L485 825L255 746Z" />
<glyph unicode="&#xde;" glyph-name="Thorn" horiz-adv-x="667" d="M86 0V700H266V591H391Q458 591 511 561T594 479T625 359Q625 290 595 236T511 151T391 119H266V0H86ZM266 276H364Q396 276 418 298T440 357Q440 393 418 413T364 434H266V276Z" />
<glyph unicode="&#xdf;" glyph-name="germandbls" horiz-adv-x="668" d="M24 358V502H100Q101 572 130 624T215 705T349 734Q412 734 463 714T544 656T574 564Q574 525 555 486T502 419Q568 389 607 334T647 203Q647 142 619 94T541 18T427 -10Q347 -10 298 38L363
157Q380 144 393 139T421 134Q450 134 467 152T484 204Q484 239 464 265T412 310T343 343V431Q382 449 399 469T416 518Q416 549 396 565T342 581Q305 581 287 558T268 497V0H100V358H24Z" />
<glyph unicode="&#xe0;" glyph-name="agrave" horiz-adv-x="664" d="M265 -9Q199 -9 147 26T64 124T33 267Q33 348 63 410T147 507T270 543Q322 543 361 523T426 471V532H593V0H422V61Q395 30 355 11T265 -9ZM313 132Q366 132 396 168T427 267Q427 328 397 364T313
401Q261 401 231 365T200 267Q200 205 230 169T313 132ZM392 587L182 700L257 808L442 663L392 587Z" />
<glyph unicode="&#xe1;" glyph-name="aacute" horiz-adv-x="664" d="M265 -9Q199 -9 147 26T64 124T33 267Q33 348 63 410T147 507T270 543Q322 543 361 523T426 471V532H593V0H422V61Q395 30 355 11T265 -9ZM313 132Q366 132 396 168T427 267Q427 328 397 364T313
401Q261 401 231 365T200 267Q200 205 230 169T313 132ZM252 586L202 663L387 807L462 699L252 586Z" />
<glyph unicode="&#xe2;" glyph-name="acircumflex" horiz-adv-x="664" d="M265 -9Q199 -9 147 26T64 124T33 267Q33 348 63 410T147 507T270 543Q322 543 361 523T426 471V532H593V0H422V61Q395 30 355 11T265 -9ZM313 132Q366 132 396 168T427 267Q427 328 397
364T313 401Q261 401 231 365T200 267Q200 205 230 169T313 132ZM195 600L135 652L284 785H380L529 652L469 600L332 680L195 600Z" />
<glyph unicode="&#xe3;" glyph-name="atilde" horiz-adv-x="664" d="M265 -9Q199 -9 147 26T64 124T33 267Q33 348 63 410T147 507T270 543Q322 543 361 523T426 471V532H593V0H422V61Q395 30 355 11T265 -9ZM313 132Q366 132 396 168T427 267Q427 328 397 364T313
401Q261 401 231 365T200 267Q200 205 230 169T313 132ZM403 614Q387 614 369 620T326 642Q308 656 298 661T279 666Q265 666 254 655T240 620L148 633Q148 690 179 730T264 771Q280 771 297 766T339 744Q352 735 364 728T387 720Q401 720 411 731T424 766L517
752Q516 716 502 685T463 634T403 614Z" />
<glyph unicode="&#xe4;" glyph-name="adieresis" horiz-adv-x="664" d="M265 -9Q199 -9 147 26T64 124T33 267Q33 348 63 410T147 507T270 543Q322 543 361 523T426 471V532H593V0H422V61Q395 30 355 11T265 -9ZM313 132Q366 132 396 168T427 267Q427 328 397
364T313 401Q261 401 231 365T200 267Q200 205 230 169T313 132ZM456 630Q413 630 390 653T366 719Q366 758 390 782T456 807Q499 807 522 784T546 719Q546 679 522 655T456 630ZM209 630Q166 630 143 653T119 719Q119 758 143 782T209 807Q252 807 275 784T298
719Q298 679 274 655T209 630Z" />
<glyph unicode="&#xe5;" glyph-name="aring" horiz-adv-x="664" d="M265 -9Q199 -9 147 26T64 124T33 267Q33 348 63 410T147 507T270 543Q322 543 361 523T426 471V532H593V0H422V61Q395 30 355 11T265 -9ZM313 132Q366 132 396 168T427 267Q427 328 397 364T313
401Q261 401 231 365T200 267Q200 205 230 169T313 132ZM332 604Q300 604 272 620T227 663T210 722Q210 755 226 782T271 825T332 841Q366 841 393 825T438 782T455 722Q455 690 438 664T393 621T332 604ZM332 688Q347 688 357 698T367 722Q367 737 357 747T332
758Q317 758 307 748T297 723Q297 708 307 698T332 688Z" />
<glyph unicode="&#xe6;" glyph-name="ae" horiz-adv-x="900" d="M214 -10Q162 -10 121 10T57 65T33 149Q33 230 93 271T272 312H354V329Q354 368 332 385T267 402Q228 402 201 388T151 341L52 438Q89 485 152 514T293 543Q347 543 389 530T458 488Q491 514 532
528T621 543Q695 542 752 507T840 411T871 272L870 224H515Q531 184 569 161T666 137Q701 137 728 146T786 179L858 66Q808 26 755 8T647 -10Q573 -10 516 15T420 83Q388 39 332 15T214 -10ZM624 402Q525 402 508 312H715V321Q714 357 689 379T624 402ZM258 111Q295
111 325 128T371 174Q363 198 360 224H279Q241 224 221 208T200 163Q200 141 216 126T258 111Z" />
<glyph unicode="&#xe7;" glyph-name="ccedilla" horiz-adv-x="547" d="M306 -10Q227 -10 166 26T69 124T33 266Q33 346 68 408T165 507T306 543Q377 543 437 519T532 450L440 340Q420 364 390 380T321 396Q267 396 233 360T199 267Q199 212 233 175T321 137Q359
137 388 151T440 192L531 81Q496 39 436 15T306 -10ZM206 -246L197 -168Q217 -168 239 -163T276 -150T291 -129Q291 -113 269 -106T223 -97L205 -83L274 24H359L313 -42Q366 -48 391 -75T416 -139Q416 -170 397 -191T346 -224T278 -242T206 -246Z" />
<glyph unicode="&#xe8;" glyph-name="egrave" horiz-adv-x="586" d="M325 -10Q236 -10 171 25T69 123T33 264Q33 346 68 408T164 507T303 543Q378 543 436 508T526 412T557 273L556 230H197Q210 187 247 162T344 137Q377 137 402 146T457 179L536 67Q486 26 433
8T325 -10ZM306 403Q215 403 195 321H401V322Q399 357 373 380T306 403ZM363 587L153 700L228 808L413 663L363 587Z" />
<glyph unicode="&#xe9;" glyph-name="eacute" horiz-adv-x="586" d="M325 -10Q236 -10 171 25T69 123T33 264Q33 346 68 408T164 507T303 543Q378 543 436 508T526 412T557 273L556 230H197Q210 187 247 162T344 137Q377 137 402 146T457 179L536 67Q486 26 433
8T325 -10ZM306 403Q215 403 195 321H401V322Q399 357 373 380T306 403ZM223 586L173 663L358 807L433 699L223 586Z" />
<glyph unicode="&#xea;" glyph-name="ecircumflex" horiz-adv-x="586" d="M325 -10Q236 -10 171 25T69 123T33 264Q33 346 68 408T164 507T303 543Q378 543 436 508T526 412T557 273L556 230H197Q210 187 247 162T344 137Q377 137 402 146T457 179L536 67Q486
26 433 8T325 -10ZM306 403Q215 403 195 321H401V322Q399 357 373 380T306 403ZM166 600L106 652L255 785H351L500 652L440 600L303 680L166 600Z" />
<glyph unicode="&#xeb;" glyph-name="edieresis" horiz-adv-x="586" d="M325 -10Q236 -10 171 25T69 123T33 264Q33 346 68 408T164 507T303 543Q378 543 436 508T526 412T557 273L556 230H197Q210 187 247 162T344 137Q377 137 402 146T457 179L536 67Q486 26
433 8T325 -10ZM306 403Q215 403 195 321H401V322Q399 357 373 380T306 403ZM427 630Q384 630 361 653T337 719Q337 758 361 782T427 807Q470 807 493 784T517 719Q517 679 493 655T427 630ZM180 630Q137 630 114 653T90 719Q90 758 114 782T180 807Q223 807 246
784T269 719Q269 679 245 655T180 630Z" />
<glyph unicode="&#xec;" glyph-name="igrave" horiz-adv-x="296" d="M64 0V532H234V0H64ZM465 587L255 700L330 808L515 663L465 587Z" />
<glyph unicode="&#xed;" glyph-name="iacute" horiz-adv-x="296" d="M64 0V532H234V0H64ZM325 586L275 663L460 807L535 699L325 586Z" />
<glyph unicode="&#xee;" glyph-name="icircumflex" horiz-adv-x="296" d="M64 0V532H234V0H64ZM268 600L208 652L357 785H453L602 652L542 600L405 680L268 600Z" />
<glyph unicode="&#xef;" glyph-name="idieresis" horiz-adv-x="296" d="M64 0V532H234V0H64ZM528 630Q485 630 462 653T438 719Q438 758 462 782T528 807Q571 807 594 784T618 719Q618 679 594 655T528 630ZM281 630Q238 630 215 653T191 719Q191 758 215 782T281
807Q324 807 347 784T370 719Q370 679 346 655T281 630Z" />
<glyph unicode="&#xf0;" glyph-name="eth" horiz-adv-x="601" d="M299 -7Q221 -7 161 28T67 122T33 255Q33 308 54 355T110 438T192 494T288 515Q322 515 352 505Q339 533 320 556L149 515L136 580L250 610Q216 628 169 642L218 747Q324 721 402 660L502 683L520
617L461 604Q512 544 539 465T567 289Q567 201 534 135T440 31T299 -7ZM300 136Q347 136 378 172T410 262Q410 314 379 349T300 385Q254 385 222 350T190 262Q190 208 222 172T300 136Z" />
<glyph unicode="&#xf1;" glyph-name="ntilde" horiz-adv-x="642" d="M71 0V532H230L234 470Q262 503 304 523T394 543Q484 543 531 488T579 327V0H409V313Q409 403 332 401Q292 401 266 377T240 318V0H71ZM422 614Q406 614 388 620T345 642Q327 656 317 661T298
666Q284 666 273 655T259 620L167 633Q167 690 198 730T283 771Q299 771 316 766T358 744Q371 735 383 728T406 720Q420 720 430 731T443 766L536 752Q535 716 521 685T482 634T422 614Z" />
<glyph unicode="&#xf2;" glyph-name="ograve" horiz-adv-x="645" d="M323 -10Q240 -10 175 26T71 124T33 266Q33 346 71 408T174 507T323 543Q406 543 471 507T574 409T612 266Q612 186 575 124T472 26T323 -10ZM323 135Q374 135 407 172T440 266Q440 324 407
361T323 399Q272 399 239 362T205 266Q205 209 238 172T323 135ZM383 587L173 700L248 808L433 663L383 587Z" />
<glyph unicode="&#xf3;" glyph-name="oacute" horiz-adv-x="645" d="M323 -10Q240 -10 175 26T71 124T33 266Q33 346 71 408T174 507T323 543Q406 543 471 507T574 409T612 266Q612 186 575 124T472 26T323 -10ZM323 135Q374 135 407 172T440 266Q440 324 407
361T323 399Q272 399 239 362T205 266Q205 209 238 172T323 135ZM243 586L193 663L378 807L453 699L243 586Z" />
<glyph unicode="&#xf4;" glyph-name="ocircumflex" horiz-adv-x="645" d="M323 -10Q240 -10 175 26T71 124T33 266Q33 346 71 408T174 507T323 543Q406 543 471 507T574 409T612 266Q612 186 575 124T472 26T323 -10ZM323 135Q374 135 407 172T440 266Q440 324
407 361T323 399Q272 399 239 362T205 266Q205 209 238 172T323 135ZM186 600L126 652L275 785H371L520 652L460 600L323 680L186 600Z" />
<glyph unicode="&#xf5;" glyph-name="otilde" horiz-adv-x="645" d="M323 -10Q240 -10 175 26T71 124T33 266Q33 346 71 408T174 507T323 543Q406 543 471 507T574 409T612 266Q612 186 575 124T472 26T323 -10ZM323 135Q374 135 407 172T440 266Q440 324 407
361T323 399Q272 399 239 362T205 266Q205 209 238 172T323 135ZM393 614Q377 614 359 620T316 642Q298 656 288 661T269 666Q255 666 244 655T230 620L138 633Q138 690 169 730T254 771Q270 771 287 766T329 744Q342 735 354 728T377 720Q391 720 401 731T414
766L507 752Q506 716 492 685T453 634T393 614Z" />
<glyph unicode="&#xf6;" glyph-name="odieresis" horiz-adv-x="645" d="M323 -10Q240 -10 175 26T71 124T33 266Q33 346 71 408T174 507T323 543Q406 543 471 507T574 409T612 266Q612 186 575 124T472 26T323 -10ZM323 135Q374 135 407 172T440 266Q440 324 407
361T323 399Q272 399 239 362T205 266Q205 209 238 172T323 135ZM446 630Q403 630 380 653T356 719Q356 758 380 782T446 807Q489 807 512 784T536 719Q536 679 512 655T446 630ZM199 630Q156 630 133 653T109 719Q109 758 133 782T199 807Q242 807 265 784T288
719Q288 679 264 655T199 630Z" />
<glyph unicode="&#xf7;" glyph-name="divide" horiz-adv-x="597" d="M297 383Q254 383 228 406T202 471Q202 509 228 534T297 559Q340 559 365 536T391 471Q391 433 365 408T297 383ZM42 197V334H556V197H42ZM297 -30Q254 -30 228 -6T202 59Q202 97 228 122T297
147Q340 147 365 124T391 59Q391 20 366 -5T297 -30Z" />
<glyph unicode="&#xf8;" glyph-name="oslash" horiz-adv-x="645" d="M122 -35L56 13L109 75Q73 111 53 160T33 266Q33 346 71 408T174 507T323 543Q365 543 402 534T473 506L520 562L587 513L538 456Q573 420 592 372T612 266Q612 186 575 124T472 26T323 -10Q241
-10 174 26L122 -35ZM205 266Q205 232 218 204L373 388Q350 399 323 399Q272 399 239 362T205 266ZM323 135Q374 135 407 172T440 266Q440 299 429 327L275 145Q297 135 323 135Z" />
<glyph unicode="&#xf9;" glyph-name="ugrave" horiz-adv-x="648" d="M251 -11Q163 -11 114 45T64 204V532H234V224Q234 179 255 154T317 129Q356 129 381 153T406 214V532H576V0H417L412 66Q386 31 343 10T251 -11ZM384 587L174 700L249 808L434 663L384 587Z" />
<glyph unicode="&#xfa;" glyph-name="uacute" horiz-adv-x="648" d="M251 -11Q163 -11 114 45T64 204V532H234V224Q234 179 255 154T317 129Q356 129 381 153T406 214V532H576V0H417L412 66Q386 31 343 10T251 -11ZM244 586L194 663L379 807L454 699L244 586Z" />
<glyph unicode="&#xfb;" glyph-name="ucircumflex" horiz-adv-x="648" d="M251 -11Q163 -11 114 45T64 204V532H234V224Q234 179 255 154T317 129Q356 129 381 153T406 214V532H576V0H417L412 66Q386 31 343 10T251 -11ZM187 600L127 652L276 785H372L521 652L461
600L324 680L187 600Z" />
<glyph unicode="&#xfc;" glyph-name="udieresis" horiz-adv-x="648" d="M251 -11Q163 -11 114 45T64 204V532H234V224Q234 179 255 154T317 129Q356 129 381 153T406 214V532H576V0H417L412 66Q386 31 343 10T251 -11ZM448 630Q405 630 382 653T358 719Q358 758
382 782T448 807Q491 807 514 784T538 719Q538 679 514 655T448 630ZM201 630Q158 630 135 653T111 719Q111 758 135 782T201 807Q244 807 267 784T290 719Q290 679 266 655T201 630Z" />
<glyph unicode="&#xfd;" glyph-name="yacute" horiz-adv-x="626" d="M134 -230L241 20L5 532H196L300 284Q313 253 322 222Q326 232 329 243T338 267L430 532H621L394 0L302 -230H134ZM234 586L184 663L369 807L444 699L234 586Z" />
<glyph unicode="&#xfe;" glyph-name="thorn" horiz-adv-x="663" d="M71 -220V740H241V484Q268 510 309 526T396 542Q464 542 516 507T599 410T630 266Q630 187 600 125T516 27T394 -9Q349 -9 309 7T241 51V-220H71ZM351 133Q402 133 433 169T464 266Q464 328 434
364T351 400Q298 400 267 364T236 266Q236 205 267 169T351 133Z" />
<glyph unicode="&#xff;" glyph-name="ydieresis" horiz-adv-x="626" d="M134 -230L241 20L5 532H196L300 284Q313 253 322 222Q326 232 329 243T338 267L430 532H621L394 0L302 -230H134ZM437 630Q394 630 371 653T347 719Q347 758 371 782T437 807Q480 807 503
784T527 719Q527 679 503 655T437 630ZM190 630Q147 630 124 653T100 719Q100 758 124 782T190 807Q233 807 256 784T279 719Q279 679 255 655T190 630Z" />
<glyph unicode="&#x2013;" glyph-name="endash" horiz-adv-x="608" d="M58 217V360H550V217H58Z" />
<glyph unicode="&#x2014;" glyph-name="emdash" horiz-adv-x="944" d="M58 217V360H886V217H58Z" />
<glyph unicode="&#x2018;" glyph-name="quoteleft" horiz-adv-x="282" d="M148 424Q102 424 71 459T40 552Q40 595 61 636T121 708T208 753L255 695Q213 677 187 651T161 604Q161 582 190 563Q214 547 223 531T233 494Q233 462 209 443T148 424Z" />
<glyph unicode="&#x2019;" glyph-name="quoteright" horiz-adv-x="282" d="M74 422L27 480Q69 497 94 524T120 570Q120 592 91 611Q68 628 59 644T49 681Q49 713 72 731T133 750Q179 750 210 715T242 623Q242 579 220 538T161 466T74 422Z" />
<glyph unicode="&#x201a;" glyph-name="quotesinglbase" horiz-adv-x="295" d="M91 -203L44 -145Q85 -127 109 -99T134 -51Q134 -42 130 -32T107 -9Q83 8 75 25T66 63Q66 95 89 113T150 132Q195 132 225 97T255 5Q255 -40 234 -82T176 -157T91 -203Z" />
<glyph unicode="&#x201c;" glyph-name="quotedblleft" horiz-adv-x="515" d="M148 675Q102 675 71 710T40 803Q40 846 61 887T121 959T208 1004L255 946Q213 928 187 902T161 855Q161 833 190 814Q214 798 223 782T233 745Q233 713 209 694T148 675ZM382 419Q336
419 305 454T274 547Q274 590 295 631T355 703T442 748L489 690Q447 672 421 646T395 599Q395 577 424 558Q448 542 457 526T467 489Q467 457 443 438T382 419Z" />
<glyph unicode="&#x201d;" glyph-name="quotedblright" horiz-adv-x="515" d="M74 422L27 480Q69 497 94 524T120 570Q120 592 91 611Q68 628 59 644T49 681Q49 713 72 731T133 750Q179 750 210 715T242 623Q242 579 220 538T161 466T74 422ZM307 422L260 480Q302
497 327 524T353 570Q353 592 324 611Q301 628 292 644T282 681Q282 713 305 731T366 750Q412 750 443 715T475 623Q475 579 453 538T394 466T307 422Z" />
<glyph unicode="&#x201e;" glyph-name="quotedblbase" horiz-adv-x="512" d="M335 -203L288 -145Q329 -127 353 -99T378 -51Q378 -42 374 -32T351 -9Q327 8 319 25T310 63Q310 95 333 113T394 132Q439 132 469 97T499 5Q499 -40 478 -82T420 -157T335 -203ZM304
-203L257 -145Q298 -127 322 -99T347 -51Q347 -42 343 -32T320 -9Q296 8 288 25T279 63Q279 95 302 113T363 132Q408 132 438 97T468 5Q468 -40 447 -82T389 -157T304 -203Z" />
<glyph unicode="&#x2022;" glyph-name="bullet" horiz-adv-x="346" d="M173 216Q136 216 105 234T56 283T37 351Q37 389 55 420T104 469T173 488Q211 488 242 470T291 420T310 351Q310 314 292 283T242 234T173 216Z" />
<glyph unicode="&#x2039;" glyph-name="guilsinglleft" horiz-adv-x="322" d="M189 23L10 251V266L188 496L285 429L174 259L285 89L189 23Z" />
<glyph unicode="&#x203a;" glyph-name="guilsinglright" horiz-adv-x="322" d="M133 25L37 92L148 262L37 432L133 498L311 270V255L133 25Z" />
</font>
</defs>
</svg>
