<?xml version="1.0" standalone="no"?>
<!DOCTYPE svg PUBLIC "-//W3C//DTD SVG 1.1//EN" "http://www.w3.org/Graphics/SVG/1.1/DTD/svg11.dtd">
<svg xmlns="http://www.w3.org/2000/svg">
<defs >
<font id="Lexend" horiz-adv-x="587" ><font-face
    font-family="Lexend Medium"
    units-per-em="1000"
    panose-1="0 0 0 0 0 0 0 0 0 0"
    ascent="1000"
    descent="-250"
    alphabetic="0" />
<glyph unicode=" " glyph-name="space" horiz-adv-x="280" />
<glyph unicode="!" glyph-name="exclam" horiz-adv-x="236" d="M87 241Q76 335 70 438T63 630V700H171V630Q171 568 168 500T160 366T147 241H87ZM114 -11Q81 -11 63 8T45 64Q45 97 64 118T114 139Q147 139 165 120T183 64Q183 31 164 10T114 -11Z" />
<glyph unicode="&quot;" glyph-name="quotedbl" horiz-adv-x="412" d="M245 442L269 700H385L305 442H245ZM37 442L60 700H178L97 442H37Z" />
<glyph unicode="#" glyph-name="numbersign" horiz-adv-x="678" d="M101 0L131 173H31V256H145L179 453H69V536H193L221 700H311L283 536H459L487 700H577L549 536H647V453H535L501 256H610V173H487L457 0H367L397 173H221L191 0H101ZM235 256H411L445 453H269L235 256Z" />
<glyph unicode="$" glyph-name="dollar" horiz-adv-x="624" d="M254 -91V-5Q127 15 50 126L124 211Q188 119 254 97V312Q85 361 85 514Q85 566 112 608T186 676T294 708V782H391V704Q507 683 563 587L487 512Q448 576 391 600V391Q476 364 522 318T569 208Q569
116 511 59T351 -8V-91H254ZM193 517Q193 480 216 456T294 415V611Q248 605 221 580T193 517ZM461 180Q461 218 435 245T351 289V89Q398 94 429 119T461 180Z" />
<glyph unicode="%" glyph-name="percent" horiz-adv-x="839" d="M193 329Q148 329 114 353T60 420T40 518Q40 573 59 616T114 684T194 709Q239 709 273 685T327 617T347 518Q347 465 327 422T272 354T193 329ZM129 0L592 700H695L227 0H129ZM194 404Q226 404 244
434T263 518Q263 571 245 602T193 633Q161 633 142 602T123 518Q123 466 142 435T194 404ZM636 -9Q591 -9 557 16T502 83T482 180Q482 235 501 278T556 346T636 371Q681 371 715 347T769 279T789 180Q789 127 769 84T715 16T636 -9ZM636 65Q668 65 687 96T706 180Q706
232 687 263T636 295Q603 295 584 264T565 180Q565 128 584 97T636 65Z" />
<glyph unicode="&amp;" glyph-name="ampersand" horiz-adv-x="739" d="M306 -10Q235 -10 177 20T85 101T50 212Q50 287 89 342T203 431Q187 458 178 483T168 532Q168 583 194 623T267 687T375 710Q442 710 495 674T568 579L490 529Q471 575 444 596T375 617Q280
617 280 535Q280 513 292 487T324 433T363 383T398 343L517 211Q544 263 554 329H646Q631 221 580 141L709 0H575L514 65Q472 29 420 10T306 -10ZM159 227Q159 164 203 125T326 85Q398 85 454 131L295 308Q274 331 257 353Q159 322 159 227Z" />
<glyph unicode="&apos;" glyph-name="quotesingle" horiz-adv-x="205" d="M37 442L60 700H178L97 442H37Z" />
<glyph unicode="(" glyph-name="parenleft" horiz-adv-x="366" d="M290 -186Q168 -110 104 4T40 258Q40 397 104 511T291 702L346 640Q244 569 191 471T137 258Q137 144 190 46T346 -124L290 -186Z" />
<glyph unicode=")" glyph-name="parenright" horiz-adv-x="363" d="M73 -186L18 -124Q120 -53 173 45T227 258Q227 372 174 470T18 640L74 702Q196 626 260 512T324 258Q324 119 260 5T73 -186Z" />
<glyph unicode="*" glyph-name="asterisk" horiz-adv-x="387" d="M159 376L167 487L69 421L32 486L138 537L30 589L68 653L167 586L159 700H234L226 587L320 651L357 586L255 536L356 487L319 423L226 485L234 376H159Z" />
<glyph unicode="+" glyph-name="plus" horiz-adv-x="591" d="M45 235V325H242V525H347V325H546V235H347V42H242V235H45Z" />
<glyph unicode="," glyph-name="comma" horiz-adv-x="267" d="M88 -179L50 -133Q85 -113 107 -87T129 -42Q129 -32 124 -23T103 4Q83 23 77 36T71 64Q71 88 88 102T132 117Q170 117 195 86T221 4Q221 -35 204 -71T156 -136T88 -179Z" />
<glyph unicode="-" glyph-name="hyphen" horiz-adv-x="394" d="M53 235V337H341V235H53Z" />
<glyph unicode="." glyph-name="period" horiz-adv-x="228" d="M114 -11Q81 -11 63 8T45 64Q45 97 64 118T114 139Q147 139 165 120T183 64Q183 31 164 10T114 -11Z" />
<glyph unicode="/" glyph-name="slash" horiz-adv-x="557" d="M18 -132L430 700H529L118 -132H18Z" />
<glyph unicode="0" glyph-name="zero" horiz-adv-x="607" d="M303 -10Q223 -10 166 34T77 158T46 350Q46 461 77 541T165 666T303 710Q383 710 441 666T530 542T561 350Q561 239 530 159T441 34T303 -10ZM303 88Q376 88 416 156T456 350Q456 475 416 543T303 612Q230
612 190 544T150 350Q150 225 190 157T303 88Z" />
<glyph unicode="1" glyph-name="one" horiz-adv-x="500" d="M106 0V104H217V569L116 516L87 610L274 710H326V104H440V0H106Z" />
<glyph unicode="2" glyph-name="two" horiz-adv-x="548" d="M93 0L60 82L274 323Q296 348 321 380T365 446T383 509Q383 557 355 583T278 610Q235 610 194 573T134 473L51 525Q76 612 140 661T291 710Q350 710 396 686T468 618T494 517Q494 459 461 395T351 247L220
104H516V0H93Z" />
<glyph unicode="3" glyph-name="three" horiz-adv-x="529" d="M251 -10Q177 -10 123 24T20 138L104 191Q141 135 178 110T259 85Q294 85 324 102T372 151T390 221Q390 280 359 312T271 344Q224 344 150 314L120 393L308 600H59V700H460L480 660L284 443Q343 443
390 414T466 336T494 227Q494 159 462 106T374 21T251 -10Z" />
<glyph unicode="4" glyph-name="four" horiz-adv-x="620" d="M352 0V190H76L30 280L373 700H456V289H578V190H456V0H352ZM157 289H352V527L157 289Z" />
<glyph unicode="5" glyph-name="five" horiz-adv-x="568" d="M257 -7Q188 -7 132 24T39 115L99 182Q146 130 181 111T257 92Q298 92 331 110T383 159T403 228Q403 268 385 299T335 349T265 368Q246 368 229 366T188 354T125 326L68 403L109 700H487V600H195L172
445Q195 455 226 461T284 468Q348 468 398 439T478 357T508 238Q508 169 475 114T385 26T257 -7Z" />
<glyph unicode="6" glyph-name="six" horiz-adv-x="557" d="M283 0Q214 0 159 32T72 120T40 247Q40 301 70 381T159 558L250 712H355L359 702L249 517Q235 494 223 471Q263 489 308 489Q366 489 414 458T492 374T522 260Q522 185 492 127T407 34T283 0ZM283 100Q341
100 379 141T418 247Q418 284 400 316T352 369T285 389Q244 389 212 370T162 319T144 248Q144 206 162 173T211 120T283 100Z" />
<glyph unicode="7" glyph-name="seven" horiz-adv-x="542" d="M112 0L387 600H60V700H493L507 631L228 0H112Z" />
<glyph unicode="8" glyph-name="eight" horiz-adv-x="579" d="M289 -3Q224 -3 171 24T85 98T53 200Q53 312 163 373Q119 394 95 429T70 509Q70 562 99 605T178 674T289 700Q350 700 399 674T478 605T508 509Q508 418 412 372Q464 345 495 299T526 200Q526 143
494 97T409 24T289 -3ZM289 414Q337 414 369 440T401 506Q401 546 369 573T289 600Q241 600 209 573T177 506Q177 466 209 440T289 414ZM289 97Q345 97 382 127T419 204Q419 253 382 285T289 318Q234 318 197 286T160 204Q160 159 197 128T289 97Z" />
<glyph unicode="9" glyph-name="nine" horiz-adv-x="551" d="M228 0L224 10L350 277Q298 243 241 243Q184 243 136 273T59 353T30 462Q30 533 62 589T149 679T274 712Q341 712 396 681T483 596T516 478Q516 445 507 405T476 309T417 174L334 0H228ZM264 343Q303
343 334 360T382 407T400 474Q400 533 363 572T266 612Q212 612 177 574T141 475Q141 440 157 410T202 362T264 343Z" />
<glyph unicode=":" glyph-name="colon" horiz-adv-x="268" d="M134 -10Q101 -10 83 9T65 65Q65 98 84 119T134 140Q167 140 185 121T203 65Q203 32 184 11T134 -10ZM134 385Q101 385 83 404T65 460Q65 493 84 514T134 535Q167 535 185 516T203 460Q203 427 184
406T134 385Z" />
<glyph unicode=";" glyph-name="semicolon" horiz-adv-x="257" d="M337 -179L299 -133Q334 -113 356 -87T378 -42Q378 -32 373 -23T352 4Q332 23 326 36T320 64Q320 88 337 102T381 117Q419 117 444 86T470 4Q470 -35 453 -71T405 -136T337 -179ZM130 385Q97 385
79 404T61 460Q61 493 80 514T130 535Q163 535 181 516T199 460Q199 427 180 406T130 385Z" />
<glyph unicode="&lt;" glyph-name="less" horiz-adv-x="524" d="M411 4L50 211V292L411 499L459 424L158 252L459 79L411 4Z" />
<glyph unicode="=" glyph-name="equal" horiz-adv-x="566" d="M50 331V421H516V331H50ZM50 142V231H516V142H50Z" />
<glyph unicode="&gt;" glyph-name="greater" horiz-adv-x="524" d="M113 4L65 79L366 252L65 424L113 499L474 292V211L113 4Z" />
<glyph unicode="?" glyph-name="question" horiz-adv-x="511" d="M193 211L167 352Q265 378 311 416T358 511Q358 555 324 583T239 612Q199 612 162 585T97 507L22 570Q65 636 124 672T249 709Q312 709 362 683T441 612T471 511Q471 467 447 426T382 353T287 301L270
211H193ZM158 64Q158 97 177 118T227 139Q260 139 278 120T296 64Q296 31 277 10T227 -11Q194 -11 176 8T158 64Z" />
<glyph unicode="@" glyph-name="at" horiz-adv-x="965" d="M414 -162Q297 -162 214 -116T85 13T40 206Q40 323 81 416T196 575T367 675T576 710Q682 710 760 671T882 560T925 396Q925 328 906 267T851 158T770 83T669 55Q619 55 586 80T551 149Q498 55 400 55Q357
55 324 78T271 142T252 237Q252 284 269 332T318 420T394 485T491 510Q528 510 555 489T596 431L607 501H708L657 193Q653 165 667 151T700 137Q740 137 772 172T823 264T842 391Q842 503 771 566T572 630Q435 630 335 580T179 435T124 209Q124 72 200 -5T417 -82Q464
-82 498 -76T563 -56T632 -22L669 -89Q610 -119 568 -134T490 -156T414 -162ZM423 140Q457 140 488 161T542 216T570 286Q573 304 575 317T577 342Q577 381 555 403T495 425Q456 425 424 397T373 324T354 232Q354 189 372 165T423 140Z" />
<glyph unicode="A" glyph-name="A" horiz-adv-x="700" d="M25 0L296 700H406L675 0H560L494 174H201L135 0H25ZM294 418L241 278H455L400 422Q397 429 388 457T368 519T348 579Q340 553 330 522T311 463T294 418Z" />
<glyph unicode="B" glyph-name="B" horiz-adv-x="681" d="M98 0V700H390Q491 700 543 655T596 524Q596 475 573 439T508 383Q565 362 599 317T633 206Q633 106 572 53T400 0H98ZM206 410H384Q429 410 458 436T488 503Q488 548 458 572T372 596H206V410ZM206 104H394Q455
104 489 131T523 208Q523 255 487 280T389 306H206V104Z" />
<glyph unicode="C" glyph-name="C" horiz-adv-x="679" d="M382 -10Q285 -10 210 36T91 163T48 350Q48 425 74 489T148 603T257 679T391 706Q442 706 490 691T578 648T643 585L571 510Q485 598 391 598Q326 598 273 566T189 478T158 350Q158 273 188 217T273 130T400
99Q450 99 496 119T576 174L630 86Q607 59 568 37T480 3T382 -10Z" />
<glyph unicode="D" glyph-name="D" horiz-adv-x="748" d="M98 0V700H372Q472 700 545 656T659 533T700 350Q700 245 660 167T547 44T372 0H98ZM367 596H206V104H367Q473 104 531 169T590 350Q590 464 531 530T367 596Z" />
<glyph unicode="E" glyph-name="E" horiz-adv-x="614" d="M98 0V700H539V596H206V411H484V307H206V104H539V0H98Z" />
<glyph unicode="F" glyph-name="F" horiz-adv-x="602" d="M98 0V700H552V596H206V402H507V298H206V0H98Z" />
<glyph unicode="G" glyph-name="G" horiz-adv-x="766" d="M411 -10Q335 -10 269 17T153 94T76 208T48 350Q48 425 75 490T152 603T268 679T410 706Q463 706 513 691T605 649T672 587L602 514Q511 601 410 601Q339 601 282 568T192 478T158 350Q158 298 178 252T233
170T315 115T414 95Q467 95 510 115T580 169T607 246V252H408V359H718Q721 342 722 328T723 299Q723 207 682 138T569 29T411 -10Z" />
<glyph unicode="H" glyph-name="H" horiz-adv-x="761" d="M98 0V700H206V401H555V700H663V0H555V297H206V0H98Z" />
<glyph unicode="I" glyph-name="I" horiz-adv-x="478" d="M72 0V100H185V600H72V700H406V600H293V100H406V0H72Z" />
<glyph unicode="J" glyph-name="J" horiz-adv-x="642" d="M256 -10Q188 -10 134 25T50 117L118 188Q147 149 168 129T210 102T256 95Q310 95 343 131T376 223V600H248V700H592V600H484V213Q484 150 455 100T375 20T256 -10Z" />
<glyph unicode="K" glyph-name="K" horiz-adv-x="732" d="M98 0V700H206V357L549 700H691L389 407L697 0H562L313 333L206 229V0H98Z" />
<glyph unicode="L" glyph-name="L" horiz-adv-x="599" d="M98 0V700H206V104H534V0H98Z" />
<glyph unicode="M" glyph-name="M" horiz-adv-x="864" d="M98 0V700H204L433 327L666 700H766V0H658V287Q658 354 660 410T668 519L463 201H397L196 518Q201 468 203 413T206 287V0H98Z" />
<glyph unicode="N" glyph-name="N" horiz-adv-x="793" d="M98 0V700H195L602 155Q594 216 591 296T587 470V700H695V0H596L189 534Q196 447 200 400T205 329T206 291V0H98Z" />
<glyph unicode="O" glyph-name="O" horiz-adv-x="782" d="M391 -10Q317 -10 255 17T146 92T74 206T48 350Q48 428 73 493T145 607T254 683T391 710Q465 710 527 683T636 607T708 493T734 350Q734 273 709 208T637 93T528 17T391 -10ZM391 95Q458 95 511 128T594
219T624 350Q624 423 594 481T511 572T391 605Q323 605 271 572T188 482T158 350Q158 276 188 219T270 128T391 95Z" />
<glyph unicode="P" glyph-name="P" horiz-adv-x="634" d="M98 0V700H383Q440 700 486 672T561 594T589 485Q589 425 561 376T487 298T383 268H206V0H98ZM206 372H381Q408 372 430 387T465 428T479 485Q479 531 450 563T381 596H206V372Z" />
<glyph unicode="Q" glyph-name="Q" horiz-adv-x="782" d="M391 -10Q317 -10 255 17T146 92T74 206T48 350Q48 428 73 493T145 607T254 683T391 710Q465 710 527 683T636 607T708 493T734 350Q734 263 701 190T610 68L699 -48L613 -110L519 14Q458 -10 391 -10ZM391
95Q422 95 451 103L348 237L437 296L545 154Q582 189 603 239T624 350Q624 423 594 481T511 572T391 605Q323 605 271 572T188 482T158 350Q158 276 188 219T270 128T391 95Z" />
<glyph unicode="R" glyph-name="R" horiz-adv-x="695" d="M98 0V700H396Q456 700 506 671T587 591T617 477Q617 413 579 359T482 280L645 -1L514 0L366 263H206V0H98ZM206 367H406Q450 367 478 399T507 478Q507 530 471 563T378 596H206V367Z" />
<glyph unicode="S" glyph-name="S" horiz-adv-x="624" d="M314 -10Q144 -10 50 126L124 211Q173 141 218 114T325 87Q382 87 421 113T461 180Q461 226 422 255T299 301Q85 343 85 514Q85 571 117 615T203 684T326 710Q491 710 563 587L487 512Q457 561 416 587T323
613Q265 613 229 587T193 517Q193 474 225 448T337 405Q447 382 508 331T569 208Q569 108 501 49T314 -10Z" />
<glyph unicode="T" glyph-name="T" horiz-adv-x="576" d="M231 0V596H35V700H541V596H339V0H231Z" />
<glyph unicode="U" glyph-name="U" horiz-adv-x="740" d="M370 -6Q289 -6 225 29T125 127T88 269V701H196V278Q196 227 220 187T283 122T370 98Q420 98 460 122T525 186T549 278V701H652V269Q652 190 616 128T515 30T370 -6Z" />
<glyph unicode="V" glyph-name="V" horiz-adv-x="715" d="M304 0L24 700H147L314 275Q331 231 343 199T363 141Q372 168 383 200T410 275L565 700H691L409 0H304Z" />
<glyph unicode="W" glyph-name="W" horiz-adv-x="996" d="M247 0L24 700H139L274 262Q280 244 285 219T296 170Q308 213 314 232T325 263L451 579H548L670 263Q679 240 686 219T699 175Q701 187 703 196T709 221T723 265L856 700H972L749 0H674L494 425L320 0H247Z" />
<glyph unicode="X" glyph-name="X" horiz-adv-x="685" d="M24 0L275 358L29 700H166L349 433L524 700H651L409 347L661 0H524L337 271L151 0H24Z" />
<glyph unicode="Y" glyph-name="Y" horiz-adv-x="660" d="M286 0V310L10 700H140L342 410L526 700H650L394 312V0H286Z" />
<glyph unicode="Z" glyph-name="Z" horiz-adv-x="659" d="M60 0V79L446 596H86V700H593V622L209 104H604V0H60Z" />
<glyph unicode="[" glyph-name="bracketleft" horiz-adv-x="403" d="M80 -190V700H337V621H173V-111H337V-190H80Z" />
<glyph unicode="\" glyph-name="backslash" horiz-adv-x="557" d="M446 -107L48 700H147L547 -107H446Z" />
<glyph unicode="]" glyph-name="bracketright" horiz-adv-x="403" d="M66 -190V-111H230V621H66V700H323V-190H66Z" />
<glyph unicode="^" glyph-name="asciicircum" horiz-adv-x="579" d="M29 368L240 727H340L551 368H436L290 618L142 368H29Z" />
<glyph unicode="_" glyph-name="underscore" horiz-adv-x="690" d="M53 -160V-82H637V-160H53Z" />
<glyph unicode="`" glyph-name="grave" horiz-adv-x="500" d="M320 606L146 700L211 782L354 657L320 606Z" />
<glyph unicode="a" glyph-name="a" horiz-adv-x="633" d="M274 -10Q209 -10 156 26T70 124T38 264Q38 343 70 404T158 501T283 536Q342 536 387 511T457 445V525H561V0H457V81Q430 43 381 17T274 -10ZM301 85Q348 85 384 108T440 171T461 264Q461 315 441 355T384
418T301 441Q255 441 220 418T164 355T143 264Q143 212 163 172T219 108T301 85Z" />
<glyph unicode="b" glyph-name="b" horiz-adv-x="630" d="M348 -10Q297 -10 250 13T175 69V3H72V740H175V450Q199 485 246 510T345 536Q416 536 471 501T558 405T590 264Q590 185 559 123T472 26T348 -10ZM331 84Q377 84 413 107T470 171T491 264Q491 315 471
355T414 419T331 442Q284 442 248 419T191 356T170 264Q170 212 191 172T248 108T331 84Z" />
<glyph unicode="c" glyph-name="c" horiz-adv-x="535" d="M295 -10Q222 -10 165 26T74 124T40 263Q40 340 73 402T164 500T295 536Q365 536 422 508T510 430L453 360Q429 395 387 419T305 443Q257 443 220 420T160 355T138 263Q138 212 161 172T222 107T306 83Q387
83 453 163L510 93Q478 48 419 19T295 -10Z" />
<glyph unicode="d" glyph-name="d" horiz-adv-x="634" d="M291 -10Q219 -10 163 25T73 122T40 263Q40 342 72 403T161 500T288 536Q340 536 386 514T461 460V740H564V0H461V72Q437 38 390 14T291 -10ZM305 79Q352 79 388 103T444 168T465 263Q465 316 445 357T388
423T305 447Q258 447 222 423T166 358T145 263Q145 210 165 169T222 103T305 79Z" />
<glyph unicode="e" glyph-name="e" horiz-adv-x="586" d="M317 -10Q236 -10 174 24T76 119T40 257Q40 340 74 402T169 500T308 537Q376 536 430 503T516 413T546 282L545 238H143Q152 167 201 126T327 84Q366 84 399 97T472 144L524 71Q487 35 430 13T317 -10ZM308
442Q173 442 147 320H441V327Q438 360 419 386T371 427T308 442Z" />
<glyph unicode="f" glyph-name="f" horiz-adv-x="393" d="M129 0V421H45V516H129V584Q129 652 172 695T285 739Q317 739 345 727T390 695L355 616Q342 628 327 635T297 643Q233 643 233 584V516H357V421H233V0H129Z" />
<glyph unicode="g" glyph-name="g" horiz-adv-x="649" d="M307 -230Q251 -230 196 -213T106 -167L144 -87Q174 -110 218 -124T307 -138Q474 -138 474 20V83Q460 58 433 37T371 3T300 -10Q225 -10 167 25T74 122T40 263Q40 342 73 403T165 500T297 536Q352 536
400 511T474 454V525H577V32Q577 -93 505 -161T307 -230ZM311 85Q360 85 398 108T457 171T478 263Q478 315 457 355T398 419T311 442Q263 442 226 419T167 355T145 263Q145 212 166 172T225 108T311 85Z" />
<glyph unicode="h" glyph-name="h" horiz-adv-x="595" d="M72 0V740H175V443Q201 482 248 509T347 536Q527 536 527 320V0H424V313Q424 448 313 442Q274 442 243 426T193 381T175 318V0H72Z" />
<glyph unicode="i" glyph-name="i" horiz-adv-x="278" d="M141 641Q108 641 90 658T72 706Q72 735 90 753T141 771Q174 771 192 754T210 706Q210 677 192 659T141 641ZM91 0V525H194V0H91Z" />
<glyph unicode="j" glyph-name="j" horiz-adv-x="265" d="M140 641Q107 641 89 658T71 706Q71 735 89 753T140 771Q173 771 191 754T209 706Q209 677 191 659T140 641ZM9 -197L-30 -118Q86 -118 86 1V525H189V-24Q189 -101 139 -149T9 -197Z" />
<glyph unicode="k" glyph-name="k" horiz-adv-x="570" d="M74 0V740H177V290L414 525H553L307 294L560 0H428L234 226L177 172V0H74Z" />
<glyph unicode="l" glyph-name="l" horiz-adv-x="251" d="M74 0V740H177V0H74Z" />
<glyph unicode="m" glyph-name="m" horiz-adv-x="921" d="M70 0V525H174V442Q199 480 244 507T339 534Q462 534 499 424Q514 454 543 479T608 519T680 534Q855 534 855 315V0H751V309Q751 376 726 407T646 439Q589 439 551 403T513 314V0H409V311Q409 373 383
406T306 439Q269 439 239 423T192 379T174 316V0H70Z" />
<glyph unicode="n" glyph-name="n" horiz-adv-x="595" d="M72 0V525H175V443Q201 482 248 509T347 536Q527 536 527 320V0H424V313Q424 448 313 442Q274 442 243 426T193 381T175 318V0H72Z" />
<glyph unicode="o" glyph-name="o" horiz-adv-x="615" d="M308 -10Q231 -10 171 25T75 122T40 263Q40 342 75 403T170 500T308 536Q384 536 444 501T540 404T575 263Q575 184 540 123T445 26T308 -10ZM308 84Q355 84 392 107T450 171T470 263Q471 315 450 355T392
419T308 442Q261 442 224 419T165 355T145 263Q144 212 165 172T223 108T308 84Z" />
<glyph unicode="p" glyph-name="p" horiz-adv-x="631" d="M72 -220V525H176V450Q200 484 247 509T346 534Q417 534 472 499T559 403T591 263Q591 185 560 124T473 27T349 -9Q298 -9 251 14T176 69V-220H72ZM332 86Q378 86 414 109T471 172T492 263Q492 314 472
353T415 416T332 439Q285 439 249 417T192 354T171 263Q171 212 192 172T249 109T332 86Z" />
<glyph unicode="q" glyph-name="q" horiz-adv-x="630" d="M455 -220V72Q430 39 384 15T288 -10Q217 -10 161 25T73 122T40 263Q40 342 72 403T159 500T285 536Q336 536 382 514T455 460V526H558V-220H455ZM299 85Q346 85 382 108T438 171T459 263Q459 315 439
355T382 419T299 442Q252 442 216 419T160 355T139 263Q139 212 159 172T216 108T299 85Z" />
<glyph unicode="r" glyph-name="r" horiz-adv-x="403" d="M72 0V525H176V426Q199 473 243 504T336 536Q353 536 368 533T393 526L366 414Q354 419 340 422T311 426Q275 426 245 408T195 359T176 290V0H72Z" />
<glyph unicode="s" glyph-name="s" horiz-adv-x="479" d="M247 -10Q181 -10 128 13T40 81L110 141Q140 106 175 91T256 75Q293 75 316 93T340 142Q340 168 321 184Q302 199 234 217Q176 232 139 251T82 294Q53 330 53 385Q53 429 78 463T145 516T241 536Q297 536
349 514T434 452L375 387Q346 416 311 433T246 451Q203 451 180 435T156 388Q157 361 178 344Q199 327 267 310Q317 297 349 282T401 246Q421 227 429 202T437 146Q437 101 412 66T343 10T247 -10Z" />
<glyph unicode="t" glyph-name="t" horiz-adv-x="384" d="M137 0V425H28V525H137V659H240V525H362V425H240V0H137Z" />
<glyph unicode="u" glyph-name="u" horiz-adv-x="605" d="M256 -10Q172 -10 122 47T72 201V525H175V229Q175 160 207 120T298 80Q355 80 392 116T430 209V525H533V0H430V84Q404 42 358 16T256 -10Z" />
<glyph unicode="v" glyph-name="v" horiz-adv-x="573" d="M244 0L22 525H133L286 150L445 525H551L318 0H244Z" />
<glyph unicode="w" glyph-name="w" horiz-adv-x="800" d="M201 0L22 525L126 526L244 164L370 442H432L557 168L674 525H778L601 0H530L396 305L271 0H201Z" />
<glyph unicode="x" glyph-name="x" horiz-adv-x="562" d="M16 0L218 263L15 525H145L287 340L407 525H529L344 266L547 0H421L277 187L138 0H16Z" />
<glyph unicode="y" glyph-name="y" horiz-adv-x="581" d="M160 -230L249 -25L5 525H125L289 139Q294 128 302 104L317 146L454 525H576L360 0L271 -230H160Z" />
<glyph unicode="z" glyph-name="z" horiz-adv-x="484" d="M50 0V86L312 436H50V525H433V441L170 89H439V0H50Z" />
<glyph unicode="{" glyph-name="braceleft" horiz-adv-x="411" d="M369 -200Q271 -180 228 -136T184 -7L185 88Q185 146 160 178T87 212H44V288H89Q136 289 160 321T185 412L184 507Q184 589 227 634T369 700L387 631Q344 617 320 601T285 560T275 493L277 398Q277
340 251 302T178 250Q277 214 277 102L275 7Q275 -34 285 -59T319 -100T387 -131L369 -200Z" />
<glyph unicode="|" glyph-name="bar" horiz-adv-x="231" d="M67 -193V740H164V-193H67Z" />
<glyph unicode="}" glyph-name="braceright" horiz-adv-x="411" d="M42 -200L24 -131Q67 -117 91 -101T125 -60T136 7L134 102Q134 160 160 198T233 250Q134 286 134 398L136 493Q136 534 126 559T92 600T24 631L42 700Q140 680 183 636T227 507L226 412Q226 354
251 322T324 288H367V212H322Q275 211 251 179T226 88L227 -7Q227 -89 184 -134T42 -200Z" />
<glyph unicode="~" glyph-name="asciitilde" horiz-adv-x="510" d="M356 225Q341 225 319 231T276 245T239 258Q217 266 190 275T151 285Q114 285 114 227H40Q40 295 71 332T162 369Q187 369 221 357T277 335Q298 327 323 318T361 309Q378 309 388 322T396 357L470
354Q470 225 356 225Z" />
<glyph unicode="&#xa0;" glyph-name="uni00A0" horiz-adv-x="280" />
<glyph unicode="&#xa1;" glyph-name="exclamdown" horiz-adv-x="236" d="M141 289Q152 195 158 92T165 -100V-170H57V-100Q57 -38 60 30T68 164T81 289H141ZM114 541Q147 541 165 522T183 466Q183 433 164 412T114 391Q81 391 63 410T45 466Q45 499 64 520T114 541Z" />
<glyph unicode="&#xa2;" glyph-name="cent" horiz-adv-x="535" d="M239 0V84Q181 97 136 135T66 228T40 351Q40 418 65 473T136 567T239 618V700H336V621Q393 614 438 587T510 518L453 448Q433 478 399 500T329 529V173Q397 183 453 251L510 181Q483 143 436 116T336
81V0H239ZM138 351Q138 292 168 247T246 183V520Q197 502 168 457T138 351Z" />
<glyph unicode="&#xa3;" glyph-name="sterling" horiz-adv-x="610" d="M44 323V408H126Q119 435 117 452T114 487Q114 554 142 604T220 682T340 710Q407 710 456 688T529 625L455 569Q409 617 340 617Q284 617 249 580T214 486Q214 468 218 448T228 408H452V323H255Q263
298 269 273T275 224Q275 166 243 113Q262 111 282 106T334 89Q355 82 379 75T425 67Q482 67 538 102L590 37Q559 9 516 -6T425 -21Q402 -21 369 -12T313 4Q294 10 264 18T214 26Q182 26 145 18T70 -6L30 65Q84 98 153 109Q163 127 169 151T175 201Q175 225 171
251T152 323H44Z" />
<glyph unicode="&#xa4;" glyph-name="currency" horiz-adv-x="550" d="M129 82L58 152L121 219Q101 258 101 302Q101 346 121 385L50 451L120 521L188 457Q230 482 279 482Q324 482 363 460L429 530L500 460L434 390Q457 349 457 302Q457 257 437 218L498 160L428
90L368 146Q327 122 279 122Q231 122 190 146L129 82ZM279 210Q316 210 339 236T362 302Q362 342 339 368T279 395Q243 395 220 369T197 302Q197 262 220 236T279 210Z" />
<glyph unicode="&#xa5;" glyph-name="yen" horiz-adv-x="660" d="M146 90V176L286 175V229L146 230V316L282 315L10 700H140L342 410L526 700H650L396 315L558 314V228L394 229V175L558 174V88L394 89V0H286V89L146 90Z" />
<glyph unicode="&#xa6;" glyph-name="brokenbar" horiz-adv-x="239" d="M71 341V740H168V341H71ZM71 -202V198H168V-202H71Z" />
<glyph unicode="&#xa7;" glyph-name="section" horiz-adv-x="549" d="M274 -134Q216 -134 156 -109T55 -44L105 35Q141 0 186 -21T273 -43Q323 -43 351 -25T380 29Q380 55 359 72T303 99L185 135Q47 177 47 290Q47 334 69 370T133 426Q116 445 105 472T94 536Q94
612 145 661T295 711Q409 711 476 628L419 562Q366 617 290 617Q248 617 220 596T192 541Q192 516 211 495T273 462L366 435Q519 390 513 278Q510 231 488 199T428 150Q450 131 464 104T478 41Q478 -35 427 -84T274 -134ZM330 200Q337 198 344 196Q380 205 397
224T415 266Q415 289 400 304T349 329L220 367Q216 368 212 370Q185 362 170 344T154 300Q154 276 173 258T235 227L330 200Z" />
<glyph unicode="&#xa8;" glyph-name="dieresis" horiz-adv-x="500" d="M350 642Q317 642 299 659T281 707Q281 736 299 754T350 772Q383 772 401 755T419 707Q419 678 401 660T350 642ZM150 642Q117 642 99 659T81 707Q81 736 99 754T150 772Q183 772 201 755T219
707Q219 678 201 660T150 642Z" />
<glyph unicode="&#xa9;" glyph-name="copyright" horiz-adv-x="786" d="M393 -7Q318 -7 254 20T140 97T64 210T36 350Q36 425 63 489T140 603T253 679T393 707Q467 707 531 680T645 603T722 490T750 350Q750 275 723 211T646 97T532 21T393 -7ZM393 67Q452 67
503 89T593 149T654 239T676 350Q676 410 654 461T594 551T504 611T393 633Q334 633 283 612T193 551T132 461T110 350Q110 291 132 240T192 150T282 89T393 67ZM411 142Q351 142 303 169T226 243T197 350Q197 407 225 454T302 529T411 557Q481 557 540 512L503
437Q474 458 453 467T411 476Q356 476 320 440T283 350Q283 294 319 259T411 223Q457 223 507 261L544 185Q483 142 411 142Z" />
<glyph unicode="&#xaa;" glyph-name="ordfeminine" horiz-adv-x="365" d="M143 391Q84 391 50 438T15 562Q15 631 54 676T155 721Q217 721 242 669V715H335V401H242V456Q227 428 201 410T143 391ZM172 458Q205 458 225 484T246 555Q246 601 226 627T171 654Q145
654 127 627T108 562Q108 514 125 486T172 458Z" />
<glyph unicode="&#xab;" glyph-name="guillemotleft" horiz-adv-x="481" d="M381 50L222 257V259L380 471L443 426L328 261L444 95L381 50ZM424 50L265 257V259L423 471L486 426L371 261L487 95L424 50Z" />
<glyph unicode="&#xac;" glyph-name="logicalnot" horiz-adv-x="670" d="M515 117V307H50V404H620V117H515Z" />
<glyph unicode="&#xad;" glyph-name="uni00AD" horiz-adv-x="394" d="M53 235V337H341V235H53Z" />
<glyph unicode="&#xae;" glyph-name="registered" horiz-adv-x="507" d="M259 259Q195 259 143 289T60 370T29 484Q29 547 60 598T143 679T259 709Q322 709 374 679T457 597T488 484Q488 421 457 370T374 289T259 259ZM259 322Q305 322 342 343T402 402T425 484Q425
529 403 566T343 625T259 647Q212 647 174 625T114 566T91 484Q91 439 113 402T174 344T259 322ZM172 367V606H282Q315 606 335 586T356 534Q356 511 344 494T313 467L352 367H292L257 461H229V367H172ZM264 556H229V502H262Q279 502 290 509T301 529Q301 556 264
556Z" />
<glyph unicode="&#xaf;" glyph-name="overscore" horiz-adv-x="424" d="M108 642V717H392V642H108Z" />
<glyph unicode="&#xb0;" glyph-name="degree" horiz-adv-x="532" d="M266 399Q222 399 187 419T131 475T110 553Q110 597 130 632T186 688T266 709Q311 709 346 689T401 633T422 554Q422 511 402 476T346 420T266 399ZM266 466Q300 466 323 492T347 554Q347 590
324 615T266 641Q231 641 208 616T185 553Q185 517 208 492T266 466Z" />
<glyph unicode="&#xb1;" glyph-name="plusminus" horiz-adv-x="582" d="M240 143V285H50V375H240V534H344V375H532V285H344V143H240ZM50 -1V91H532V-1H50Z" />
<glyph unicode="&#xb2;" glyph-name="uni00B2" horiz-adv-x="346" d="M65 418L56 489L155 588Q164 596 177 609T200 638T210 672Q210 688 201 697T175 707Q158 707 138 695T96 653L42 693Q65 732 102 755T182 779Q231 779 261 751T292 679Q292 651 277 626T242
579T205 541L147 485H296V418H65Z" />
<glyph unicode="&#xb3;" glyph-name="uni00B3" horiz-adv-x="342" d="M165 412Q137 412 108 421T57 446L90 501Q126 478 159 478Q187 478 204 492T222 532Q222 552 207 564T165 577Q136 577 109 565L88 622L183 704H79V772H265L272 706L190 638Q240 637 268 609T297
533Q297 480 259 446T165 412Z" />
<glyph unicode="&#xb4;" glyph-name="acute" horiz-adv-x="500" d="M180 606L146 657L289 782L354 700L180 606Z" />
<glyph unicode="&#xb5;" glyph-name="uni00B5" horiz-adv-x="586" d="M80 -157V525H177V222Q177 80 284 80Q322 80 352 99T401 150T419 222V525H516V0H419V82Q398 36 357 13T269 -10Q242 -10 216 2T177 35V-157H80Z" />
<glyph unicode="&#xb6;" glyph-name="paragraph" horiz-adv-x="712" d="M246 0V279H236Q182 279 140 306T73 379T48 486Q48 551 76 599T154 673T273 700H614V0H506V596H354V0H246Z" />
<glyph unicode="&#xb7;" glyph-name="middot" horiz-adv-x="228" d="M114 253Q81 253 63 272T45 328Q45 361 64 382T114 403Q147 403 165 384T183 328Q183 295 164 274T114 253Z" />
<glyph unicode="&#xb8;" glyph-name="cedilla" horiz-adv-x="500" d="M159 -244L152 -191Q176 -191 202 -183T246 -163T264 -138Q264 -124 247 -116T209 -104T174 -100L161 -90L233 24H292L249 -46Q349 -67 349 -139Q349 -173 320 -197T246 -233T159 -244Z" />
<glyph unicode="&#xb9;" glyph-name="uni00B9" horiz-adv-x="281" d="M126 429V681L82 653L47 719L145 777H201V429H126Z" />
<glyph unicode="&#xba;" glyph-name="ordmasculine" horiz-adv-x="354" d="M176 392Q131 392 96 412T41 468T20 549Q20 595 40 631T96 689T176 710Q221 710 256 689T313 631T334 549Q334 504 314 469T257 413T176 392ZM176 463Q207 463 226 487T245 549Q245 589
226 614T176 639Q145 639 127 614T108 549Q108 511 127 487T176 463Z" />
<glyph unicode="&#xbb;" glyph-name="guillemotright" horiz-adv-x="484" d="M317 50L254 95L369 260L253 426L316 471L475 264V262L317 50ZM357 50L294 95L409 260L293 426L356 471L515 264V262L357 50Z" />
<glyph unicode="&#xbc;" glyph-name="onequarter" horiz-adv-x="793" d="M133 359V611L89 583L54 649L152 707H208V359H133ZM111 0L574 700H677L209 0H111ZM690 -2H615V81H473L456 150L624 356H690V149H751V81H690V-2ZM537 149H615V239L537 149Z" />
<glyph unicode="&#xbd;" glyph-name="onehalf" horiz-adv-x="785" d="M133 359V611L89 583L54 649L152 707H208V359H133ZM113 0L576 700H679L211 0H113ZM522 0L513 71L612 170Q621 178 634 191T657 220T667 254Q667 270 658 279T632 289Q615 289 595 277T553 235L499
275Q522 314 559 337T639 361Q688 361 718 333T749 261Q749 233 734 208T699 161T662 123L604 67H753V0H522Z" />
<glyph unicode="&#xbe;" glyph-name="threequarters" horiz-adv-x="791" d="M128 342Q100 342 71 351T20 376L53 431Q89 408 122 408Q150 408 167 422T185 462Q185 482 170 494T128 507Q99 507 72 495L51 552L146 634H42V702H228L235 636L153 568Q203 567 231
539T260 463Q260 410 222 376T128 342ZM121 0L584 700H687L219 0H121ZM688 -2H613V81H471L454 150L622 356H688V149H749V81H688V-2ZM535 149H613V239L535 149Z" />
<glyph unicode="&#xbf;" glyph-name="questiondown" horiz-adv-x="511" d="M300 323L326 182Q228 156 182 118T135 23Q135 -21 169 -49T254 -78Q294 -78 331 -51T396 27L471 -36Q428 -102 369 -138T244 -175Q181 -175 131 -149T52 -78T22 23Q22 67 46 108T111
181T206 233L223 323H300ZM335 470Q335 437 316 416T266 395Q233 395 215 414T197 470Q197 503 216 524T266 545Q299 545 317 526T335 470Z" />
<glyph unicode="&#xc0;" glyph-name="Agrave" horiz-adv-x="700" d="M25 0L296 700H406L675 0H560L494 174H201L135 0H25ZM294 418L241 278H455L400 422Q397 429 388 457T368 519T348 579Q340 553 330 522T311 463T294 418ZM426 755L224 830L273 920L456 807L426 755Z" />
<glyph unicode="&#xc1;" glyph-name="Aacute" horiz-adv-x="700" d="M25 0L296 700H406L675 0H560L494 174H201L135 0H25ZM294 418L241 278H455L400 422Q397 429 388 457T368 519T348 579Q340 553 330 522T311 463T294 418ZM282 755L254 807L437 920L484 830L282 755Z" />
<glyph unicode="&#xc2;" glyph-name="Acircumflex" horiz-adv-x="700" d="M25 0L296 700H406L675 0H560L494 174H201L135 0H25ZM294 418L241 278H455L400 422Q397 429 388 457T368 519T348 579Q340 553 330 522T311 463T294 418ZM226 755L189 790L313 891H386L510
790L473 755L350 813L226 755Z" />
<glyph unicode="&#xc3;" glyph-name="Atilde" horiz-adv-x="700" d="M25 0L296 700H406L675 0H560L494 174H201L135 0H25ZM294 418L241 278H455L400 422Q397 429 388 457T368 519T348 579Q340 553 330 522T311 463T294 418ZM424 768Q401 768 378 775T333 791Q316
798 304 802T282 806Q252 806 252 768H175Q175 822 210 851T289 881Q310 881 330 874T369 859Q383 853 396 849T419 845Q450 845 448 881H524Q524 837 498 803T424 768Z" />
<glyph unicode="&#xc4;" glyph-name="Adieresis" horiz-adv-x="700" d="M25 0L296 700H406L675 0H560L494 174H201L135 0H25ZM294 418L241 278H455L400 422Q397 429 388 457T368 519T348 579Q340 553 330 522T311 463T294 418ZM453 759Q418 759 401 777T384 824Q384
849 401 869T453 889Q488 889 505 871T522 824Q522 799 505 779T453 759ZM247 759Q212 759 195 777T178 824Q178 849 195 869T247 889Q282 889 299 871T316 824Q316 799 299 779T247 759Z" />
<glyph unicode="&#xc5;" glyph-name="Aring" horiz-adv-x="700" d="M25 0L296 700H406L675 0H560L494 174H201L135 0H25ZM294 418L241 278H455L400 422Q397 429 388 457T368 519T348 579Q340 553 330 522T311 463T294 418ZM349 679Q321 679 296 693T256 732T240
784Q240 814 255 838T296 876T349 890Q378 890 403 876T443 838T459 784Q459 756 444 732T403 694T349 679ZM349 738Q370 738 384 751T399 784Q399 807 384 819T349 831Q329 831 315 818T300 784Q300 765 314 752T349 738Z" />
<glyph unicode="&#xc6;" glyph-name="AE" horiz-adv-x="969" d="M5 0L493 700H894V607H566V402H849V308H566V93H894V0H465V153H219L114 0H5ZM465 245V513L281 245H465Z" />
<glyph unicode="&#xc7;" glyph-name="Ccedilla" horiz-adv-x="679" d="M382 -10Q285 -10 210 36T91 163T48 350Q48 425 74 489T148 603T257 679T391 706Q442 706 490 691T578 648T643 585L571 510Q485 598 391 598Q326 598 273 566T189 478T158 350Q158 273 188
217T273 130T400 99Q450 99 496 119T576 174L630 86Q607 59 568 37T480 3T382 -10ZM284 -244L277 -191Q301 -191 327 -183T371 -163T389 -138Q389 -124 372 -116T334 -104T299 -100L286 -90L358 24H417L375 -46Q474 -67 474 -139Q474 -173 445 -197T372 -233T284
-244Z" />
<glyph unicode="&#xc8;" glyph-name="Egrave" horiz-adv-x="614" d="M98 0V700H539V596H206V411H484V307H206V104H539V0H98ZM403 755L201 830L250 920L433 807L403 755Z" />
<glyph unicode="&#xc9;" glyph-name="Eacute" horiz-adv-x="614" d="M98 0V700H539V596H206V411H484V307H206V104H539V0H98ZM259 755L231 807L414 920L461 830L259 755Z" />
<glyph unicode="&#xca;" glyph-name="Ecircumflex" horiz-adv-x="614" d="M98 0V700H539V596H206V411H484V307H206V104H539V0H98ZM203 755L166 790L290 891H363L487 790L450 755L327 813L203 755Z" />
<glyph unicode="&#xcb;" glyph-name="Edieresis" horiz-adv-x="614" d="M98 0V700H539V596H206V411H484V307H206V104H539V0H98ZM430 759Q395 759 378 777T361 824Q361 849 378 869T430 889Q465 889 482 871T499 824Q499 799 482 779T430 759ZM224 759Q189 759
172 777T155 824Q155 849 172 869T224 889Q259 889 276 871T293 824Q293 799 276 779T224 759Z" />
<glyph unicode="&#xcc;" glyph-name="Igrave" horiz-adv-x="478" d="M72 0V100H185V600H72V700H406V600H293V100H406V0H72ZM571 755L369 830L418 920L601 807L571 755Z" />
<glyph unicode="&#xcd;" glyph-name="Iacute" horiz-adv-x="478" d="M72 0V100H185V600H72V700H406V600H293V100H406V0H72ZM171 755L143 807L326 920L373 830L171 755Z" />
<glyph unicode="&#xce;" glyph-name="Icircumflex" horiz-adv-x="478" d="M72 0V100H185V600H72V700H406V600H293V100H406V0H72ZM371 755L334 790L458 891H531L655 790L618 755L495 813L371 755Z" />
<glyph unicode="&#xcf;" glyph-name="Idieresis" horiz-adv-x="478" d="M72 0V100H185V600H72V700H406V600H293V100H406V0H72ZM598 759Q563 759 546 777T529 824Q529 849 546 869T598 889Q633 889 650 871T667 824Q667 799 650 779T598 759ZM392 759Q357 759 340
777T323 824Q323 849 340 869T392 889Q427 889 444 871T461 824Q461 799 444 779T392 759Z" />
<glyph unicode="&#xd0;" glyph-name="Eth" horiz-adv-x="748" d="M98 0V305H49V395H98V700H372Q472 700 545 656T659 533T700 350Q700 245 660 167T547 44T372 0H98ZM317 305H206V104H367Q473 104 531 169T590 350Q590 464 531 530T367 596H206V395H317V305Z" />
<glyph unicode="&#xd1;" glyph-name="Ntilde" horiz-adv-x="793" d="M98 0V700H195L602 155Q594 216 591 296T587 470V700H695V0H596L189 534Q196 447 200 400T205 329T206 291V0H98ZM471 768Q448 768 425 775T380 791Q363 798 351 802T329 806Q299 806 299 768H222Q222
822 257 851T336 881Q357 881 377 874T416 859Q430 853 443 849T466 845Q497 845 495 881H571Q571 837 545 803T471 768Z" />
<glyph unicode="&#xd2;" glyph-name="Ograve" horiz-adv-x="782" d="M391 -10Q317 -10 255 17T146 92T74 206T48 350Q48 428 73 493T145 607T254 683T391 710Q465 710 527 683T636 607T708 493T734 350Q734 273 709 208T637 93T528 17T391 -10ZM391 95Q458 95
511 128T594 219T624 350Q624 423 594 481T511 572T391 605Q323 605 271 572T188 482T158 350Q158 276 188 219T270 128T391 95ZM467 755L265 830L314 920L497 807L467 755Z" />
<glyph unicode="&#xd3;" glyph-name="Oacute" horiz-adv-x="782" d="M391 -10Q317 -10 255 17T146 92T74 206T48 350Q48 428 73 493T145 607T254 683T391 710Q465 710 527 683T636 607T708 493T734 350Q734 273 709 208T637 93T528 17T391 -10ZM391 95Q458 95
511 128T594 219T624 350Q624 423 594 481T511 572T391 605Q323 605 271 572T188 482T158 350Q158 276 188 219T270 128T391 95ZM323 755L295 807L478 920L525 830L323 755Z" />
<glyph unicode="&#xd4;" glyph-name="Ocircumflex" horiz-adv-x="782" d="M391 -10Q317 -10 255 17T146 92T74 206T48 350Q48 428 73 493T145 607T254 683T391 710Q465 710 527 683T636 607T708 493T734 350Q734 273 709 208T637 93T528 17T391 -10ZM391 95Q458
95 511 128T594 219T624 350Q624 423 594 481T511 572T391 605Q323 605 271 572T188 482T158 350Q158 276 188 219T270 128T391 95ZM267 755L230 790L354 891H427L551 790L514 755L391 813L267 755Z" />
<glyph unicode="&#xd5;" glyph-name="Otilde" horiz-adv-x="782" d="M391 -10Q317 -10 255 17T146 92T74 206T48 350Q48 428 73 493T145 607T254 683T391 710Q465 710 527 683T636 607T708 493T734 350Q734 273 709 208T637 93T528 17T391 -10ZM391 95Q458 95
511 128T594 219T624 350Q624 423 594 481T511 572T391 605Q323 605 271 572T188 482T158 350Q158 276 188 219T270 128T391 95ZM465 768Q442 768 419 775T374 791Q357 798 345 802T323 806Q293 806 293 768H216Q216 822 251 851T330 881Q351 881 371 874T410 859Q424
853 437 849T460 845Q491 845 489 881H565Q565 837 539 803T465 768Z" />
<glyph unicode="&#xd6;" glyph-name="Odieresis" horiz-adv-x="782" d="M391 -10Q317 -10 255 17T146 92T74 206T48 350Q48 428 73 493T145 607T254 683T391 710Q465 710 527 683T636 607T708 493T734 350Q734 273 709 208T637 93T528 17T391 -10ZM391 95Q458
95 511 128T594 219T624 350Q624 423 594 481T511 572T391 605Q323 605 271 572T188 482T158 350Q158 276 188 219T270 128T391 95ZM494 759Q459 759 442 777T425 824Q425 849 442 869T494 889Q529 889 546 871T563 824Q563 799 546 779T494 759ZM288 759Q253 759
236 777T219 824Q219 849 236 869T288 889Q323 889 340 871T357 824Q357 799 340 779T288 759Z" />
<glyph unicode="&#xd7;" glyph-name="multiply" horiz-adv-x="484" d="M98 71L39 136L182 280L35 426L99 486L244 342L387 486L447 422L306 280L449 137L385 78L244 218L98 71Z" />
<glyph unicode="&#xd8;" glyph-name="Oslash" horiz-adv-x="770" d="M123 -33L60 20L131 107Q91 154 69 216T47 350Q47 428 72 493T144 607T253 683T390 710Q443 710 491 696T579 655L649 741L717 694L641 601Q684 553 708 489T733 350Q733 273 708 208T636 93T527
17T390 -10Q334 -10 284 6T192 51L123 -33ZM157 350Q157 305 168 265T202 193L510 571Q457 605 390 605Q322 605 270 572T187 482T157 350ZM390 95Q457 95 510 128T593 219T623 350Q623 398 610 440T571 515L260 134Q317 95 390 95Z" />
<glyph unicode="&#xd9;" glyph-name="Ugrave" horiz-adv-x="740" d="M370 -6Q289 -6 225 29T125 127T88 269V701H196V278Q196 227 220 187T283 122T370 98Q420 98 460 122T525 186T549 278V701H652V269Q652 190 616 128T515 30T370 -6ZM446 755L244 830L293 920L476
807L446 755Z" />
<glyph unicode="&#xda;" glyph-name="Uacute" horiz-adv-x="740" d="M370 -6Q289 -6 225 29T125 127T88 269V701H196V278Q196 227 220 187T283 122T370 98Q420 98 460 122T525 186T549 278V701H652V269Q652 190 616 128T515 30T370 -6ZM302 755L274 807L457 920L504
830L302 755Z" />
<glyph unicode="&#xdb;" glyph-name="Ucircumflex" horiz-adv-x="740" d="M370 -6Q289 -6 225 29T125 127T88 269V701H196V278Q196 227 220 187T283 122T370 98Q420 98 460 122T525 186T549 278V701H652V269Q652 190 616 128T515 30T370 -6ZM246 755L209 790L333
891H406L530 790L493 755L370 813L246 755Z" />
<glyph unicode="&#xdc;" glyph-name="Udieresis" horiz-adv-x="740" d="M370 -6Q289 -6 225 29T125 127T88 269V701H196V278Q196 227 220 187T283 122T370 98Q420 98 460 122T525 186T549 278V701H652V269Q652 190 616 128T515 30T370 -6ZM473 759Q438 759 421
777T404 824Q404 849 421 869T473 889Q508 889 525 871T542 824Q542 799 525 779T473 759ZM267 759Q232 759 215 777T198 824Q198 849 215 869T267 889Q302 889 319 871T336 824Q336 799 319 779T267 759Z" />
<glyph unicode="&#xdd;" glyph-name="Yacute" horiz-adv-x="660" d="M286 0V310L10 700H140L342 410L526 700H650L394 312V0H286ZM262 755L234 807L417 920L464 830L262 755Z" />
<glyph unicode="&#xde;" glyph-name="Thorn" horiz-adv-x="634" d="M98 0V700H206V573H383Q440 573 486 545T561 467T589 358Q589 298 561 249T487 170T383 141H206V0H98ZM206 245H381Q408 245 430 260T465 301T479 358Q479 404 450 436T381 469H206V245Z" />
<glyph unicode="&#xdf;" glyph-name="germandbls" horiz-adv-x="664" d="M45 404V497H129V499Q129 569 156 622T234 704T354 734Q445 734 499 690T553 574Q553 533 525 497T453 441Q529 415 575 351T622 203Q622 142 596 94T525 18T422 -10Q328 -10 275 57L327
112Q354 88 377 78T424 68Q470 68 497 102T525 189Q525 267 482 314T344 385V450Q457 500 457 565Q457 602 429 623T350 644Q293 644 260 605T226 502V0H129V404H45Z" />
<glyph unicode="&#xe0;" glyph-name="agrave" horiz-adv-x="633" d="M274 -10Q209 -10 156 26T70 124T38 264Q38 343 70 404T158 501T283 536Q342 536 387 511T457 445V525H561V0H457V81Q430 43 381 17T274 -10ZM301 85Q348 85 384 108T440 171T461 264Q461 315
441 355T384 418T301 441Q255 441 220 418T164 355T143 264Q143 212 163 172T219 108T301 85ZM367 606L193 700L258 782L401 657L367 606Z" />
<glyph unicode="&#xe1;" glyph-name="aacute" horiz-adv-x="633" d="M274 -10Q209 -10 156 26T70 124T38 264Q38 343 70 404T158 501T283 536Q342 536 387 511T457 445V525H561V0H457V81Q430 43 381 17T274 -10ZM301 85Q348 85 384 108T440 171T461 264Q461 315
441 355T384 418T301 441Q255 441 220 418T164 355T143 264Q143 212 163 172T219 108T301 85ZM247 606L213 657L356 782L421 700L247 606Z" />
<glyph unicode="&#xe2;" glyph-name="acircumflex" horiz-adv-x="633" d="M274 -10Q209 -10 156 26T70 124T38 264Q38 343 70 404T158 501T283 536Q342 536 387 511T457 445V525H561V0H457V81Q430 43 381 17T274 -10ZM301 85Q348 85 384 108T440 171T461 264Q461
315 441 355T384 418T301 441Q255 441 220 418T164 355T143 264Q143 212 163 172T219 108T301 85ZM197 607L159 640L274 753H360L475 640L437 607L317 672L197 607Z" />
<glyph unicode="&#xe3;" glyph-name="atilde" horiz-adv-x="633" d="M274 -10Q209 -10 156 26T70 124T38 264Q38 343 70 404T158 501T283 536Q342 536 387 511T457 445V525H561V0H457V81Q430 43 381 17T274 -10ZM301 85Q348 85 384 108T440 171T461 264Q461 315
441 355T384 418T301 441Q255 441 220 418T164 355T143 264Q143 212 163 172T219 108T301 85ZM368 615Q348 615 335 623T306 643Q287 660 278 666T260 673Q231 673 223 615L155 625Q157 674 186 710T265 746Q285 746 298 738T327 718Q347 702 356 695T373 688Q402
688 410 746L478 736Q476 687 447 651T368 615Z" />
<glyph unicode="&#xe4;" glyph-name="adieresis" horiz-adv-x="633" d="M274 -10Q209 -10 156 26T70 124T38 264Q38 343 70 404T158 501T283 536Q342 536 387 511T457 445V525H561V0H457V81Q430 43 381 17T274 -10ZM301 85Q348 85 384 108T440 171T461 264Q461
315 441 355T384 418T301 441Q255 441 220 418T164 355T143 264Q143 212 163 172T219 108T301 85ZM417 642Q384 642 366 659T348 707Q348 736 366 754T417 772Q450 772 468 755T486 707Q486 678 468 660T417 642ZM217 642Q184 642 166 659T148 707Q148 736 166
754T217 772Q250 772 268 755T286 707Q286 678 268 660T217 642Z" />
<glyph unicode="&#xe5;" glyph-name="aring" horiz-adv-x="633" d="M274 -10Q209 -10 156 26T70 124T38 264Q38 343 70 404T158 501T283 536Q342 536 387 511T457 445V525H561V0H457V81Q430 43 381 17T274 -10ZM301 85Q348 85 384 108T440 171T461 264Q461 315
441 355T384 418T301 441Q255 441 220 418T164 355T143 264Q143 212 163 172T219 108T301 85ZM316 604Q288 604 263 618T223 657T207 709Q207 738 222 762T262 800T316 815Q346 815 371 801T411 762T426 709Q426 681 411 657T371 619T316 604ZM316 663Q337 663
351 676T366 709Q366 730 352 743T316 756Q295 756 281 743T267 709Q267 690 281 677T316 663Z" />
<glyph unicode="&#xe6;" glyph-name="ae" horiz-adv-x="899" d="M216 -10Q165 -10 125 10T62 65T38 149Q38 233 98 276T274 319H373V356Q373 393 340 417T262 441Q175 441 118 368L51 435Q94 484 148 510T264 536Q330 536 377 517T447 460Q480 496 524 516T621
536Q689 535 743 502T828 412T859 281L858 237H468Q474 192 500 158T565 104T654 84Q693 84 726 97T799 144L849 69Q813 34 756 12T644 -10Q571 -10 514 18T421 95Q386 48 331 19T216 -10ZM621 441Q494 441 471 319H754V326Q751 359 732 385T684 426T621 441ZM220
78Q274 78 319 105T385 172Q376 203 374 237H261Q200 237 168 215T135 151Q135 118 159 98T220 78Z" />
<glyph unicode="&#xe7;" glyph-name="ccedilla" horiz-adv-x="535" d="M295 -10Q222 -10 165 26T74 124T40 263Q40 340 73 402T164 500T295 536Q365 536 422 508T510 430L453 360Q429 395 387 419T305 443Q257 443 220 420T160 355T138 263Q138 212 161 172T222
107T306 83Q387 83 453 163L510 93Q478 48 419 19T295 -10ZM204 -244L197 -191Q221 -191 247 -183T291 -163T309 -138Q309 -124 292 -116T254 -104T219 -100L206 -90L278 24H337L294 -46Q394 -67 394 -139Q394 -173 365 -197T291 -233T204 -244Z" />
<glyph unicode="&#xe8;" glyph-name="egrave" horiz-adv-x="586" d="M317 -10Q236 -10 174 24T76 119T40 257Q40 340 74 402T169 500T308 537Q376 536 430 503T516 413T546 282L545 238H143Q152 167 201 126T327 84Q366 84 399 97T472 144L524 71Q487 35 430 13T317
-10ZM308 442Q173 442 147 320H441V327Q438 360 419 386T371 427T308 442ZM358 606L184 700L249 782L392 657L358 606Z" />
<glyph unicode="&#xe9;" glyph-name="eacute" horiz-adv-x="586" d="M317 -10Q236 -10 174 24T76 119T40 257Q40 340 74 402T169 500T308 537Q376 536 430 503T516 413T546 282L545 238H143Q152 167 201 126T327 84Q366 84 399 97T472 144L524 71Q487 35 430 13T317
-10ZM308 442Q173 442 147 320H441V327Q438 360 419 386T371 427T308 442ZM238 606L204 657L347 782L412 700L238 606Z" />
<glyph unicode="&#xea;" glyph-name="ecircumflex" horiz-adv-x="586" d="M317 -10Q236 -10 174 24T76 119T40 257Q40 340 74 402T169 500T308 537Q376 536 430 503T516 413T546 282L545 238H143Q152 167 201 126T327 84Q366 84 399 97T472 144L524 71Q487 35
430 13T317 -10ZM308 442Q173 442 147 320H441V327Q438 360 419 386T371 427T308 442ZM188 607L150 640L265 753H351L466 640L428 607L308 672L188 607Z" />
<glyph unicode="&#xeb;" glyph-name="edieresis" horiz-adv-x="586" d="M317 -10Q236 -10 174 24T76 119T40 257Q40 340 74 402T169 500T308 537Q376 536 430 503T516 413T546 282L545 238H143Q152 167 201 126T327 84Q366 84 399 97T472 144L524 71Q487 35 430
13T317 -10ZM308 442Q173 442 147 320H441V327Q438 360 419 386T371 427T308 442ZM408 642Q375 642 357 659T339 707Q339 736 357 754T408 772Q441 772 459 755T477 707Q477 678 459 660T408 642ZM208 642Q175 642 157 659T139 707Q139 736 157 754T208 772Q241
772 259 755T277 707Q277 678 259 660T208 642Z" />
<glyph unicode="&#xec;" glyph-name="igrave" horiz-adv-x="243" d="M72 0V525H175V0H72ZM172 606L-2 700L63 782L206 657L172 606Z" />
<glyph unicode="&#xed;" glyph-name="iacute" horiz-adv-x="243" d="M72 0V525H175V0H72ZM308 606L274 657L417 782L482 700L308 606Z" />
<glyph unicode="&#xee;" glyph-name="icircumflex" horiz-adv-x="243" d="M72 0V525H175V0H72ZM258 607L220 640L335 753H421L536 640L498 607L378 672L258 607Z" />
<glyph unicode="&#xef;" glyph-name="idieresis" horiz-adv-x="243" d="M72 0V525H175V0H72ZM478 642Q445 642 427 659T409 707Q409 736 427 754T478 772Q511 772 529 755T547 707Q547 678 529 660T478 642ZM278 642Q245 642 227 659T209 707Q209 736 227 754T278
772Q311 772 329 755T347 707Q347 678 329 660T278 642Z" />
<glyph unicode="&#xf0;" glyph-name="eth" horiz-adv-x="574" d="M287 -7Q218 -7 162 29T73 126T40 262Q40 316 59 364T111 449T186 507T275 528Q349 528 400 480Q382 534 343 572L156 528L143 593L266 624Q225 645 169 662L211 740Q307 717 378 658L489 683L507
617L434 600Q482 540 508 460T534 281Q534 196 503 131T415 30T287 -7ZM287 89Q329 89 363 112T417 174T437 262Q437 309 417 347T363 409T287 432Q245 432 211 410T157 349T137 262Q137 213 157 174T211 112T287 89Z" />
<glyph unicode="&#xf1;" glyph-name="ntilde" horiz-adv-x="595" d="M72 0V525H175V443Q201 482 248 509T347 536Q527 536 527 320V0H424V313Q424 448 313 442Q274 442 243 426T193 381T175 318V0H72ZM379 615Q359 615 346 623T317 643Q298 660 289 666T271 673Q242
673 234 615L166 625Q168 674 197 710T276 746Q296 746 309 738T338 718Q358 702 367 695T384 688Q413 688 421 746L489 736Q487 687 458 651T379 615Z" />
<glyph unicode="&#xf2;" glyph-name="ograve" horiz-adv-x="615" d="M308 -10Q231 -10 171 25T75 122T40 263Q40 342 75 403T170 500T308 536Q384 536 444 501T540 404T575 263Q575 184 540 123T445 26T308 -10ZM308 84Q355 84 392 107T450 171T470 263Q471 315
450 355T392 419T308 442Q261 442 224 419T165 355T145 263Q144 212 165 172T223 108T308 84ZM358 606L184 700L249 782L392 657L358 606Z" />
<glyph unicode="&#xf3;" glyph-name="oacute" horiz-adv-x="615" d="M308 -10Q231 -10 171 25T75 122T40 263Q40 342 75 403T170 500T308 536Q384 536 444 501T540 404T575 263Q575 184 540 123T445 26T308 -10ZM308 84Q355 84 392 107T450 171T470 263Q471 315
450 355T392 419T308 442Q261 442 224 419T165 355T145 263Q144 212 165 172T223 108T308 84ZM238 606L204 657L347 782L412 700L238 606Z" />
<glyph unicode="&#xf4;" glyph-name="ocircumflex" horiz-adv-x="615" d="M308 -10Q231 -10 171 25T75 122T40 263Q40 342 75 403T170 500T308 536Q384 536 444 501T540 404T575 263Q575 184 540 123T445 26T308 -10ZM308 84Q355 84 392 107T450 171T470 263Q471
315 450 355T392 419T308 442Q261 442 224 419T165 355T145 263Q144 212 165 172T223 108T308 84ZM188 607L150 640L265 753H351L466 640L428 607L308 672L188 607Z" />
<glyph unicode="&#xf5;" glyph-name="otilde" horiz-adv-x="615" d="M308 -10Q231 -10 171 25T75 122T40 263Q40 342 75 403T170 500T308 536Q384 536 444 501T540 404T575 263Q575 184 540 123T445 26T308 -10ZM308 84Q355 84 392 107T450 171T470 263Q471 315
450 355T392 419T308 442Q261 442 224 419T165 355T145 263Q144 212 165 172T223 108T308 84ZM359 615Q339 615 326 623T297 643Q278 660 269 666T251 673Q222 673 214 615L146 625Q148 674 177 710T256 746Q276 746 289 738T318 718Q338 702 347 695T364 688Q393
688 401 746L469 736Q467 687 438 651T359 615Z" />
<glyph unicode="&#xf6;" glyph-name="odieresis" horiz-adv-x="615" d="M308 -10Q231 -10 171 25T75 122T40 263Q40 342 75 403T170 500T308 536Q384 536 444 501T540 404T575 263Q575 184 540 123T445 26T308 -10ZM308 84Q355 84 392 107T450 171T470 263Q471
315 450 355T392 419T308 442Q261 442 224 419T165 355T145 263Q144 212 165 172T223 108T308 84ZM408 642Q375 642 357 659T339 707Q339 736 357 754T408 772Q441 772 459 755T477 707Q477 678 459 660T408 642ZM208 642Q175 642 157 659T139 707Q139 736 157
754T208 772Q241 772 259 755T277 707Q277 678 259 660T208 642Z" />
<glyph unicode="&#xf7;" glyph-name="divide" horiz-adv-x="597" d="M293 372Q266 372 247 391T227 436Q227 463 246 482T293 502Q320 502 339 483T358 436Q358 410 339 391T293 372ZM50 215V305H547V215H50ZM293 15Q266 15 247 34T227 80Q227 107 246 126T293
145Q320 145 339 126T358 80Q358 53 339 34T293 15Z" />
<glyph unicode="&#xf8;" glyph-name="oslash" horiz-adv-x="615" d="M107 -35L41 13L102 84Q72 119 56 164T40 263Q40 342 75 403T170 500T308 536Q348 536 384 526T452 496L494 545L561 496L514 441Q543 406 559 361T575 263Q575 184 540 123T445 26T308 -10Q267
-10 231 0T163 30L107 -35ZM145 263Q144 208 169 164L388 421Q352 442 308 442Q261 442 224 419T165 355T145 263ZM308 84Q355 84 392 107T450 171T470 263Q471 318 446 362L227 105Q264 84 308 84Z" />
<glyph unicode="&#xf9;" glyph-name="ugrave" horiz-adv-x="605" d="M256 -10Q172 -10 122 47T72 201V525H175V229Q175 160 207 120T298 80Q355 80 392 116T430 209V525H533V0H430V84Q404 42 358 16T256 -10ZM353 606L179 700L244 782L387 657L353 606Z" />
<glyph unicode="&#xfa;" glyph-name="uacute" horiz-adv-x="605" d="M256 -10Q172 -10 122 47T72 201V525H175V229Q175 160 207 120T298 80Q355 80 392 116T430 209V525H533V0H430V84Q404 42 358 16T256 -10ZM233 606L199 657L342 782L407 700L233 606Z" />
<glyph unicode="&#xfb;" glyph-name="ucircumflex" horiz-adv-x="605" d="M256 -10Q172 -10 122 47T72 201V525H175V229Q175 160 207 120T298 80Q355 80 392 116T430 209V525H533V0H430V84Q404 42 358 16T256 -10ZM183 607L145 640L260 753H346L461 640L423 607L303
672L183 607Z" />
<glyph unicode="&#xfc;" glyph-name="udieresis" horiz-adv-x="605" d="M256 -10Q172 -10 122 47T72 201V525H175V229Q175 160 207 120T298 80Q355 80 392 116T430 209V525H533V0H430V84Q404 42 358 16T256 -10ZM403 642Q370 642 352 659T334 707Q334 736 352
754T403 772Q436 772 454 755T472 707Q472 678 454 660T403 642ZM203 642Q170 642 152 659T134 707Q134 736 152 754T203 772Q236 772 254 755T272 707Q272 678 254 660T203 642Z" />
<glyph unicode="&#xfd;" glyph-name="yacute" horiz-adv-x="581" d="M160 -230L249 -25L5 525H125L289 139Q294 128 302 104L317 146L454 525H576L360 0L271 -230H160ZM221 606L187 657L330 782L395 700L221 606Z" />
<glyph unicode="&#xfe;" glyph-name="thorn" horiz-adv-x="631" d="M72 -220V740H176V450Q200 484 247 509T346 534Q417 534 472 499T559 403T591 263Q591 185 560 124T473 27T349 -9Q298 -9 251 14T176 69V-220H72ZM332 86Q378 86 414 109T471 172T492 263Q492
314 472 353T415 416T332 439Q285 439 249 417T192 354T171 263Q171 212 192 172T249 109T332 86Z" />
<glyph unicode="&#xff;" glyph-name="ydieresis" horiz-adv-x="581" d="M160 -230L249 -25L5 525H125L289 139Q294 128 302 104L317 146L454 525H576L360 0L271 -230H160ZM391 642Q358 642 340 659T322 707Q322 736 340 754T391 772Q424 772 442 755T460 707Q460
678 442 660T391 642ZM191 642Q158 642 140 659T122 707Q122 736 140 754T191 772Q224 772 242 755T260 707Q260 678 242 660T191 642Z" />
<glyph unicode="&#x2013;" glyph-name="endash" horiz-adv-x="514" d="M53 237V336H461V237H53Z" />
<glyph unicode="&#x2014;" glyph-name="emdash" horiz-adv-x="868" d="M53 237V337H815V237H53Z" />
<glyph unicode="&#x2018;" glyph-name="quoteleft" horiz-adv-x="241" d="M139 480Q97 480 69 511T40 593Q40 628 59 660T110 718T183 756L221 710Q182 692 157 669T132 629Q132 616 143 606T163 588Q185 570 192 558T200 533Q200 509 183 495T139 480Z" />
<glyph unicode="&#x2019;" glyph-name="quoteright" horiz-adv-x="241" d="M58 475L20 521Q59 539 84 562T109 602Q109 615 98 625T78 643Q56 661 49 673T41 698Q41 722 58 736T102 751Q144 751 172 720T201 638Q201 604 182 571T131 513T58 475Z" />
<glyph unicode="&#x201a;" glyph-name="quotesinglbase" horiz-adv-x="282" d="M89 -179L51 -133Q86 -113 108 -87T130 -42Q130 -32 125 -23T104 4Q84 23 78 36T72 64Q72 88 89 102T133 117Q171 117 196 86T222 4Q222 -35 205 -71T157 -136T89 -179Z" />
<glyph unicode="&#x201c;" glyph-name="quotedblleft" horiz-adv-x="448" d="M139 731Q97 731 69 762T40 844Q40 879 59 911T110 969T183 1007L221 961Q182 943 157 920T132 880Q132 867 143 857T163 839Q185 821 192 809T200 784Q200 760 183 746T139 731ZM346
475Q304 475 276 506T247 588Q247 623 266 655T317 713T390 751L428 705Q389 687 364 664T339 624Q339 611 350 601T370 583Q392 565 399 553T407 528Q407 504 390 490T346 475Z" />
<glyph unicode="&#x201d;" glyph-name="quotedblright" horiz-adv-x="445" d="M58 475L20 521Q59 539 84 562T109 602Q109 615 98 625T78 643Q56 661 49 673T41 698Q41 722 58 736T102 751Q144 751 172 720T201 638Q201 604 182 571T131 513T58 475ZM262 475L224
521Q263 539 288 562T313 602Q313 615 302 625T282 643Q260 661 253 673T245 698Q245 722 262 736T306 751Q348 751 376 720T405 638Q405 604 386 571T335 513T262 475Z" />
<glyph unicode="&#x201e;" glyph-name="quotedblbase" horiz-adv-x="483" d="M328 -179L290 -133Q325 -113 347 -87T369 -42Q369 -32 364 -23T343 4Q323 23 317 36T311 64Q311 88 328 102T372 117Q410 117 435 86T461 4Q461 -35 444 -71T396 -136T328 -179ZM297
-179L259 -133Q294 -113 316 -87T338 -42Q338 -32 333 -23T312 4Q292 23 286 36T280 64Q280 88 297 102T341 117Q379 117 404 86T430 4Q430 -35 413 -71T365 -136T297 -179Z" />
<glyph unicode="&#x2022;" glyph-name="bullet" horiz-adv-x="346" d="M173 216Q136 216 105 234T56 283T37 351Q37 389 55 420T104 469T173 488Q211 488 242 470T291 420T310 351Q310 314 292 283T242 234T173 216Z" />
<glyph unicode="&#x2039;" glyph-name="guilsinglleft" horiz-adv-x="273" d="M170 50L11 257V259L169 471L232 426L117 261L233 95L170 50Z" />
<glyph unicode="&#x203a;" glyph-name="guilsinglright" horiz-adv-x="275" d="M104 50L41 95L156 260L40 426L103 471L262 264V262L104 50Z" />
</font>
</defs>
</svg>
